<svg width="367" height="198" viewBox="0 0 367 198" fill="none" xmlns="http://www.w3.org/2000/svg">
<g clip-path="url(#clip0_154_1112)">
<path d="M127.454 0.240995C148.499 0.428598 169.564 0.115962 190.629 1.97115C217.738 3.92166 243.379 15.0655 263.34 33.5718C268.804 38.5537 274.268 42.5767 282.037 43.2229C287.833 43.7023 293.65 45.2032 296.164 51.9361C297.39 55.2296 301.233 55.1462 303.954 56.4177C321.239 64.3804 338.295 72.6558 352.567 85.6004C356.285 88.9772 359.505 92.1456 358.529 97.8988C357.449 104.152 357.511 110.26 362.684 115.242C363.93 116.409 364.034 119.056 364.2 121.057C365.385 135.649 362.642 150.636 366.548 165.186C367.587 169.063 366.029 172.857 362.393 173.524C346.251 176.504 333.08 188.761 315.733 188.011C308.359 187.677 301.191 187.302 294.959 182.841C292.065 181.008 288.64 180.207 285.236 180.569C268.991 180.944 252.558 179.86 236.562 182.028C213.087 185.197 189.653 184.384 166.178 184.717C162.023 184.717 158.408 184.363 155.375 188.761C146.504 201.539 133.022 196.515 121.18 196.182C110.627 195.89 105.101 187.552 103.044 178.714C100.842 169.167 95.6275 165.207 86.9853 162.559C75.7878 159.141 65.0058 154.409 54.0576 150.24C49.9027 148.677 46.7242 147.822 43.6704 152.846C36.8771 163.935 25.3057 161.058 15.3963 160.266C6.17238 159.537 4.17803 150.782 2.93156 143.299C-0.849407 121.307 -1.05716 99.7123 4.90513 77.5543C8.93539 62.5669 13.7966 49.6848 26.1782 40.0337C29.2529 37.6365 30.9564 33.3425 32.93 29.7155C43.3172 10.6217 59.833 1.36664 80.9606 0.532852C96.3338 -0.300939 111.894 0.240995 127.454 0.240995ZM127.849 8.70397C112.289 8.70397 96.687 8.37045 81.1476 8.82903C69.1192 9.16255 57.5685 12.5395 49.2379 21.5861C38.5391 33.1966 32.6183 48.6843 19.5719 58.6064C17.0582 60.5449 16.5596 65.4226 15.5832 69.0288C14.3368 73.698 14.0667 78.6799 12.4671 83.1824C5.44527 102.943 8.02133 122.787 11.2206 142.757C11.8854 146.926 12.3424 152.637 18.6994 152.137C25.0564 151.637 33.574 155.326 37.2303 146.967C40.8866 138.609 46.6619 138.629 53.3305 141.068C64.715 145.091 75.7255 150.261 87.2553 153.763C99.1591 157.369 108.632 162.101 110.959 176.129C112.122 183.154 116.817 189.803 125.127 188.303C133.769 186.718 146.359 194.285 150.057 179.068C150.867 175.608 153.568 176.129 155.811 176.254C199.812 178.693 243.459 170.647 287.418 172.085C291.261 172.085 295.188 172.085 298.179 174.879C303.206 179.694 309.356 179.256 315.63 179.715C330.566 180.798 340.975 167.896 355.35 167.416C358.737 167.312 358.55 163.56 357.76 161.621C352.941 150.136 356.888 138.296 356.306 126.665C355.911 118.89 348.495 113.887 349.928 106.424C352.193 94.8554 344.776 89.4566 337.048 84.0787C332.519 80.9311 327.263 78.7216 323.067 75.2197C311.62 65.6936 293.609 66.8817 285.507 52.0194C285.141 51.6433 284.694 51.3573 284.201 51.1837C283.707 51.0101 283.18 50.9537 282.66 51.0189C269.988 52.478 262.509 43.5148 254.137 36.636C237.517 22.941 219.132 13.7068 197.298 11.2262C174.235 8.75828 151.029 7.91543 127.849 8.70397Z" fill="#5F0052"/>
<path d="M127.848 8.70438C151.006 7.90492 174.192 8.7338 197.235 11.1849C219.069 13.8114 237.454 22.8997 254.074 36.5947C262.383 43.4735 269.925 52.4367 282.597 50.9776C283.116 50.9124 283.643 50.9688 284.137 51.1424C284.631 51.316 285.078 51.6021 285.443 51.9782C293.545 66.8822 311.557 65.6523 323.003 75.1784C327.158 78.6803 332.456 80.8899 336.985 84.0374C344.713 89.4154 352.129 94.8142 349.865 106.383C348.431 113.845 355.848 118.89 356.243 126.623C356.824 138.255 352.877 150.095 357.697 161.58C358.486 163.519 358.673 167.271 355.287 167.375C340.911 167.854 330.503 180.757 315.566 179.673C309.334 179.215 303.102 179.673 298.116 174.837C295.124 171.982 291.198 172.148 287.354 172.044C243.396 170.668 199.748 178.714 155.748 176.213C153.504 176.088 150.803 175.567 149.993 179.027C146.358 194.244 133.768 186.677 125.064 188.261C116.754 189.762 112.059 183.113 110.896 176.088C108.569 162.08 99.0957 157.328 87.1919 153.721C75.6621 150.22 64.6516 145.05 53.2672 141.027C46.5985 138.651 40.8024 138.588 37.1669 146.926C33.5314 155.264 25.1177 151.595 18.636 152.096C12.1544 152.596 11.822 146.822 11.1572 142.715C7.95796 122.83 5.3819 102.902 12.4037 83.1411C14.0033 78.6386 14.2734 73.6567 15.5199 68.9875C16.4963 65.3605 16.9948 60.4828 19.5086 58.5651C32.4926 48.5596 38.4757 33.1553 49.1746 21.5448C57.4844 12.4981 69.0558 9.03792 81.0842 8.78778C96.7067 8.37089 112.288 8.70438 127.848 8.70438ZM245.328 160.267V158.474C263.609 158.474 281.912 158.307 300.193 158.474C312.907 158.62 308.254 149.219 309.064 142.903C309.978 135.753 306.841 133.231 299.487 133.565C263.962 135.26 228.417 136.65 192.851 137.734C180.885 138.109 185.248 146.759 184.541 152.784C183.752 159.35 185.642 163.206 193.578 162.664C210.8 161.559 228.085 161.059 245.328 160.267Z" fill="#EEEFF1"/>
<path d="M245.329 160.265C228.086 161.057 210.801 161.558 193.579 162.767C185.643 163.309 183.753 159.452 184.542 152.886C185.269 146.862 180.907 138.295 192.852 137.836C228.418 136.683 263.963 135.293 299.488 133.667C306.842 133.334 309.979 135.752 309.065 143.006C308.255 149.259 312.908 158.723 300.194 158.577C281.913 158.348 263.61 158.577 245.329 158.577V160.265Z" fill="#11232D"/>
</g>
<defs>
<clipPath id="clip0_154_1112">
<rect width="366.836" height="197.379" fill="white" transform="translate(0.0644531 0.0324707)"/>
</clipPath>
</defs>
</svg>
