<svg width="16" height="16" viewBox="0 0 16 16" fill="none" xmlns="http://www.w3.org/2000/svg">
<g clip-path="url(#clip0_154_759)">
<path d="M2.41836 16H13.5828C14.7532 16 15.7043 15.0489 15.7043 13.8785V3.30665C15.7043 2.13628 14.7532 1.18516 13.5828 1.18516H12.7413V0.592582C12.7413 0.266652 12.4746 0 12.1487 0C11.8228 0 11.5561 0.266652 11.5561 0.592582V1.18516H4.44504V0.592582C4.44504 0.266652 4.17834 0 3.85241 0C3.52648 0 3.25983 0.266652 3.25983 0.592582V1.18516H2.41836C1.24799 1.18516 0.296875 2.13628 0.296875 3.30665V13.8785C0.296875 15.0489 1.24799 16 2.41836 16ZM1.48209 3.30665C1.48209 2.79111 1.90282 2.37038 2.41836 2.37038H3.25983V2.96296C3.25983 3.28889 3.52648 3.55554 3.85241 3.55554C4.17834 3.55554 4.445 3.28889 4.445 2.96296V2.37038H11.5561V2.96296C11.5561 3.28889 11.8228 3.55554 12.1487 3.55554C12.4746 3.55554 12.7413 3.28889 12.7413 2.96296V2.37038H13.5828C14.0983 2.37038 14.519 2.79111 14.519 3.30665V5.03704H1.48209V3.30665ZM1.48209 6.22221H14.5191V13.8785C14.5191 14.3941 14.0984 14.8148 13.5829 14.8148H2.41836C1.90282 14.8148 1.48209 14.3941 1.48209 13.8785V6.22221Z" fill="#5F0052"/>
</g>
<defs>
<clipPath id="clip0_154_759">
<rect width="16" height="16" fill="white"/>
</clipPath>
</defs>
</svg>
