<svg width="24" height="24" viewBox="0 0 24 24" fill="none" xmlns="http://www.w3.org/2000/svg">
<g clip-path="url(#clip0_154_946)">
<path d="M12 0C5.38294 0 0 5.38294 0 12C0 18.6171 5.38294 24 12 24C18.6171 24 24 18.6171 24 12C24 5.38294 18.6171 0 12 0Z" fill="#F44336"/>
<path d="M16.4204 15.0043C16.8113 15.3955 16.8113 16.0274 16.4204 16.4185C16.3276 16.5115 16.2174 16.5852 16.0961 16.6355C15.9747 16.6858 15.8446 16.7116 15.7133 16.7114C15.4573 16.7114 15.2013 16.6135 15.0063 16.4185L12.0014 13.4133L8.99644 16.4185C8.90369 16.5115 8.79349 16.5852 8.67215 16.6355C8.55082 16.6858 8.42076 16.7116 8.28942 16.7115C8.15807 16.7116 8.02799 16.6858 7.90664 16.6355C7.7853 16.5852 7.67508 16.5115 7.58231 16.4185C7.19138 16.0274 7.19138 15.3955 7.58231 15.0043L10.5874 11.9994L7.58227 8.99448C7.19133 8.60336 7.19133 7.97144 7.58227 7.58036C7.97339 7.18942 8.60531 7.18942 8.99644 7.58036L12.0014 10.5855L15.0063 7.58031C15.3974 7.18937 16.0293 7.18937 16.4204 7.58031C16.8113 7.97144 16.8113 8.60336 16.4204 8.99448L13.4153 11.9994L16.4204 15.0043Z" fill="#FAFAFA"/>
</g>
<defs>
<clipPath id="clip0_154_946">
<rect width="24" height="24" fill="white"/>
</clipPath>
</defs>
</svg>
