<svg width="66" height="66" viewBox="0 0 66 66" fill="none" xmlns="http://www.w3.org/2000/svg">
<rect x="11.7422" y="11.3613" width="42.0559" height="42.8206" fill="white"/>
<path fill-rule="evenodd" clip-rule="evenodd" d="M32.7736 0.146484C50.7892 0.146484 65.3988 14.7562 65.3988 32.7717C65.3988 50.7872 50.7892 65.3969 32.7736 65.3969C14.7581 65.3969 0.148438 50.7872 0.148438 32.7717C0.148438 14.7562 14.7581 0.146484 32.7736 0.146484ZM16.2838 44.5807L28.0928 32.7717L16.2838 20.9627C15.6064 20.285 15.6064 19.1796 16.2838 18.5021L18.5041 16.2818C19.1815 15.6044 20.2869 15.6044 20.9646 16.2818L32.7736 28.0909L44.5827 16.2818C45.2604 15.6044 46.3658 15.6044 47.0432 16.2818L49.2635 18.5021C49.9409 19.1796 49.9409 20.285 49.2635 20.9627L37.4545 32.7717L49.2635 44.5807C49.9409 45.2584 49.9409 46.3638 49.2635 47.0412L47.0432 49.2616C46.3658 49.939 45.2604 49.939 44.5827 49.2616L32.7736 37.4525L20.9646 49.2616C20.2869 49.939 19.1815 49.939 18.5041 49.2616L16.2838 47.0412C15.6064 46.3638 15.6064 45.2584 16.2838 44.5807Z" fill="#FF4141"/>
</svg>
