<svg width="80" height="80" viewBox="0 0 80 80" fill="none" xmlns="http://www.w3.org/2000/svg">
<path d="M71.8654 36.5336L68.9987 33.2336H70.232C72.3654 33.2336 74.0987 31.5003 74.0987 29.367V28.1003C74.0987 25.967 72.3654 24.2336 70.232 24.2336H69.132C68.1987 24.2336 67.4654 24.967 67.4654 25.9003C67.4654 26.8336 68.1987 27.567 69.132 27.567H70.232C70.532 27.567 70.7654 27.8003 70.7654 28.1003V29.367C70.7654 29.667 70.532 29.9003 70.232 29.9003H67.8987L65.3987 21.7336C64.623 19.1862 63.046 16.957 60.902 15.3776C58.758 13.7981 56.1616 12.9527 53.4987 12.967H26.4987C20.9987 12.967 16.232 16.5003 14.5987 21.7336L12.0987 29.9003H9.76536C9.46536 29.9003 9.23203 29.667 9.23203 29.367V28.1003C9.23203 27.8003 9.46536 27.567 9.76536 27.567H10.8654C11.7987 27.567 12.532 26.8336 12.532 25.9003C12.532 24.967 11.7987 24.2336 10.8654 24.2336H9.76536C7.63203 24.2336 5.8987 25.967 5.8987 28.1003V29.367C5.8987 31.5003 7.63203 33.2336 9.76536 33.2336H10.9987L8.13203 36.5336C6.33203 38.6003 5.33203 41.267 5.33203 44.0336V53.6003C5.33203 55.6336 6.46536 57.4003 8.16536 58.3336V62.1003C8.16536 64.867 10.3987 67.1003 13.1654 67.1003H18.8987C21.6654 67.1003 23.8987 64.867 23.8987 62.1003V59.0336H56.0987V62.1003C56.0987 64.867 58.332 67.1003 61.0987 67.1003H66.832C69.5987 67.1003 71.832 64.867 71.832 62.1003V58.3336C73.4987 57.4003 74.6654 55.667 74.6654 53.6003V44.0336C74.6654 41.267 73.6654 38.6003 71.8654 36.5336ZM10.6654 38.7336L13.8654 35.067C14.0269 34.8995 14.1419 34.6926 14.1987 34.467L14.8654 32.3003L14.9654 32.0003L17.832 22.7336C18.4042 20.8723 19.5577 19.2432 21.1235 18.0854C22.6892 16.9276 24.5847 16.302 26.532 16.3003H53.4987C57.532 16.3003 61.032 18.867 62.1987 22.7336L65.0654 32.0003C65.0654 32.0003 65.0987 32.2003 65.1654 32.3003L65.832 34.467C65.8889 34.6926 66.0038 34.8995 66.1654 35.067L69.3654 38.7336C70.632 40.2003 71.3654 42.1003 71.3654 44.067V48.9003H63.7654C62.6654 48.9003 61.732 48.0003 61.732 46.867V44.7336C61.732 43.6336 62.632 42.7003 63.7654 42.7003H67.832C68.7654 42.7003 69.4987 41.967 69.4987 41.0336C69.4987 40.1003 68.7654 39.367 67.832 39.367H63.7654C60.7987 39.367 58.3987 41.767 58.3987 44.7336V46.867C58.3987 49.8336 60.7987 52.2336 63.7654 52.2336H71.3654V53.6336C71.3654 54.767 70.432 55.7003 69.2987 55.7003H52.1654V50.0003C52.1654 49.067 51.432 48.3336 50.4987 48.3336H29.5654C28.632 48.3336 27.8987 49.067 27.8987 50.0003V55.7003H10.7654C9.63203 55.7003 8.6987 54.767 8.6987 53.6336V52.2336H16.2987C19.2654 52.2336 21.6654 49.8336 21.6654 46.867V44.7336C21.6654 41.767 19.2654 39.367 16.2987 39.367H12.232C11.2987 39.367 10.5654 40.1003 10.5654 41.0336C10.5654 41.967 11.2987 42.7003 12.232 42.7003H16.2987C17.3987 42.7003 18.332 43.6003 18.332 44.7336V46.867C18.332 47.967 17.432 48.9003 16.2987 48.9003H8.6987V44.067C8.6987 42.1003 9.3987 40.2336 10.6987 38.7336H10.6654ZM20.5654 62.067C20.5654 63.0003 19.832 63.7336 18.8987 63.7336H13.1654C12.232 63.7336 11.4987 63.0003 11.4987 62.067V59.0003H20.5654V62.067ZM31.1987 55.667V51.6336H48.7987V55.667H31.1987ZM68.4987 62.067C68.4987 63.0003 67.7654 63.7336 66.832 63.7336H61.0987C60.1654 63.7336 59.432 63.0003 59.432 62.067V59.0003H68.4987V62.067Z" fill="#FF5D00"/>
<path d="M19.9635 33.2005H60.0302C60.9635 33.2005 61.6969 32.4672 61.6969 31.5339C61.6969 30.6005 60.9635 29.8672 60.0302 29.8672H19.9635C19.0302 29.8672 18.2969 30.6005 18.2969 31.5339C18.2969 32.4672 19.0302 33.2005 19.9635 33.2005ZM53.6302 39.3339H26.3635C25.4302 39.3339 24.6969 40.0672 24.6969 41.0005C24.6969 41.9339 25.4302 42.6672 26.3635 42.6672H53.6302C54.5635 42.6672 55.2969 41.9339 55.2969 41.0005C55.2969 40.0672 54.5635 39.3339 53.6302 39.3339Z" fill="#FF5D00"/>
</svg>
