<svg width="216" height="50" viewBox="0 0 216 50" fill="none" xmlns="http://www.w3.org/2000/svg">
<g filter="url(#filter0_d_1_1829)">
<path d="M39.7476 45.877H24.9388V45.8647L14.4688 35.4194V29.2882L18.8076 24.937L39.7476 45.877Z" fill="url(#paint0_linear_1_1829)"/>
<path opacity="0.83" d="M39.7476 45.877H24.9388V45.8647L14.4688 35.4194V29.2882L18.8076 24.937L39.7476 45.877Z" fill="url(#paint1_linear_1_1829)"/>
<path d="M39.2539 45.6819H25.0384L14.6797 35.3355V29.365L15.1741 28.8829L18.8084 25.2363L39.2539 45.6819Z" fill="url(#paint2_linear_1_1829)"/>
<path opacity="0.25" d="M39.2556 45.6819H31.9748L15.1758 28.8829L18.81 25.2363L39.2556 45.6819Z" fill="url(#paint3_linear_1_1829)"/>
<path d="M14.47 4V14.4701L11.4167 17.548L9.34007 19.6124L4 24.9399V4H14.47Z" fill="url(#paint4_linear_1_1829)"/>
<path opacity="0.79" d="M14.47 4V14.4701L11.4167 17.548L9.34007 19.6124L4 24.9399V4H14.47Z" fill="url(#paint5_linear_1_1829)"/>
<path d="M4.21094 4.19336H14.2731V18.5696L11.2693 17.3953L4.21094 28.6317V4.19336Z" fill="url(#paint6_linear_1_1829)"/>
<path opacity="0.46" d="M4.40625 4.40576H8.93048V19.4494L4.40625 23.9613V4.40576Z" fill="url(#paint7_linear_1_1829)"/>
<path d="M39.7488 4.05786L19.3403 25.4923C19.2538 25.6036 18.9818 25.9373 18.611 26.4318C17.2389 28.2736 14.4823 32.3157 14.4823 35.1465V45.839H4V24.9361L11.4167 17.5193L14.47 14.4413L23.5308 5.38052L24.9523 4.05786H39.7488Z" fill="url(#paint8_linear_1_1829)"/>
<path opacity="0.79" d="M39.7488 4.05786L19.3403 25.4923C19.2538 25.6036 18.9818 25.9373 18.611 26.4318C17.2389 28.2736 14.4823 32.3157 14.4823 35.1465V45.839H4V24.9361L11.4167 17.5193L14.47 14.4413L23.5308 5.38052L24.9523 4.05786H39.7488Z" fill="url(#paint9_linear_1_1829)"/>
<path d="M4.21094 45.686V25.0797L11.6277 17.7371L14.6933 14.6592L25.1015 4.25098H39.2799L19.2176 25.364L19.1187 25.4877L18.4635 26.3282C16.9184 28.4173 14.3101 32.3482 14.3101 35.1665V45.6489L4.21094 45.686Z" fill="url(#paint10_linear_1_1829)"/>
<g opacity="0.44">
<path d="M9.23943 45.4689C8.9922 28.398 8.89331 27.5451 27.188 9.3493L32.1325 4.40479H38.7829L19.0048 25.2211C18.7283 25.5383 18.4723 25.8727 18.2384 26.2224C16.6809 28.3115 14.048 32.2794 14.048 35.1596V45.4689H9.23943Z" fill="url(#paint11_linear_1_1829)"/>
<path d="M9.23959 45.4689C9.23959 27.2608 8.95528 28.9419 16.78 20.1036C19.3264 17.2358 22.7011 13.8117 27.1882 9.3493L32.1327 4.40479H38.7831L19.005 25.2211C18.7285 25.5383 18.4725 25.8727 18.2386 26.2224C16.6811 28.3115 14.0482 32.2794 14.0482 35.1596V45.4689H9.23959Z" fill="url(#paint12_linear_1_1829)"/>
</g>
<path d="M68.6965 37.2363C68.2244 36.472 67.6624 35.6515 67.0104 34.7747C66.381 33.8755 65.6841 32.9875 64.9198 32.1108C64.1779 31.2116 63.4023 30.3573 62.593 29.548C61.7837 28.7162 60.9744 27.9856 60.1651 27.3561V37.2363H54.9047V13.8679H60.1651V22.7027C61.5364 21.2639 62.9077 19.769 64.2791 18.2178C65.6728 16.6442 66.9655 15.1942 68.1569 13.8679H74.3953C72.7992 15.7562 71.1918 17.5771 69.5732 19.3306C67.9771 21.0841 66.2911 22.8488 64.5151 24.6248C66.381 26.1759 68.1794 28.0193 69.9104 30.155C71.6639 32.2906 73.3387 34.6511 74.9348 37.2363H68.6965ZM84.0673 33.7294C84.5619 33.7294 85.034 33.7181 85.4836 33.6956C85.9332 33.6732 86.2929 33.6394 86.5627 33.5945V29.784C86.3604 29.7391 86.0569 29.6941 85.6522 29.6492C85.2476 29.6042 84.8766 29.5817 84.5394 29.5817C84.0673 29.5817 83.6177 29.6154 83.1906 29.6829C82.786 29.7278 82.4263 29.829 82.1115 29.9864C81.7968 30.1437 81.5495 30.3573 81.3697 30.6271C81.1898 30.8968 81.0999 31.234 81.0999 31.6387C81.0999 32.4255 81.3584 32.9763 81.8755 33.291C82.415 33.5832 83.1456 33.7294 84.0673 33.7294ZM83.6627 19.0271C85.1464 19.0271 86.3828 19.1957 87.372 19.5329C88.3611 19.8701 89.1479 20.3535 89.7324 20.9829C90.3394 21.6124 90.7665 22.3767 91.0138 23.2759C91.2611 24.1752 91.3847 25.1755 91.3847 26.2771V36.7305C90.6654 36.8879 89.665 37.0677 88.3836 37.27C87.1022 37.4949 85.5511 37.6073 83.7301 37.6073C82.5836 37.6073 81.5383 37.5061 80.5941 37.3038C79.6724 37.1014 78.8743 36.7755 78.1999 36.3259C77.5255 35.8538 77.0085 35.2468 76.6488 34.5049C76.2891 33.7631 76.1092 32.8526 76.1092 31.7736C76.1092 30.7395 76.3116 29.8627 76.7162 29.1433C77.1433 28.424 77.7054 27.8507 78.4023 27.4236C79.0992 26.9965 79.8972 26.693 80.7964 26.5131C81.6956 26.3108 82.6286 26.2096 83.5952 26.2096C84.2472 26.2096 84.8204 26.2434 85.315 26.3108C85.8321 26.3558 86.2479 26.4232 86.5627 26.5131V26.041C86.5627 25.1868 86.3042 24.5011 85.7871 23.9841C85.27 23.467 84.3708 23.2085 83.0894 23.2085C82.2352 23.2085 81.3922 23.2759 80.5604 23.4108C79.7286 23.5232 79.0092 23.6918 78.4023 23.9166L77.7616 19.8701C78.0538 19.7802 78.4135 19.6903 78.8406 19.6004C79.2902 19.488 79.7736 19.3981 80.2906 19.3306C80.8077 19.2407 81.3472 19.1732 81.9092 19.1283C82.4937 19.0608 83.0782 19.0271 83.6627 19.0271ZM106.618 23.9504C106.168 23.838 105.64 23.7255 105.033 23.6131C104.426 23.4783 103.774 23.4108 103.077 23.4108C102.762 23.4108 102.38 23.4445 101.93 23.512C101.503 23.5569 101.177 23.6131 100.952 23.6806V37.2363H95.9281V20.4434C96.8273 20.1287 97.8839 19.8364 99.0978 19.5667C100.334 19.2744 101.706 19.1283 103.212 19.1283C103.482 19.1283 103.808 19.1508 104.19 19.1957C104.572 19.2182 104.954 19.2632 105.336 19.3306C105.718 19.3756 106.101 19.443 106.483 19.5329C106.865 19.6004 107.191 19.6903 107.461 19.8027L106.618 23.9504ZM116.864 33.2236C117.606 33.2236 118.213 33.1674 118.685 33.055C119.18 32.9201 119.573 32.7515 119.866 32.5491C120.158 32.3243 120.36 32.0658 120.473 31.7736C120.585 31.4813 120.641 31.1554 120.641 30.7957C120.641 30.0313 120.281 29.4019 119.562 28.9073C118.843 28.3903 117.606 27.8395 115.853 27.255C115.088 26.9852 114.324 26.6817 113.56 26.3445C112.795 25.9848 112.11 25.5465 111.503 25.0294C110.896 24.4899 110.401 23.8492 110.019 23.1073C109.637 22.343 109.446 21.4213 109.446 20.3422C109.446 19.2632 109.648 18.2965 110.053 17.4423C110.458 16.5655 111.031 15.8237 111.773 15.2167C112.514 14.6097 113.414 14.1489 114.47 13.8341C115.527 13.4969 116.718 13.3283 118.045 13.3283C119.618 13.3283 120.978 13.4969 122.125 13.8341C123.271 14.1713 124.216 14.5423 124.957 14.9469L123.44 19.0946C122.788 18.7574 122.057 18.4651 121.248 18.2178C120.461 17.9481 119.506 17.8132 118.382 17.8132C117.123 17.8132 116.213 17.993 115.651 18.3527C115.111 18.6899 114.841 19.2182 114.841 19.9376C114.841 20.3647 114.942 20.7244 115.145 21.0166C115.347 21.3089 115.628 21.5787 115.988 21.8259C116.37 22.0508 116.797 22.2643 117.269 22.4666C117.764 22.6465 118.303 22.8376 118.888 23.0399C120.102 23.4895 121.158 23.9391 122.057 24.3887C122.957 24.8159 123.699 25.3217 124.283 25.9062C124.89 26.4907 125.34 27.1763 125.632 27.9631C125.924 28.7499 126.07 29.7054 126.07 30.8294C126.07 33.01 125.306 34.7073 123.777 35.9212C122.249 37.1127 119.944 37.7084 116.864 37.7084C115.83 37.7084 114.897 37.641 114.066 37.5061C113.234 37.3937 112.492 37.2476 111.84 37.0677C111.211 36.8879 110.66 36.6968 110.188 36.4945C109.738 36.2921 109.356 36.1011 109.041 35.9212L110.525 31.7398C111.222 32.122 112.076 32.4705 113.088 32.7852C114.122 33.0774 115.381 33.2236 116.864 33.2236ZM129.612 15.0818L134.636 14.2725V19.4992H140.672V23.6806H134.636V29.9189C134.636 30.9755 134.816 31.8185 135.176 32.448C135.558 33.0774 136.311 33.3922 137.435 33.3922C137.975 33.3922 138.525 33.3472 139.087 33.2573C139.672 33.1449 140.2 32.9988 140.672 32.8189L141.38 36.7305C140.774 36.9778 140.099 37.1914 139.357 37.3712C138.615 37.5511 137.705 37.641 136.626 37.641C135.255 37.641 134.119 37.4611 133.22 37.1014C132.321 36.7193 131.601 36.2022 131.062 35.5503C130.522 34.8759 130.14 34.0666 129.915 33.1224C129.713 32.1782 129.612 31.1329 129.612 29.9864V15.0818ZM159.905 36.6294C159.05 36.8766 157.949 37.1014 156.6 37.3038C155.251 37.5286 153.835 37.641 152.351 37.641C150.845 37.641 149.586 37.4387 148.574 37.034C147.585 36.6294 146.798 36.0673 146.214 35.348C145.629 34.6061 145.214 33.7294 144.966 32.7177C144.719 31.7061 144.595 30.5933 144.595 29.3794V19.4992H149.62V28.7724C149.62 30.391 149.833 31.56 150.26 32.2794C150.688 32.9988 151.486 33.3584 152.655 33.3584C153.014 33.3584 153.396 33.3472 153.801 33.3247C154.206 33.2798 154.565 33.2348 154.88 33.1898V19.4992H159.905V36.6294ZM168.903 28.2329C168.903 29.784 169.252 31.0317 169.949 31.9759C170.646 32.9201 171.68 33.3922 173.051 33.3922C173.501 33.3922 173.917 33.3809 174.299 33.3584C174.681 33.3135 174.996 33.2685 175.243 33.2236V24.0852C174.928 23.8829 174.512 23.7143 173.995 23.5794C173.501 23.4445 172.995 23.3771 172.478 23.3771C170.095 23.3771 168.903 24.9957 168.903 28.2329ZM180.267 36.6631C179.818 36.798 179.301 36.9328 178.716 37.0677C178.132 37.1801 177.514 37.2813 176.862 37.3712C176.232 37.4611 175.58 37.5286 174.906 37.5735C174.254 37.641 173.624 37.6747 173.017 37.6747C171.556 37.6747 170.252 37.4611 169.106 37.034C167.959 36.6069 166.993 35.9999 166.206 35.2131C165.419 34.4038 164.812 33.4371 164.385 32.3131C163.98 31.1666 163.778 29.8852 163.778 28.4689C163.778 27.0302 163.958 25.7376 164.317 24.591C164.677 23.4221 165.194 22.4329 165.869 21.6236C166.543 20.8143 167.364 20.1961 168.33 19.769C169.319 19.3419 170.443 19.1283 171.702 19.1283C172.399 19.1283 173.017 19.1957 173.557 19.3306C174.119 19.4655 174.681 19.6566 175.243 19.9039V11.8783L180.267 11.069V36.6631ZM189.996 37.2363H184.972V19.4992H189.996V37.2363ZM190.468 14.3737C190.468 15.2954 190.165 16.026 189.558 16.5655C188.973 17.0826 188.277 17.3411 187.467 17.3411C186.658 17.3411 185.95 17.0826 185.343 16.5655C184.758 16.026 184.466 15.2954 184.466 14.3737C184.466 13.452 184.758 12.7326 185.343 12.2155C185.95 11.676 186.658 11.4062 187.467 11.4062C188.277 11.4062 188.973 11.676 189.558 12.2155C190.165 12.7326 190.468 13.452 190.468 14.3737ZM211.31 28.3341C211.31 29.7278 211.108 31.0092 210.703 32.1782C210.298 33.3247 209.714 34.3139 208.949 35.1456C208.185 35.9549 207.263 36.5844 206.184 37.034C205.128 37.4836 203.936 37.7084 202.61 37.7084C201.306 37.7084 200.115 37.4836 199.036 37.034C197.979 36.5844 197.069 35.9549 196.304 35.1456C195.54 34.3139 194.944 33.3247 194.517 32.1782C194.09 31.0092 193.876 29.7278 193.876 28.3341C193.876 26.9403 194.09 25.6701 194.517 24.5236C194.967 23.3771 195.574 22.3992 196.338 21.5899C197.125 20.7806 198.046 20.1512 199.103 19.7015C200.182 19.2519 201.351 19.0271 202.61 19.0271C203.891 19.0271 205.06 19.2519 206.117 19.7015C207.196 20.1512 208.118 20.7806 208.882 21.5899C209.646 22.3992 210.242 23.3771 210.669 24.5236C211.096 25.6701 211.31 26.9403 211.31 28.3341ZM206.184 28.3341C206.184 26.7829 205.87 25.569 205.24 24.6922C204.633 23.793 203.756 23.3434 202.61 23.3434C201.463 23.3434 200.576 23.793 199.946 24.6922C199.317 25.569 199.002 26.7829 199.002 28.3341C199.002 29.8852 199.317 31.1216 199.946 32.0433C200.576 32.9426 201.463 33.3922 202.61 33.3922C203.756 33.3922 204.633 32.9426 205.24 32.0433C205.87 31.1216 206.184 29.8852 206.184 28.3341Z" fill="white"/>
</g>
<defs>
<filter id="filter0_d_1_1829" x="0" y="0" width="216.905" height="49.8799" filterUnits="userSpaceOnUse" color-interpolation-filters="sRGB">
<feFlood flood-opacity="0" result="BackgroundImageFix"/>
<feColorMatrix in="SourceAlpha" type="matrix" values="0 0 0 0 0 0 0 0 0 0 0 0 0 0 0 0 0 0 127 0" result="hardAlpha"/>
<feOffset/>
<feGaussianBlur stdDeviation="2"/>
<feComposite in2="hardAlpha" operator="out"/>
<feColorMatrix type="matrix" values="0 0 0 0 0 0 0 0 0 0 0 0 0 0 0 0 0 0 0.25 0"/>
<feBlend mode="normal" in2="BackgroundImageFix" result="effect1_dropShadow_1_1829"/>
<feBlend mode="normal" in="SourceGraphic" in2="effect1_dropShadow_1_1829" result="shape"/>
</filter>
<linearGradient id="paint0_linear_1_1829" x1="15.0992" y1="30.0669" x2="38.1653" y2="48.2504" gradientUnits="userSpaceOnUse">
<stop stop-color="#006486"/>
<stop offset="1" stop-color="#02BAB5"/>
</linearGradient>
<linearGradient id="paint1_linear_1_1829" x1="15.0992" y1="30.0669" x2="38.1653" y2="48.2504" gradientUnits="userSpaceOnUse">
<stop offset="0.48" stop-color="white" stop-opacity="0"/>
<stop offset="1" stop-color="white"/>
</linearGradient>
<linearGradient id="paint2_linear_1_1829" x1="15.2359" y1="30.1932" x2="37.7458" y2="47.9316" gradientUnits="userSpaceOnUse">
<stop stop-color="#005066"/>
<stop offset="1" stop-color="#02BAB5"/>
</linearGradient>
<linearGradient id="paint3_linear_1_1829" x1="16.6344" y1="28.5492" x2="39.0825" y2="46.2381" gradientUnits="userSpaceOnUse">
<stop offset="0.02" stop-color="white" stop-opacity="0"/>
<stop offset="1" stop-color="white"/>
</linearGradient>
<linearGradient id="paint4_linear_1_1829" x1="11.9977" y1="18.8336" x2="6.84309" y2="10.6875" gradientUnits="userSpaceOnUse">
<stop stop-color="#1F002C"/>
<stop offset="1" stop-color="#6C147E"/>
</linearGradient>
<linearGradient id="paint5_linear_1_1829" x1="4.35848" y1="16.6209" x2="15.4589" y2="-0.190472" gradientUnits="userSpaceOnUse">
<stop offset="0.48" stop-color="white" stop-opacity="0"/>
<stop offset="1" stop-color="white"/>
</linearGradient>
<linearGradient id="paint6_linear_1_1829" x1="12.765" y1="21.9936" x2="6.75736" y2="12.4878" gradientUnits="userSpaceOnUse">
<stop stop-color="#1F002C"/>
<stop offset="1" stop-color="#6C147E"/>
</linearGradient>
<linearGradient id="paint7_linear_1_1829" x1="-0.04381" y1="16.7917" x2="39.2527" y2="-6.22493" gradientUnits="userSpaceOnUse">
<stop offset="0.1" stop-color="white" stop-opacity="0"/>
<stop offset="1" stop-color="white"/>
</linearGradient>
<linearGradient id="paint8_linear_1_1829" x1="5.70586" y1="46.729" x2="29.662" y2="-1.05971" gradientUnits="userSpaceOnUse">
<stop stop-color="#1F002C"/>
<stop offset="0.52" stop-color="#E50A8C"/>
<stop offset="1" stop-color="#DC2B17"/>
</linearGradient>
<linearGradient id="paint9_linear_1_1829" x1="10.7492" y1="19.2004" x2="29.1552" y2="28.6939" gradientUnits="userSpaceOnUse">
<stop offset="0.48" stop-color="white" stop-opacity="0"/>
<stop offset="1" stop-color="white"/>
</linearGradient>
<linearGradient id="paint10_linear_1_1829" x1="5.79318" y1="46.4771" x2="29.4403" y2="-0.718258" gradientUnits="userSpaceOnUse">
<stop stop-color="#1F002C"/>
<stop offset="0.52" stop-color="#E50A8C"/>
<stop offset="1" stop-color="#DC2B17"/>
</linearGradient>
<linearGradient id="paint11_linear_1_1829" x1="21.4153" y1="25.765" x2="58.1406" y2="-17.2151" gradientUnits="userSpaceOnUse">
<stop offset="0.02" stop-color="white" stop-opacity="0"/>
<stop offset="1" stop-color="white"/>
</linearGradient>
<linearGradient id="paint12_linear_1_1829" x1="20.612" y1="24.8874" x2="-17.1888" y2="24.3435" gradientUnits="userSpaceOnUse">
<stop offset="0.14" stop-color="white" stop-opacity="0"/>
<stop offset="1" stop-color="white"/>
</linearGradient>
</defs>
</svg>
