<svg width="72" height="72" viewBox="0 0 72 72" fill="none" xmlns="http://www.w3.org/2000/svg">
<g clip-path="url(#clip0_1_6380)">
<path d="M56.8535 44.3557C55.4405 41.4097 50.3854 37.3206 45.5015 33.3696C42.7775 31.1676 40.2035 29.0856 38.5625 27.4447C38.1515 27.0307 37.5365 26.8986 36.9936 27.0937C35.9826 27.4597 35.3585 27.7417 34.8666 27.9606C34.1167 28.2966 33.8647 28.4106 32.8536 28.5126C32.4065 28.5576 32.0046 28.7976 31.7556 29.1696C29.6345 32.3406 27.4385 32.0706 25.9715 31.5786C25.5035 31.4227 25.4196 31.2216 25.3746 31.0296C25.0596 29.7127 26.6406 26.6466 28.6895 24.5976C33.5646 19.7196 36.0785 18.4986 41.3885 20.8716C47.4125 23.5656 53.4485 25.6746 53.5086 25.6956C54.2976 25.9686 55.1466 25.5546 55.4195 24.7716C55.6895 23.9886 55.2785 23.1336 54.4955 22.8606C54.4354 22.8396 48.5195 20.7726 42.6155 18.1296C35.7365 15.0545 31.9624 17.0795 26.5714 22.4736C24.5194 24.5256 21.7324 28.6776 22.4524 31.7226C22.7613 33.0186 23.6734 33.9787 25.0293 34.4256C28.4284 35.5476 31.5303 34.4736 33.8403 31.4076C34.7943 31.2607 35.3134 31.0447 36.0933 30.6937C36.3752 30.5677 36.7053 30.4207 37.1433 30.2437C38.8594 31.8547 41.1753 33.7296 43.6143 35.7006C48.0243 39.2676 53.0254 43.3117 54.1504 45.6517C54.7054 46.8066 54.1083 47.5597 53.7033 47.9046C53.1093 48.4147 52.2964 48.5767 51.8554 48.2676C51.3694 47.9346 50.7364 47.9136 50.2354 48.2136C49.7314 48.5135 49.4494 49.0806 49.5124 49.6626C49.6144 50.6166 48.7414 51.1626 48.3634 51.3516C47.4033 51.8376 46.4014 51.7537 46.0263 51.4056C45.6063 51.0157 45.0033 50.9016 44.4693 51.0996C43.9354 51.3006 43.5633 51.7926 43.5093 52.3626C43.4193 53.3465 42.6903 54.2915 41.7392 54.6605C41.2802 54.8345 40.6142 54.9396 40.0173 54.3935C39.6453 54.0576 39.1292 53.9285 38.6463 54.0455C38.1574 54.1654 37.7643 54.5195 37.5933 54.9905C37.5364 55.1405 37.4073 55.5005 36.0033 55.5005C35.0043 55.5005 33.2072 54.8255 32.3283 54.2435C31.2753 53.5505 24.6723 48.6245 18.9694 43.8485C18.1684 43.1735 16.7824 41.7274 15.5584 40.4494C14.4723 39.3154 13.4794 38.2865 12.9693 37.8545C12.3303 37.3145 11.3853 37.3955 10.8543 38.0315C10.3204 38.6645 10.3983 39.6126 11.0314 40.1465C11.4964 40.5396 12.3964 41.4905 13.3894 42.5255C14.7274 43.9234 16.1103 45.3695 17.0404 46.1495C22.6265 50.8265 29.3405 55.8756 30.6784 56.7545C31.7824 57.4805 34.1614 58.5005 36.0034 58.5005C37.4824 58.5005 38.6195 58.1614 39.4084 57.4985C40.4643 57.9095 41.6644 57.9125 42.8194 57.4625C44.1844 56.9345 45.3063 55.8695 45.9424 54.5796C47.1243 54.8316 48.4774 54.6545 49.7073 54.0366C50.9104 53.4306 51.7803 52.5036 52.2123 51.4205C53.4063 51.4835 54.6362 51.0606 55.6532 50.1875C57.3755 48.7146 57.8494 46.4227 56.8535 44.3557Z" fill="#5F0052"/>
<path d="M30 19.5H16.5C15.672 19.5 15 20.172 15 21C15 21.828 15.672 22.5001 16.5 22.5001H30C30.828 22.5001 31.5001 21.828 31.5001 21C31.5001 20.172 30.828 19.5 30 19.5Z" fill="#5F0052"/>
<path d="M61.2482 41.1657C60.7831 40.4787 59.8532 40.2897 59.1662 40.7577L54.7803 43.7037C54.0933 44.1656 53.9102 45.0987 54.3723 45.7856C54.6633 46.2147 55.1373 46.4487 55.6204 46.4487C55.9054 46.4487 56.1964 46.3677 56.4544 46.1937L60.8404 43.2478C61.5272 42.7857 61.7101 41.8528 61.2482 41.1657Z" fill="#5F0052"/>
<path d="M51.9308 48.3228C50.8568 47.4768 46.0538 42.5599 43.0838 39.4639C42.5107 38.8638 41.5598 38.8429 40.9627 39.4189C40.3627 39.9919 40.3447 40.9428 40.9177 41.5399C41.6888 42.3439 48.4897 49.4329 50.0707 50.681C50.3437 50.897 50.6737 51.002 50.9977 51.002C51.4387 51.002 51.8797 50.804 52.1797 50.429C52.6928 49.7808 52.5819 48.8358 51.9308 48.3228Z" fill="#5F0052"/>
<path d="M45.9382 51.329C44.1412 49.892 39.6263 45.095 38.6062 43.985C38.0421 43.373 37.0971 43.337 36.4851 43.895C35.8761 44.456 35.8342 45.407 36.3951 46.0161C36.4491 46.073 41.8372 51.8901 44.0631 53.6721C44.3392 53.8911 44.6722 53.9991 44.9991 53.9991C45.4372 53.9991 45.8751 53.804 46.1721 53.4381C46.6883 52.79 46.5833 51.845 45.9382 51.329Z" fill="#5F0052"/>
<path d="M39.9676 54.3538C37.8286 52.5508 33.4516 47.8918 32.5966 46.9767C32.0296 46.3708 31.0786 46.3377 30.4756 46.9047C29.8696 47.4717 29.8395 48.4197 30.4036 49.0258C31.6336 50.3427 35.8216 54.7828 38.0326 56.6488C38.3146 56.8857 38.6566 57.0027 38.9986 57.0027C39.4245 57.0027 39.8506 56.8198 40.1476 56.4688C40.6816 55.8327 40.6006 54.8877 39.9676 54.3538Z" fill="#5F0052"/>
<path d="M17.532 16.9101C14.961 14.474 4.68 13.685 1.59005 13.502C1.16409 13.4811 0.771047 13.622 0.471094 13.907C0.171 14.189 0 14.585 0 14.999V41.999C0 42.827 0.672047 43.499 1.50005 43.499H10.5C11.148 43.499 11.724 43.0821 11.925 42.464C12.144 41.792 17.313 25.9281 17.994 18.128C18.033 17.672 17.865 17.222 17.532 16.9101ZM9.405 40.4991H2.99995V16.607C7.821 16.988 13.023 17.816 14.913 18.734C14.118 25.304 10.521 36.977 9.405 40.4991Z" fill="#5F0052"/>
<path d="M70.5013 16.5C58.7232 16.5 52.1892 19.515 51.9162 19.641C51.5263 19.824 51.2352 20.163 51.1152 20.574C50.9953 20.9851 51.0552 21.4261 51.2802 21.792C53.1342 24.777 58.9392 41.355 60.0552 45.399C60.2352 46.05 60.8263 46.4999 61.5013 46.4999H70.5013C71.3293 46.4999 72.0013 45.8279 72.0013 44.9999V17.9999C72.0013 17.169 71.3293 16.5 70.5013 16.5ZM69.0013 43.5H62.6233C61.2013 38.8679 57.0012 26.79 54.6583 21.798C56.9472 21.0211 61.8643 19.686 69.0013 19.5181V43.5Z" fill="#5F0052"/>
</g>
<defs>
<clipPath id="clip0_1_6380">
<rect width="72" height="72" fill="white"/>
</clipPath>
</defs>
</svg>
