<svg width="64" height="64" viewBox="0 0 64 64" fill="none" xmlns="http://www.w3.org/2000/svg">
<path d="M57.6009 11.5201C57.5967 11.2569 57.5115 11.0014 57.3569 10.7884C57.2023 10.5753 56.9858 10.4152 56.7369 10.3297L32.4169 2.00966C32.1479 1.91345 31.8539 1.91345 31.5849 2.00966L7.26487 10.3297C7.01593 10.4152 6.79941 10.5753 6.64481 10.7884C6.4902 11.0014 6.40502 11.2569 6.40087 11.5201L6.33687 15.2961C6.14487 26.9249 7.08567 35.2705 9.22327 40.8193C10.826 44.9973 13.243 48.8152 16.3337 52.0513C20.031 55.8114 24.4124 58.8308 29.2425 60.9473L31.4697 61.9649C31.6364 62.0409 31.8176 62.0803 32.0009 62.0803C32.1842 62.0803 32.3653 62.0409 32.5321 61.9649L34.7593 60.9473C39.5893 58.8308 43.9708 55.8114 47.6681 52.0513C50.7618 48.8139 53.181 44.9937 54.7849 40.8129C56.9225 35.2641 57.8633 26.9185 57.6713 15.2897L57.6009 11.5201ZM52.3977 39.8913C50.9167 43.7584 48.6801 47.2917 45.8185 50.2849C42.3432 53.8002 38.232 56.6235 33.7033 58.6049L32.0009 59.3921L30.2985 58.6177C25.7698 56.6363 21.6585 53.813 18.1833 50.2977C15.3202 47.3007 13.0835 43.7629 11.6041 39.8913C9.60087 34.6561 8.69847 26.6241 8.89047 15.3601L8.93527 12.4801L32.0009 4.55046L55.0409 12.4545L55.0857 15.3345C55.3033 26.6241 54.4009 34.6561 52.3977 39.8913Z" fill="black"/>
<path d="M51.2001 15.9999C51.1973 15.7357 51.1127 15.4788 50.958 15.2645C50.8033 15.0502 50.5861 14.889 50.3361 14.8031L32.4161 8.65915C32.146 8.56935 31.8542 8.56935 31.5841 8.65915L13.6641 14.8031C13.4142 14.889 13.1969 15.0502 13.0422 15.2645C12.8875 15.4788 12.8029 15.7357 12.8001 15.9999V16.1215C12.6273 26.2719 13.4401 34.0031 15.1745 38.4831C16.4429 41.8034 18.3621 44.8366 20.8193 47.4047C23.8487 50.484 27.4369 52.958 31.3921 54.6943L31.4689 54.7263C31.634 54.8079 31.816 54.8495 32.0001 54.8479C32.1834 54.848 32.3645 54.8087 32.5313 54.7327L32.6081 54.6943C36.5658 52.967 40.1583 50.5018 43.1937 47.4303C45.6509 44.8622 47.5701 41.829 48.8385 38.5087C50.5601 34.0287 51.3985 26.2975 51.2129 16.1535L51.2001 15.9999ZM46.4321 37.5679C45.279 40.5698 43.5383 43.3114 41.3121 45.632C38.6348 48.3591 35.4782 50.5698 32.0001 52.1535C28.5127 50.5809 25.3451 48.3788 22.6561 45.6575C20.4299 43.337 18.6893 40.5954 17.5361 37.5935C16.0001 33.5231 15.2193 26.4063 15.3601 16.9599L32.0001 11.2511L48.6401 16.9599C48.7809 26.3999 48.0001 33.5231 46.4449 37.5935L46.4321 37.5679Z" fill="black"/>
<path d="M38.0102 25.8116L28.8838 34.938L25.991 32.0452C25.8721 31.9263 25.7309 31.832 25.5755 31.7676C25.4201 31.7033 25.2536 31.6701 25.0854 31.6701C24.9172 31.6701 24.7507 31.7033 24.5953 31.7676C24.4399 31.832 24.2987 31.9263 24.1798 32.0452C24.0609 32.1642 23.9665 32.3053 23.9022 32.4607C23.8378 32.6161 23.8047 32.7826 23.8047 32.9508C23.8047 33.119 23.8378 33.2856 23.9022 33.4409C23.9665 33.5963 24.0609 33.7375 24.1798 33.8564L27.975 37.6516C28.0941 37.7714 28.2357 37.8665 28.3917 37.9313C28.5476 37.9961 28.7149 38.0294 28.8838 38.0292C29.2227 38.0278 29.5473 37.892 29.7862 37.6516L39.8214 27.6228C39.9403 27.5039 40.0347 27.3627 40.099 27.2073C40.1634 27.052 40.1965 26.8854 40.1965 26.7172C40.1965 26.549 40.1634 26.3825 40.099 26.2271C40.0347 26.0717 39.9403 25.9306 39.8214 25.8116C39.7025 25.6927 39.5613 25.5984 39.4059 25.534C39.2505 25.4696 39.084 25.4365 38.9158 25.4365C38.7476 25.4365 38.5811 25.4696 38.4257 25.534C38.2703 25.5984 38.1291 25.6927 38.0102 25.8116Z" fill="black"/>
</svg>
