<svg width="22" height="22" viewBox="0 0 22 22" fill="none" xmlns="http://www.w3.org/2000/svg">
<path d="M21.9982 10.9986V10.9931C21.9982 7.73818 20.5811 4.81506 18.3309 2.8049L18.3199 2.79573C18.2921 2.76577 18.2611 2.73902 18.2273 2.71599L18.2255 2.71507C16.2269 0.960215 13.6568 -0.00516217 10.9973 2.07616e-05C8.21815 2.07616e-05 5.68103 1.03214 3.74702 2.73524L3.75894 2.72515C3.73563 2.74283 3.71413 2.76279 3.69478 2.78473C2.53211 3.81428 1.60146 5.08005 0.964492 6.49642C0.327521 7.9128 -0.00123454 9.44835 3.48365e-06 11.0014C3.48365e-06 14.2554 1.41522 17.1785 3.66361 19.1896L3.67461 19.1988C3.70373 19.2318 3.7363 19.2616 3.77177 19.2877L3.7736 19.2886C5.77162 21.0409 8.33976 22.0048 10.9973 22C13.6672 22.0041 16.2463 21.0312 18.2484 19.2648L18.2365 19.2748C19.4193 18.2464 20.3674 16.976 21.0167 15.5494C21.666 14.1228 22.0014 12.5734 22 11.006V10.9995L21.9982 10.9986ZM17.9083 18.1529C17.3635 17.7121 16.7775 17.3248 16.1586 16.9961L16.099 16.9668C16.6609 15.3471 16.9991 13.4799 17.0312 11.5376V11.5229H20.9368C20.805 14.0358 19.7235 16.4047 17.9111 18.1501L17.9083 18.1529ZM11.5234 16.7734C12.6994 16.8366 13.7983 17.0951 14.8121 17.5158L14.7461 17.492C13.934 19.3436 12.791 20.6159 11.5234 20.8954V16.7734ZM11.5234 15.7248V11.5229H15.9853C15.9499 13.2629 15.6482 14.9872 15.0907 16.6359L15.1265 16.5158C13.9885 16.0481 12.7782 15.7807 11.549 15.7257L11.5243 15.7248H11.5234ZM11.5234 10.4743V6.2725C12.7857 6.21488 14.0284 5.93854 15.1961 5.45578L15.1237 5.48237C15.6324 6.96638 15.945 8.67681 15.9853 10.4551V10.4743H11.5234ZM11.5234 5.22388V1.10364C12.791 1.38321 13.934 2.64999 14.7461 4.50707C13.7983 4.90122 12.6994 5.1588 11.55 5.22296L11.5234 5.22388ZM14.1393 1.55737C15.2194 1.91764 16.2295 2.46085 17.1256 3.1633L17.1045 3.1468C16.6984 3.46579 16.2429 3.76644 15.7626 4.02768L15.7113 4.05334C15.3232 3.13738 14.7895 2.29019 14.1311 1.54454L14.1393 1.55462V1.55737ZM10.473 1.10639V5.22388C9.34234 5.1662 8.22998 4.91507 7.18424 4.48141L7.25023 4.50524C8.066 2.65366 9.20715 1.38229 10.4748 1.10272L10.473 1.10639ZM6.28598 4.05059C5.78912 3.78327 5.3157 3.47449 4.87076 3.12755L4.89276 3.14405C5.76273 2.46222 6.74126 1.93172 7.78735 1.57479L7.85701 1.5537C7.21578 2.27915 6.69329 3.10144 6.30889 3.9901L6.28598 4.05059ZM10.4748 6.27158V10.4734H6.01283C6.05316 8.67589 6.36572 6.96547 6.91018 5.36137L6.87443 5.48145C8.01197 5.94844 9.22162 6.21544 10.45 6.27066L10.4748 6.27158ZM10.4748 11.522V15.7238C9.2125 15.7815 7.96978 16.0578 6.80202 16.5406L6.87443 16.514C6.36572 15.0309 6.05316 13.3195 6.01283 11.5413V11.522H10.4748ZM10.4748 16.7725V20.8927C9.20715 20.6131 8.06416 19.3463 7.25206 17.4893C8.19982 17.0951 9.29881 16.8385 10.4482 16.7743L10.4748 16.7725ZM7.86251 20.439C6.78272 20.0798 5.77263 19.5378 4.87626 18.8367L4.89826 18.8532C5.30431 18.5342 5.75985 18.2336 6.24015 17.9723L6.29148 17.9467C6.67634 18.863 7.20995 19.7094 7.87076 20.4518L7.86251 20.4426V20.439ZM15.7122 17.9457C16.2438 18.2345 16.6994 18.5342 17.1274 18.8688L17.1054 18.8523C16.2354 19.5341 15.2569 20.0646 14.2108 20.4216L14.1412 20.4426C14.7824 19.7175 15.3049 18.8955 15.6893 18.0072L15.7122 17.9476V17.9457ZM20.9368 10.4743H17.0312C17.0031 8.57777 16.6758 6.69755 16.0614 4.90306L16.099 5.02955C16.7465 4.68862 17.3595 4.28588 17.9294 3.82694L17.9074 3.84344C19.7161 5.5823 20.798 7.94244 20.9349 10.4477L20.9368 10.4743ZM4.08983 3.84435C4.61778 4.27333 5.21082 4.66657 5.8396 5.00114L5.89918 5.03047C5.33731 6.65015 4.99909 8.51732 4.967 10.4596V10.4743H1.0605C1.1922 7.96147 2.27374 5.59255 4.08616 3.8471L4.08983 3.84435ZM1.06141 11.5229H4.967C4.9951 13.4195 5.32238 15.2997 5.93676 17.0942L5.89918 16.9677C5.21082 17.3334 4.6187 17.7267 4.06875 18.1703L4.09074 18.1538C2.28207 16.4149 1.20015 14.0548 1.06325 11.5495L1.06233 11.5239L1.06141 11.5229Z" fill="#5F0052"/>
</svg>
