<svg width="306" height="329" viewBox="0 0 306 329" fill="none" xmlns="http://www.w3.org/2000/svg">
<path d="M73.492 249.012C60.6732 250.66 47.6888 246.805 38.1 238.138C30.0671 230.878 25.121 221.076 37.4719 210.916C67.0303 186.597 64.6885 166.948 51.0536 153.042C37.418 139.136 2.7596 111.011 24.0949 86.0626C45.4309 61.1146 102.622 88.3751 111.239 59.478C119.856 30.5808 130.239 7.82448 157.273 1.5844C184.306 -4.65567 216.341 7.69207 222.498 35.874C228.595 63.7835 193.75 62.2262 226.75 107.257C246.157 133.739 213.922 190.472 184.765 178.825C155.608 167.179 119.952 185.067 118.701 217.948C117.878 239.632 91.4178 246.708 73.492 249.012Z" fill="#E5E5E5"/>
<path d="M254.258 85.1518C256.015 82.198 256.529 78.6407 255.555 75.3451C254.566 72.0034 252.058 68.6339 245.979 68.5254C233.82 68.3075 234.724 92.2579 240.997 95.8198C245.543 98.4017 251.386 89.9815 254.258 85.1518Z" fill="#E5E5E5"/>
<path d="M95.1098 48.0078C97.0859 45.1965 97.8688 41.6885 97.1482 38.3283C96.4169 34.9211 94.1729 31.3707 88.1184 30.7995C76.0108 29.6579 75.0924 53.6074 81.0754 57.6359C85.4125 60.5557 91.8789 52.6051 95.1098 48.0078Z" fill="#E5E5E5"/>
<path d="M0.179325 126.194C0.507264 128.309 1.67199 130.222 3.44717 131.417C5.24699 132.63 7.78813 133.253 10.7511 130.893C16.6763 126.174 7.83201 115.729 3.40714 116.507C0.199341 117.071 -0.358002 122.736 0.179325 126.194Z" fill="#E5E5E5"/>
<path d="M239.704 116.439C239.259 118.532 239.668 120.733 240.902 122.482C242.154 124.256 244.308 125.741 247.915 124.588C255.131 122.282 249.803 108.337 245.39 107.492C242.193 106.879 240.431 113.015 239.704 116.439Z" fill="#E5E5E5"/>
<path d="M230.96 135.905C230.948 135.851 230.933 135.783 230.918 135.708C230.935 135.771 230.948 135.838 230.96 135.905Z" fill="#FD8471"/>
<path d="M147.76 286.173C186.511 268.43 214.049 245.583 209.269 235.142C204.488 224.702 169.2 230.622 130.449 248.365C91.6986 266.108 64.1604 288.955 68.9408 299.395C73.7211 309.835 109.01 303.915 147.76 286.173Z" fill="#E5E5E5"/>
<path d="M191.964 43.5358L182.145 48.6004L180.958 49.2124L179.756 36.927L179.777 36.9385C179.78 36.9401 179.782 36.9424 179.786 36.9439L191.964 43.5358Z" fill="#18285D"/>
<path d="M182.144 41.2896V235.466C182.144 237.322 181.151 239.038 179.539 239.961L91.2265 290.591C87.7731 292.572 83.4668 290.078 83.4668 286.097V94.281C83.4668 92.2379 84.2859 90.3111 85.6939 88.9023C86.1504 88.4459 86.6684 88.044 87.2396 87.7099L174.349 36.817C176.167 35.7539 178.23 35.9418 179.776 36.9394C179.78 36.941 179.782 36.9433 179.785 36.9448C181.173 37.8455 182.144 39.399 182.144 41.2896Z" fill="#001350"/>
<path d="M87.373 291.119L101.116 294.934V282.265L87.373 291.119Z" fill="#18285D"/>
<path d="M191.963 43.5359L182.144 48.6005V54.264L104.191 99.3002L85.6934 88.9024C86.1499 88.4459 86.6679 88.044 87.2391 87.7099L174.349 36.817C176.166 35.7539 178.23 35.9418 179.776 36.9394C179.78 36.941 179.781 36.9433 179.785 36.9448L191.963 43.5359Z" fill="#26246C"/>
<path d="M195.534 49.5382V239.868C195.534 242.319 194.222 244.583 192.095 245.802L107.095 294.532C102.536 297.145 96.8555 293.855 96.8555 288.6V99.2002C96.8555 96.7706 98.1457 94.5228 100.245 93.2965L185.245 43.6353C189.803 40.971 195.534 44.2596 195.534 49.5382Z" fill="#3B3E7D"/>
<path d="M184.952 62.3862V235.596C184.952 236.897 184.255 238.099 183.126 238.747L112.872 279.022C111.987 279.53 111.022 279.617 110.155 279.389C108.649 278.992 107.436 277.642 107.436 275.873V103.432C107.436 102.142 108.121 100.948 109.235 100.295L146.404 78.5792L179.489 59.25C179.707 59.1245 179.929 59.0206 180.153 58.9436C182.431 58.1592 184.952 59.8343 184.952 62.3862Z" fill="white"/>
<path d="M124.558 241.511C124.08 241.511 123.616 241.263 123.359 240.82C122.978 240.158 123.204 239.313 123.865 238.931L175.497 209.122C176.158 208.74 177.004 208.966 177.385 209.628C177.767 210.289 177.541 211.134 176.88 211.516L125.248 241.325C125.03 241.452 124.793 241.511 124.558 241.511Z" fill="#E5E5E5"/>
<path d="M124.558 251.475C124.08 251.475 123.616 251.227 123.359 250.783C122.978 250.122 123.204 249.277 123.865 248.895L175.644 219C176.305 218.618 177.151 218.845 177.532 219.506C177.914 220.167 177.688 221.012 177.027 221.394L125.248 251.289C125.03 251.415 124.793 251.475 124.558 251.475Z" fill="#E5E5E5"/>
<path d="M124.558 261.439C124.08 261.439 123.616 261.191 123.359 260.748C122.978 260.086 123.204 259.241 123.865 258.859L175.644 228.965C176.305 228.583 177.151 228.809 177.532 229.47C177.914 230.132 177.688 230.977 177.027 231.359L125.248 261.254C125.03 261.379 124.793 261.439 124.558 261.439Z" fill="#E5E5E5"/>
<path d="M124.558 121.896C124.08 121.896 123.616 121.648 123.359 121.205C122.978 120.544 123.204 119.698 123.865 119.317L175.497 89.5073C176.158 89.1255 177.004 89.3518 177.385 90.0131C177.767 90.6744 177.541 91.5196 176.88 91.9014L125.248 121.711C125.03 121.836 124.793 121.896 124.558 121.896Z" fill="#E5E5E5"/>
<path d="M125.422 90.7045V100.032C125.422 101.389 126.894 102.234 128.065 101.55L164.944 80.0234C165.484 79.7085 165.815 79.1304 165.815 78.5053V67.176L125.422 90.7045Z" fill="#3B3E7D"/>
<path d="M131.176 94.8831C130.644 94.8831 130.127 94.609 129.84 94.1171C129.41 93.3804 129.658 92.4343 130.395 92.004L153.004 78.8002C153.742 78.3714 154.687 78.6186 155.118 79.3553C155.549 80.0927 155.3 81.0388 154.563 81.4692L131.954 94.6729C131.708 94.8146 131.44 94.8831 131.176 94.8831Z" fill="#586197"/>
<path d="M161.198 76.8765C161.198 77.915 160.504 78.7571 159.648 78.7571C158.792 78.7571 158.098 77.915 158.098 76.8765C158.098 75.838 158.792 74.9958 159.648 74.9958C160.504 74.9958 161.198 75.838 161.198 76.8765Z" fill="#586197"/>
<path opacity="0.3" d="M195.533 107.687V189.753L170.265 204.153L128.097 228.183C126.323 229.194 124.119 227.913 124.119 225.872V150.44C124.119 149.489 124.626 148.611 125.449 148.136L195.533 107.687Z" fill="#18285D"/>
<path d="M225.535 86.388V161.828C225.535 162.874 224.978 163.839 224.077 164.361L180.122 189.411L138.354 213.213C137.766 213.548 137.137 213.655 136.542 213.578C135.164 213.401 133.977 212.24 133.977 210.668V135.852C133.977 134.806 134.535 133.839 135.442 133.317L221.144 83.8531C223.096 82.7261 225.535 84.134 225.535 86.388Z" fill="#3C80FB"/>
<path d="M202.077 147.362C204.934 138.601 200.698 129.363 192.616 126.728C184.533 124.092 175.666 129.058 172.809 137.818C169.952 146.579 174.189 155.817 182.271 158.452C190.353 161.088 199.221 156.122 202.077 147.362Z" fill="#6EB4FA"/>
<path d="M225.536 141.77V161.828C225.536 162.874 224.979 163.839 224.078 164.361L180.123 189.411L196.018 141.314L203.156 120.709L218.209 134.94L225.536 141.77Z" fill="#18285D"/>
<path d="M218.21 134.94L215.103 140.617L206.975 138.9L203.725 144.49L196.018 141.313L203.155 120.709L218.21 134.94Z" fill="white"/>
<path d="M209.252 172.81L180.121 189.411L138.353 213.214C137.765 213.548 137.136 213.655 136.541 213.578L156.49 155.984L165.113 131.088L183.305 148.284L209.252 172.81Z" fill="#3B3E7D"/>
<path d="M183.305 148.284L179.551 155.144L169.729 153.069L165.802 159.823L156.49 155.984L165.114 131.089L183.305 148.284Z" fill="white"/>
<path d="M126.219 128.364V147.966L129.607 149.923L129.313 130.165L126.219 128.364Z" fill="#0041C6"/>
<path d="M146.865 120.031V139.959L129.607 149.923L129.312 130.165L146.865 120.031Z" fill="#2E60E0"/>
<path d="M139.293 141.222C138.61 141.57 138.049 141.204 138.039 140.404L137.92 130.812C137.91 130.011 138.456 129.08 139.138 128.732C139.821 128.384 140.382 128.751 140.392 129.551L140.51 139.144C140.521 139.944 139.975 140.875 139.293 141.222Z" fill="white"/>
<path d="M144.544 132.26C144.554 133.061 144.008 133.992 143.325 134.34L135.141 138.513C134.458 138.861 133.897 138.494 133.887 137.694C133.877 136.895 134.423 135.963 135.105 135.615L143.289 131.442C143.973 131.094 144.534 131.461 144.544 132.26Z" fill="white"/>
<path d="M126.219 128.364L143.77 118.23L146.866 120.031L129.313 130.165L126.219 128.364Z" fill="#3C80FB"/>
<path d="M273.477 261.496C289.931 261.496 303.269 258.542 303.269 254.897C303.269 251.253 289.931 248.298 273.477 248.298C257.024 248.298 243.686 251.253 243.686 254.897C243.686 258.542 257.024 261.496 273.477 261.496Z" fill="#E5E5E5"/>
<path d="M290.333 242.218C291.126 242.479 291.697 243.195 291.821 244.036C291.929 244.772 292.016 245.823 291.973 247.218C291.878 250.331 291.838 251.601 291.838 251.601C291.838 251.601 290.899 253.243 288.199 253.689L287.404 253.8C287.404 253.8 281.293 257.474 278.438 257.756C274.714 258.125 270.908 256.412 273.988 252.789C276.897 249.368 281.175 247.997 282.439 245.255C282.586 244.936 283.54 244.254 283.784 244.003C285.848 241.867 287.435 241.263 290.333 242.218Z" fill="#3C80FB"/>
<path d="M284.093 248.794C283.959 248.794 283.83 248.715 283.774 248.584C283.769 248.574 283.298 247.506 282.421 247.214C281.58 246.933 280.678 247.665 280.669 247.672C280.521 247.794 280.302 247.773 280.18 247.626C280.057 247.479 280.077 247.261 280.224 247.138C280.273 247.097 281.429 246.151 282.64 246.555C283.816 246.947 284.388 248.254 284.412 248.31C284.488 248.486 284.406 248.69 284.23 248.766C284.186 248.785 284.139 248.794 284.093 248.794Z" fill="white"/>
<path d="M282.879 249.662C282.744 249.662 282.616 249.582 282.559 249.451C282.555 249.441 282.083 248.374 281.206 248.081C280.365 247.8 279.463 248.532 279.454 248.54C279.306 248.662 279.087 248.641 278.965 248.494C278.843 248.347 278.863 248.128 279.01 248.006C279.058 247.965 280.214 247.019 281.425 247.422C282.602 247.814 283.173 249.122 283.197 249.177C283.273 249.354 283.191 249.558 283.015 249.633C282.971 249.652 282.925 249.662 282.879 249.662Z" fill="white"/>
<path d="M281.492 250.438C281.357 250.438 281.229 250.359 281.172 250.228C281.168 250.218 280.697 249.151 279.819 248.858C278.978 248.577 278.076 249.309 278.067 249.317C277.919 249.438 277.701 249.418 277.578 249.271C277.456 249.124 277.476 248.905 277.623 248.783C277.671 248.742 278.828 247.795 280.039 248.199C281.215 248.591 281.787 249.899 281.81 249.954C281.885 250.131 281.804 250.334 281.627 250.41C281.584 250.429 281.538 250.438 281.492 250.438Z" fill="white"/>
<path d="M289.938 236.162L290.254 243.854C290.254 243.854 288.315 245.829 285.301 244.521L284.555 236.215C284.555 236.215 287.809 235.055 289.938 236.162Z" fill="#FCB38F"/>
<path d="M268.849 242.321C269.643 242.582 270.213 243.298 270.337 244.139C270.446 244.875 270.533 245.927 270.49 247.321C270.394 250.434 270.354 251.745 270.354 251.745C270.354 251.745 269.416 253.345 266.716 253.792L265.681 253.959C265.681 253.959 259.809 257.577 256.956 257.859C253.231 258.228 249.425 256.515 252.505 252.893C255.415 249.471 259.692 248.1 260.956 245.358C261.103 245.039 262.058 244.357 262.301 244.106C264.365 241.971 265.953 241.366 268.849 242.321Z" fill="#3C80FB"/>
<path d="M262.47 248.968C262.336 248.968 262.207 248.888 262.151 248.757C262.146 248.747 261.675 247.68 260.798 247.387C259.957 247.106 259.055 247.838 259.046 247.846C258.898 247.968 258.679 247.947 258.557 247.8C258.434 247.653 258.454 247.434 258.601 247.312C258.65 247.271 259.806 246.324 261.017 246.728C262.193 247.12 262.765 248.428 262.788 248.483C262.864 248.66 262.782 248.864 262.606 248.939C262.562 248.958 262.516 248.968 262.47 248.968Z" fill="white"/>
<path d="M261.255 249.836C261.121 249.836 260.992 249.757 260.936 249.626C260.931 249.616 260.46 248.548 259.582 248.256C258.742 247.975 257.84 248.707 257.83 248.714C257.683 248.836 257.464 248.815 257.342 248.668C257.22 248.521 257.239 248.302 257.386 248.18C257.435 248.139 258.59 247.193 259.802 247.597C260.978 247.988 261.55 249.296 261.573 249.352C261.649 249.528 261.567 249.732 261.391 249.807C261.348 249.827 261.301 249.836 261.255 249.836Z" fill="white"/>
<path d="M259.869 250.613C259.734 250.613 259.606 250.533 259.549 250.403C259.545 250.393 259.074 249.325 258.196 249.032C257.355 248.751 256.453 249.483 256.444 249.491C256.296 249.613 256.078 249.592 255.955 249.445C255.833 249.298 255.853 249.079 256 248.957C256.048 248.916 257.205 247.969 258.415 248.373C259.592 248.765 260.164 250.073 260.187 250.129C260.262 250.305 260.181 250.509 260.004 250.584C259.961 250.603 259.914 250.613 259.869 250.613Z" fill="white"/>
<path d="M268.456 236.265L268.771 243.957C268.771 243.957 266.833 245.932 263.819 244.624L263.072 236.319C263.072 236.319 266.326 235.159 268.456 236.265Z" fill="#FCB38F"/>
<path d="M291.208 157.586L262.21 152.18C260.378 162.458 256.121 185.427 257.522 195.235C259.779 211.034 262.557 241.937 262.557 241.937C265.038 242.479 267.008 242.344 269.501 241.416C269.501 241.416 272.453 206.867 269.848 195.756C268.279 189.058 271.958 177.488 273.916 167.595C273.916 167.595 274.527 166.016 275.562 166.056C277.014 166.112 276.787 168.602 276.98 169.29C277.694 178.388 278.453 187.223 279.272 194.169C280.891 207.913 284.258 241.762 284.258 241.762C286.74 242.305 288.188 242.169 290.682 241.241C290.682 241.241 293.255 201.659 291.723 193.672C289.293 180.999 291.023 166.816 291.208 157.586Z" fill="#3B3E7D"/>
<path d="M267.775 240.824C267.77 240.824 267.765 240.824 267.758 240.824C267.541 240.815 267.371 240.631 267.38 240.413C267.394 240.084 268.769 207.515 268.524 203.091C268.42 201.225 268.102 200.015 267.765 198.733C267.303 196.981 266.827 195.17 266.9 191.61C267.024 185.558 271.226 167.412 271.405 166.642C271.454 166.43 271.667 166.298 271.879 166.347C272.092 166.397 272.224 166.609 272.175 166.822C272.131 167.01 267.812 185.657 267.69 191.627C267.619 195.075 268.081 196.833 268.528 198.532C268.861 199.796 269.204 201.102 269.312 203.047C269.56 207.51 268.226 239.104 268.169 240.446C268.161 240.658 267.985 240.824 267.775 240.824Z" fill="#001350"/>
<path d="M289.44 240.824C289.437 240.824 289.436 240.824 289.434 240.824C289.216 240.821 289.042 240.642 289.045 240.424C289.063 239.017 289.502 205.929 289.762 203.436C290.028 200.893 289.202 191.758 288.392 186.796C287.817 183.28 288.226 166.749 288.243 166.046C288.249 165.831 288.424 165.661 288.638 165.661C288.641 165.661 288.645 165.661 288.648 165.661C288.866 165.666 289.039 165.848 289.033 166.066C289.029 166.237 288.609 183.226 289.172 186.668C289.99 191.675 290.82 200.922 290.548 203.518C290.291 205.974 289.839 240.09 289.834 240.434C289.831 240.651 289.655 240.824 289.44 240.824Z" fill="#001350"/>
<path d="M283.628 239.27C283.628 239.27 287.977 239.733 291.27 238.865C291.524 240.159 291.385 241.518 291.082 242.255C291.082 242.255 287.153 243.276 283.993 242.504C283.626 241.538 283.348 240.4 283.628 239.27Z" fill="#586197"/>
<path d="M262.093 239.27C262.093 239.27 266.558 239.733 269.939 238.865C270.2 240.159 270.057 241.518 269.747 242.255C269.747 242.255 265.714 243.276 262.469 242.504C262.092 241.538 261.807 240.4 262.093 239.27Z" fill="#586197"/>
<path d="M266.437 113.893C264.942 121.352 258.421 126.994 258.421 126.994L252.83 122.02C253.18 121.795 253.577 121.344 254.007 120.718C254.15 120.515 254.293 120.291 254.441 120.05C258.348 113.681 264.466 95.2356 264.466 95.2356C264.466 95.2356 267.931 106.434 266.437 113.893Z" fill="#3C80FB"/>
<path d="M259.103 125.865C259.103 125.865 257.841 129.396 253.156 128.845C248.471 128.294 236.977 114.773 236.977 114.773C238.539 114.772 239.846 114.383 241.953 113.634C241.953 113.634 247.21 118.793 252.346 120.05C257.481 121.307 259.103 125.865 259.103 125.865Z" fill="#3C80FB"/>
<path d="M257.036 124.073C256.983 124.097 256.927 124.109 256.872 124.109C256.722 124.109 256.579 124.024 256.512 123.878C255.839 122.413 254.733 121.322 254.006 120.718C254.148 120.514 254.292 120.291 254.44 120.05C255.228 120.692 256.466 121.891 257.228 123.548C257.32 123.748 257.235 123.982 257.036 124.073Z" fill="#2E60E0"/>
<path d="M230.219 101.062L231.121 100.668L230.915 101.256L230.219 101.062Z" fill="#18285D"/>
<path d="M238.299 101.653L244.405 111.837C244.799 112.49 244.475 113.234 243.826 113.165L241.566 112.921L237.681 112.504C237.387 112.471 237.099 112.271 236.921 111.976L230.879 101.956C230.49 101.312 230.797 100.57 231.436 100.622L237.519 101.122C237.82 101.147 238.116 101.35 238.299 101.653Z" fill="#18285D"/>
<path d="M244.192 113.108L243.471 113.546L243.148 113.195L244.078 112.667L244.192 113.108Z" fill="#18285D"/>
<path d="M230.05 102.323L236.133 112.412C236.313 112.71 236.602 112.912 236.895 112.944L243.056 113.63C243.705 113.702 244.027 112.955 243.631 112.295L237.482 102.041C237.299 101.735 237 101.53 236.7 101.504L230.605 100.983C229.964 100.928 229.656 101.671 230.05 102.323Z" fill="#3B3E7D"/>
<path d="M237.22 107.425C237.666 108.165 237.735 108.942 237.374 109.16C237.013 109.378 236.357 108.954 235.911 108.214C235.464 107.473 235.396 106.696 235.757 106.479C236.118 106.261 236.773 106.684 237.22 107.425Z" fill="#18285D"/>
<path d="M231.651 105.809C231.652 105.81 231.654 105.813 231.651 105.809C231.612 105.704 231.041 104.188 231.58 103.907C231.783 103.801 232.072 104.079 232.363 104.476C232.363 104.476 232.363 104.476 232.365 104.478C232.789 105.061 233.208 105.897 233.335 106.159L233.335 106.165C233.341 106.175 233.345 106.184 233.35 106.191C233.339 106.163 233.323 106.125 233.303 106.078C233.302 106.071 233.301 106.064 233.296 106.058C233.275 106.003 233.248 105.935 233.219 105.859C233.218 105.849 233.214 105.84 233.208 105.83C232.916 105.058 232.375 103.437 232.819 103.034C233.138 102.744 233.86 103.799 234.454 104.825C234.922 105.631 235.308 106.418 235.356 106.517C235.345 106.485 235.312 106.381 235.268 106.233C235.265 106.225 235.261 106.218 235.26 106.212C235.067 105.547 234.691 104.026 235.25 103.663C235.681 103.385 236.34 104.784 236.801 105.957V105.96C237.114 106.755 237.335 107.447 237.335 107.447C237.335 107.447 237.127 105.329 237.775 105.392C238.425 105.454 238.837 109.027 239.642 110.054C240.448 111.079 242.02 112.382 241.95 113.493C241.913 114.072 240.889 115.484 238.214 115.355C237.255 115.309 236.362 114.854 235.746 114.117C233.87 111.873 231.886 107.822 231.653 105.813" fill="#FCB38F"/>
<path d="M234.428 108.505C234.369 108.444 233.426 107.434 233.142 106.683C232.848 105.906 232.363 104.476 232.363 104.476C232.363 104.476 232.363 104.476 232.366 104.478C232.789 105.061 233.208 105.897 233.335 106.159L233.336 106.165C233.409 106.359 234.018 107.921 234.428 108.505Z" fill="#FD8471"/>
<path d="M236.077 108.487C236.024 108.405 235.171 107.068 234.823 106.279C234.588 105.741 234.492 105.159 234.453 104.825C234.921 105.631 235.307 106.418 235.355 106.517C235.355 106.517 235.912 108.09 236.077 108.487Z" fill="#FD8471"/>
<path d="M237.564 108.857C237.564 108.857 236.644 106.914 236.801 105.96C237.114 106.755 237.336 107.447 237.336 107.447" fill="#FD8471"/>
<path d="M291.206 157.586C284.846 162.472 259.713 156.693 261.564 150.19C262.727 146.104 266.803 128.481 266.202 123.013C265.592 117.555 261.431 114.224 264.119 108.083C265.717 104.433 265.584 100.84 264.64 97.4927C263.867 94.7591 264.842 93.5451 267.592 93.1525C268.807 92.9785 270.895 92.9077 272.726 93.1802C276.608 93.7445 281.023 94.4743 284.791 95.301C287.623 95.9238 290.103 96.6051 291.686 97.3056C298.352 100.253 289.216 114.283 287.805 122.475C286.392 130.677 294.593 154.985 291.206 157.586Z" fill="#579DFF"/>
<path d="M277.425 123.328C270.341 123.328 266.545 121.299 266.357 121.196C266.166 121.091 266.096 120.851 266.201 120.659C266.306 120.469 266.546 120.399 266.737 120.502C266.79 120.532 272.146 123.378 281.867 122.279C282.084 122.255 282.28 122.411 282.304 122.627C282.329 122.844 282.172 123.04 281.956 123.064C280.322 123.25 278.811 123.328 277.425 123.328Z" fill="#3C80FB"/>
<path d="M275.749 109.005C275.71 109.005 275.672 109 275.633 108.988C271.204 107.641 270.204 104.604 270.163 104.476C270.097 104.268 270.213 104.046 270.421 103.981C270.628 103.916 270.85 104.03 270.916 104.238C270.953 104.353 271.856 107.015 275.863 108.233C276.072 108.297 276.19 108.517 276.126 108.726C276.074 108.896 275.918 109.005 275.749 109.005Z" fill="#3C80FB"/>
<path d="M280.781 150.585C271.048 150.585 265.543 145.229 265.314 145.001C265.159 144.848 265.158 144.598 265.312 144.443C265.465 144.289 265.715 144.288 265.87 144.441C265.924 144.495 271.389 149.795 280.781 149.795C280.997 149.79 281.178 149.971 281.178 150.19C281.178 150.408 281.001 150.585 280.783 150.585H280.781Z" fill="#3C80FB"/>
<path d="M279.654 148.762C279.651 148.762 279.648 148.762 279.644 148.762C276.016 148.673 271.445 145.744 271.253 145.619C271.07 145.5 271.017 145.256 271.136 145.073C271.254 144.89 271.498 144.837 271.682 144.956C271.728 144.985 276.26 147.89 279.664 147.973C279.882 147.978 280.055 148.159 280.049 148.378C280.044 148.591 279.868 148.762 279.654 148.762Z" fill="#3C80FB"/>
<path d="M284.788 95.2448C283.711 100.91 274.622 105.984 272.381 102.503C270.483 99.5557 272.018 94.9207 272.724 93.1655C276.606 93.719 281.022 94.4342 284.788 95.2448Z" fill="white"/>
<path d="M295.201 150.552C293.685 149.468 292.728 147.694 292.114 145.508C292.114 145.508 297.245 139.542 298.464 128.915C298.485 128.737 298.505 128.558 298.523 128.378C298.523 128.378 298.52 128.281 298.513 128.099C298.437 126.436 297.828 117.667 293.119 110.968C293.119 110.968 286.431 105.642 292.63 97.877C292.63 97.877 302.975 107.751 305.623 123.725C307.757 136.595 295.201 150.552 295.201 150.552Z" fill="#579DFF"/>
<path d="M302.532 128.205C302.52 128.424 302.334 128.592 302.117 128.578C300.651 128.503 299.174 128.764 298.465 128.914C298.486 128.736 298.506 128.557 298.524 128.377C298.524 128.377 298.522 128.28 298.514 128.098C299.32 127.936 300.73 127.715 302.158 127.79C302.375 127.802 302.543 127.988 302.532 128.205Z" fill="#3C80FB"/>
<path d="M291.01 145.83L292.115 145.507C292.827 147.776 293.751 149.65 295.203 150.551C295.203 150.551 294.118 152.289 293.106 152.289C292.094 152.289 291.01 145.83 291.01 145.83Z" fill="#FD8471"/>
<path d="M289.519 144.632C289.519 144.632 285.089 146.689 285.964 147.741C286.266 148.105 289.819 146.966 289.819 146.966L289.939 147.561C289.939 147.561 286.191 149.089 286.042 150.294C285.893 151.5 290.315 149.435 290.315 149.435L290.467 150.189C290.467 150.189 287.474 151.356 287.25 152.403C287.025 153.449 291.351 151.796 291.351 151.796L291.469 152.382C291.469 152.382 289.797 153.295 289.438 154.325C289.08 155.355 292.019 154.012 293.107 153.141C294.195 152.269 293.647 151.423 293.353 151.046C293.353 151.046 293.467 149.324 292.45 148.701C292.45 148.701 292.809 147.236 291.711 146.651C291.711 146.651 291.754 143.805 289.519 144.632Z" fill="#FCB38F"/>
<path d="M291.009 145.287C291.009 145.287 291.235 141.868 289.438 141.556L290.073 144.958L291.009 145.287Z" fill="#FCB38F"/>
<path d="M268.104 80.1588C268.104 80.1588 268.104 86.2111 269.574 90.2803C270.918 94.0023 268.889 97.2455 268.889 97.2455C268.889 97.2455 269.89 94.1725 268.209 90.8707C266.528 87.569 265.033 80.4075 265.334 74.3599L268.104 80.1588Z" fill="#18285D"/>
<path d="M281.768 88.1008C281.768 88.1008 286.984 86.1816 288.025 80.833C289.065 75.4836 288.759 67.6277 281.459 65.3175C274.158 63.0073 267.411 65.2236 265.783 71.961C265.783 71.961 271.383 85.3787 281.768 88.1008Z" fill="#18285D"/>
<path d="M273.576 90.6566L273.973 94.3587L274.195 96.5234C278.417 98.3416 282.742 95.6181 282.695 95.2347C282.233 93.5927 281.882 90.7767 281.767 88.1001C281.693 88.0485 281.613 88.0054 281.527 87.9715C279.3 87.0047 273.576 90.6566 273.576 90.6566Z" fill="#FCB38F"/>
<path d="M273.576 90.6568L273.973 94.3589C278.191 92.8662 280.499 89.7585 281.527 87.9725C279.3 87.0049 273.576 90.6568 273.576 90.6568Z" fill="#FD8471"/>
<path d="M267.053 78.9477C267.053 78.9477 265.409 76.9955 264.367 78.7461C263.325 80.4966 265.215 85.3857 267.93 84.0123L267.053 78.9477Z" fill="#FD8471"/>
<path d="M266.259 83.2094C266.227 83.4026 266.043 83.5335 265.849 83.5011C265.656 83.4688 265.525 83.2856 265.558 83.0916C265.59 82.8976 265.773 82.7675 265.967 82.7999C266.16 82.833 266.291 83.0162 266.259 83.2094Z" fill="white"/>
<path d="M267.236 82.5073C267.132 82.5135 267.035 82.4504 266.999 82.348C266.48 80.8353 264.852 80.3018 264.836 80.2965C264.712 80.2572 264.644 80.1248 264.683 80.0008C264.722 79.8769 264.855 79.8084 264.979 79.8469C265.055 79.8708 266.848 80.4527 267.446 82.1948C267.488 82.318 267.423 82.4519 267.3 82.4943C267.278 82.5027 267.256 82.5066 267.236 82.5073Z" fill="#F25339"/>
<path d="M265.583 81.8245C265.539 81.8268 265.494 81.8176 265.453 81.7945C265.34 81.7306 265.3 81.5866 265.365 81.4734C265.376 81.455 265.633 81.0085 266.208 80.7113C266.323 80.6513 266.466 80.6967 266.526 80.8122C266.586 80.9277 266.54 81.0701 266.425 81.1294C265.981 81.3595 265.778 81.7013 265.776 81.7052C265.734 81.7775 265.661 81.8199 265.583 81.8245Z" fill="#F25339"/>
<path d="M265.723 81.3943C265.763 81.9431 265.82 82.4574 265.895 82.9223C266.59 87.1163 270.275 95.6327 277.653 91.294C279.423 90.2525 280.74 89.2232 281.767 88.1009C282.542 87.2556 283.155 86.3572 283.677 85.3626C283.88 84.9785 283.971 84.5466 284.103 84.134C284.127 84.0617 284.148 83.987 284.17 83.9146C284.182 83.8731 284.195 83.8338 284.208 83.7915C284.576 82.5882 284.854 81.3719 285.07 80.2141C285.339 78.7684 285.511 77.4213 285.616 76.312C285.81 74.2735 284.912 72.2866 283.255 71.0811C278.773 67.8148 273.599 68.2451 270.121 69.1451C267.707 69.7686 265.966 71.8686 265.803 74.3528C265.723 75.5314 265.659 76.8755 265.64 78.2096C265.628 79.3096 265.648 80.4074 265.723 81.3943Z" fill="#FCB38F"/>
<path d="M268.825 77.3721C268.817 77.155 268.634 76.9872 268.417 76.9941C267.839 77.0133 267.114 77.0903 266.457 77.3151C265.084 77.7847 264.896 78.1758 264.896 78.1758C264.896 78.1758 265.067 78.3382 266.866 77.9725C267.328 77.8786 267.94 77.8409 268.471 77.7901C268.679 77.7701 268.833 77.5892 268.825 77.3798C268.826 77.3775 268.825 77.3752 268.825 77.3721Z" fill="#18285D"/>
<path d="M273.832 77.0948C273.791 76.8385 273.968 76.5991 274.224 76.5575C274.906 76.4474 275.774 76.3712 276.598 76.4844C278.318 76.7199 278.626 77.1356 278.626 77.1356C278.626 77.1356 278.463 77.365 276.268 77.3496C275.704 77.3458 274.977 77.442 274.343 77.5036C274.094 77.5282 273.873 77.3504 273.833 77.1033C273.834 77.101 273.833 77.0979 273.832 77.0948Z" fill="#18285D"/>
<path d="M272.637 84.6291C272.616 84.6252 272.594 84.6198 272.574 84.6121L271.033 84.0132L271.66 80.2681C271.688 80.0965 271.852 79.9802 272.023 80.0087C272.195 80.0372 272.311 80.2004 272.283 80.372L271.741 83.6106L272.803 84.0232C272.965 84.0864 273.046 84.2696 272.983 84.432C272.928 84.5744 272.781 84.6537 272.637 84.6291Z" fill="#FD8471"/>
<path d="M281.168 83.7944C281.168 83.7944 281.935 85.2786 283.678 85.3625C283.832 84.9576 283.972 84.5465 284.104 84.1339C283.262 84.2856 281.972 84.3818 281.168 83.7944Z" fill="#FD8471"/>
<path d="M281.767 88.1008C282.542 87.2555 283.155 86.3572 283.678 85.3626C283.88 84.9784 283.972 84.5466 284.104 84.1339C284.127 84.0616 284.149 83.9869 284.171 83.9146C283.992 83.9222 283.7 83.98 283.222 84.1339C283.222 84.1339 281.246 86.3964 281.767 88.1008Z" fill="#18285D"/>
<path d="M270.174 86.458C270.537 87.5219 271.528 89.4364 273.961 89.1108C276.399 88.7852 276.837 86.856 276.903 85.5581L270.174 86.458Z" fill="white"/>
<path d="M274.993 80.3465C275.026 80.9378 275.358 81.3996 275.734 81.3789C276.11 81.3573 276.388 80.8608 276.355 80.2696C276.321 79.6784 275.989 79.2165 275.613 79.238C275.237 79.258 274.959 79.7553 274.993 80.3465Z" fill="#18285D"/>
<path d="M267.337 80.7853C267.371 81.3765 267.702 81.8384 268.078 81.8176C268.454 81.796 268.732 81.2995 268.699 80.7083C268.665 80.1171 268.333 79.6552 267.957 79.676C267.581 79.6975 267.303 80.194 267.337 80.7853Z" fill="#18285D"/>
<path d="M283.363 79.3796C283.363 79.3796 285.047 77.6529 285.908 79.3742C286.77 81.0955 285.056 85.3649 282.062 84.124L283.363 79.3796Z" fill="#FCB38F"/>
<path d="M283.995 83.8136C283.963 84.0069 283.78 84.1377 283.586 84.1054C283.392 84.0731 283.262 83.8899 283.294 83.6959C283.326 83.5019 283.51 83.3718 283.704 83.4041C283.897 83.4372 284.028 83.6204 283.995 83.8136Z" fill="white"/>
<path d="M282.946 82.7221C283.042 82.7344 283.139 82.6821 283.179 82.5881C283.772 81.1979 285.343 80.8076 285.36 80.8037C285.479 80.7752 285.553 80.6551 285.524 80.5358C285.496 80.4165 285.376 80.3426 285.256 80.3703C285.183 80.388 283.453 80.813 282.77 82.4142C282.721 82.5273 282.775 82.6582 282.888 82.7059C282.907 82.7144 282.926 82.7198 282.946 82.7221Z" fill="#FD8471"/>
<path d="M284.549 82.1918C284.59 82.1972 284.633 82.1911 284.673 82.1718C284.784 82.1195 284.832 81.9863 284.779 81.8754C284.77 81.857 284.558 81.4189 284.037 81.0995C283.932 81.0348 283.795 81.0679 283.73 81.1734C283.666 81.2781 283.699 81.4151 283.803 81.4797C284.206 81.7269 284.374 82.0633 284.375 82.0671C284.411 82.1372 284.477 82.1826 284.549 82.1918Z" fill="#FD8471"/>
<path d="M285.329 78.6739C284.596 78.5499 284.076 78.5969 283.671 78.7839C283.389 78.914 283.162 79.108 282.958 79.3598C282.916 79.4106 282.875 79.4645 282.833 79.5214C282.742 79.4845 282.655 79.4329 282.572 79.3705C282.386 79.2312 282.221 79.0318 282.077 78.8001C281.692 78.1858 281.233 77.7308 281.092 77.1581C280.877 76.2851 279.925 75.4884 279.925 75.4884C272.489 77.8024 266.604 71.393 266.604 71.393C268.904 64.3123 281.41 67.6856 284.637 69.3992C287.862 71.1112 288.984 79.2859 285.329 78.6739Z" fill="#18285D"/>
<path d="M281.092 77.1574C281.092 77.1574 282.824 79.7031 281.461 83.2874C280.099 86.8716 279.108 92.542 282.482 94.3588C282.482 94.3588 280.868 90.4428 281.527 87.9724C282.311 85.0356 283.704 82.1219 283.205 80.0003C282.706 77.8795 281.819 76.6878 281.092 77.1574Z" fill="#18285D"/>
<path d="M268.283 71.8919C268.283 71.8919 268.919 76.8133 265.535 78.5461C265.535 78.5461 264.077 68.5632 268.283 71.8919Z" fill="#18285D"/>
<path d="M273.394 80.6353C273.296 78.8478 274.671 77.3136 276.458 77.2158C278.246 77.1181 279.78 78.493 279.878 80.2805C279.975 82.068 278.601 83.6022 276.813 83.7C275.026 83.7977 273.492 82.4228 273.394 80.6353ZM273.899 80.6076C273.982 82.1165 275.277 83.2773 276.786 83.1942C278.295 83.1118 279.456 81.8162 279.373 80.3074C279.29 78.7986 277.995 77.6377 276.486 77.7208C274.977 77.8032 273.817 79.098 273.899 80.6076Z" fill="white"/>
<path d="M264.532 81.1202C264.434 79.3327 265.809 77.7985 267.596 77.7007C269.384 77.6029 270.918 78.9771 271.016 80.7653C271.113 82.5528 269.738 84.0871 267.951 84.1848C266.163 84.2826 264.63 82.9077 264.532 81.1202ZM265.037 81.0925C265.12 82.6013 266.414 83.7622 267.924 83.6791C269.433 83.5967 270.594 82.3011 270.511 80.7923C270.427 79.2834 269.133 78.1226 267.624 78.2057C266.115 78.2888 264.955 79.5837 265.037 81.0925Z" fill="white"/>
<path d="M282.078 78.7992C281.507 78.8508 279.798 79.2057 279.479 79.2734C279.522 79.4559 279.733 80.1318 279.699 79.9524C279.676 79.8277 280.782 79.5883 280.783 79.6045C281.154 79.5252 281.815 79.4051 282.574 79.3705C282.699 79.3643 282.829 79.3604 282.96 79.3589C283.164 79.1079 283.391 78.9132 283.672 78.7831C283.115 78.7384 282.565 78.7554 282.078 78.7992Z" fill="white"/>
<path d="M270.798 80.0472C270.803 80.0395 271.359 79.1942 272.148 79.1511C272.929 79.108 273.517 79.8893 273.522 79.897L273.93 79.5976C273.9 79.5568 273.178 78.5876 272.12 78.6461C271.069 78.7038 270.399 79.7308 270.371 79.7746L270.798 80.0472Z" fill="white"/>
<path d="M288.7 75.2143C288.7 75.2143 291.381 67.9173 286.908 65.0682C282.018 61.9536 272.207 59.7396 267.65 67.8634L288.7 75.2143Z" fill="#579DFF"/>
<path d="M288.311 78.9786C288.311 78.9786 285.048 75.0856 277.542 72.6369C270.036 70.1881 265.472 71.5299 265.472 71.5299C265.472 71.5299 265.127 69.0334 266.679 67.3583C268.232 65.6839 276.955 66.7871 281.657 68.9579C287.407 71.613 289.666 74.927 289.666 74.927C289.666 74.927 290.026 77.8077 288.311 78.9786Z" fill="#3C80FB"/>
<path d="M33.268 320.43C50.4829 320.43 64.4384 316.808 64.4384 312.34C64.4384 307.872 50.4829 304.25 33.268 304.25C16.0531 304.25 2.09766 307.872 2.09766 312.34C2.09766 316.808 16.0531 320.43 33.268 320.43Z" fill="#E5E5E5"/>
<path d="M36.0631 316.697C36.0631 316.697 38.0515 318.211 40.2001 317.373L41.1038 316.984L41.8429 316.621C41.8429 316.621 50.6564 312.805 53.4246 310.581C56.1929 308.356 58.5131 304.197 54.6856 302.501C50.8581 300.804 44.9614 304.866 42.9283 303.821C42.9283 303.821 36.5504 303.755 36.5827 307.168C36.1493 310.766 35.759 312.404 36.0631 316.697Z" fill="#3C80FB"/>
<path d="M50.1324 305.633C49.9946 305.584 49.8922 305.456 49.8822 305.3C49.8815 305.288 49.7899 304.022 48.9985 303.401C48.2402 302.805 47.0478 303.224 47.0355 303.228C46.8392 303.299 46.6229 303.197 46.552 303.002C46.4812 302.806 46.5813 302.59 46.7768 302.518C46.8415 302.494 48.3734 301.949 49.4658 302.806C50.5266 303.639 50.6328 305.189 50.6374 305.254C50.6505 305.463 50.4919 305.641 50.2833 305.655C50.2302 305.658 50.1794 305.65 50.1324 305.633Z" fill="white"/>
<path d="M48.9148 306.003C48.777 305.953 48.6747 305.825 48.6654 305.67C48.6647 305.658 48.573 304.391 47.7817 303.77C47.0234 303.174 45.8302 303.593 45.8187 303.598C45.6224 303.668 45.4061 303.567 45.3352 303.371C45.2644 303.176 45.3645 302.959 45.56 302.888C45.6247 302.864 47.1558 302.318 48.249 303.176C49.3098 304.009 49.416 305.558 49.4206 305.624C49.4337 305.832 49.2751 306.011 49.0665 306.024C49.0126 306.027 48.9618 306.019 48.9148 306.003Z" fill="white"/>
<path d="M47.5523 306.363C47.4145 306.313 47.3122 306.186 47.3022 306.03C47.3014 306.018 47.2098 304.752 46.4184 304.13C45.6601 303.534 44.4677 303.953 44.4554 303.958C44.2591 304.029 44.0428 303.927 43.972 303.732C43.9011 303.536 44.0012 303.32 44.1967 303.248C44.2614 303.224 45.7926 302.678 46.8857 303.536C47.9465 304.369 48.0527 305.919 48.0573 305.984C48.0704 306.193 47.9118 306.371 47.7032 306.384C47.6493 306.387 47.5985 306.38 47.5523 306.363Z" fill="white"/>
<path d="M38.2604 296.556L37.6738 306.591C37.6738 306.591 39.4475 307.751 43.0594 306.725L45.3311 297.518C45.3311 297.518 40.8385 295.629 38.2604 296.556Z" fill="#FCB38F"/>
<path d="M21.459 209.655L42.6157 208.527C42.6157 208.527 46.0983 245.673 46.7303 254.449C47.3623 263.226 44.6395 300.798 44.6395 300.798C40.3447 303.163 36.5819 300.732 36.5819 300.732C36.5819 300.732 36.5365 286.6 36.3356 282.572C36.1339 278.544 34.5034 263.326 34.9114 259.521C34.9114 259.521 29.8284 230.604 29.2448 229.097C28.6613 227.591 21.4598 227.047 21.4598 227.047L21.459 209.655Z" fill="#3B3E7D"/>
<path d="M43.8158 301.075C43.8104 301.075 43.8058 301.075 43.8004 301.075C43.5871 301.067 43.4208 300.887 43.4293 300.674C43.4432 300.304 44.8512 263.535 44.8604 258.706C44.8696 253.89 42.0283 224.124 41.9998 223.823C41.9798 223.611 42.1353 223.422 42.3477 223.401C42.5633 223.385 42.748 223.537 42.7688 223.749C42.8858 224.976 45.6417 253.853 45.6333 258.707C45.624 263.55 44.2161 300.332 44.2014 300.703C44.193 300.912 44.0221 301.075 43.8158 301.075Z" fill="#001350"/>
<path d="M36.1315 298.448C36.1315 298.448 41.2246 299.38 45.1891 298.647C45.3739 300.197 45.089 301.789 44.6664 302.632C44.6664 302.632 39.9382 303.488 36.2755 302.298C35.9283 301.124 35.702 299.757 36.1315 298.448Z" fill="#586197"/>
<path d="M7.34185 316.467C7.34185 316.467 9.31487 318.002 11.4719 317.185L12.3795 316.805L13.1224 316.449C13.1224 316.449 21.9736 312.722 24.7634 310.525C27.554 308.327 29.915 304.192 26.1052 302.458C22.2954 300.723 16.3579 304.726 14.3356 303.661C14.3356 303.661 7.95847 303.531 7.95693 306.945C7.48735 310.538 7.08012 312.173 7.34185 316.467Z" fill="#3C80FB"/>
<path d="M21.5212 305.545C21.3834 305.494 21.2825 305.365 21.2748 305.21C21.2741 305.197 21.1948 303.93 20.4096 303.301C19.6575 302.698 18.4604 303.105 18.4481 303.109C18.251 303.177 18.0355 303.074 17.967 302.878C17.8977 302.682 18.0001 302.466 18.1964 302.397C18.261 302.374 19.7983 301.843 20.8822 302.712C21.9346 303.555 22.0262 305.106 22.0293 305.171C22.04 305.38 21.8799 305.557 21.6713 305.568C21.6189 305.57 21.5681 305.562 21.5212 305.545Z" fill="white"/>
<path d="M20.3004 305.903C20.1626 305.852 20.0618 305.722 20.0541 305.567C20.0533 305.555 19.974 304.288 19.1888 303.659C18.4367 303.055 17.2396 303.462 17.2273 303.466C17.0302 303.535 16.8155 303.431 16.7462 303.234C16.6769 303.038 16.7801 302.823 16.9756 302.753C17.0403 302.73 18.5768 302.2 19.6615 303.068C20.7138 303.912 20.8054 305.462 20.8085 305.528C20.8193 305.736 20.6591 305.913 20.4505 305.924C20.3982 305.928 20.3474 305.92 20.3004 305.903Z" fill="white"/>
<path d="M18.9333 306.249C18.7955 306.198 18.6946 306.069 18.687 305.913C18.6862 305.901 18.6069 304.634 17.8217 304.005C17.0696 303.401 15.8725 303.809 15.8602 303.813C15.6631 303.881 15.4484 303.777 15.3791 303.581C15.3098 303.385 15.4122 303.169 15.6085 303.1C15.6731 303.077 17.2105 302.545 18.2943 303.415C19.3467 304.258 19.4383 305.809 19.4414 305.874C19.4521 306.083 19.292 306.26 19.0834 306.271C19.0303 306.274 18.9795 306.266 18.9333 306.249Z" fill="white"/>
<path d="M9.74136 296.35L9.05469 306.378C9.05469 306.378 10.8168 307.556 14.4387 306.567L16.8021 297.382C16.8021 297.382 12.3279 295.448 9.74136 296.35Z" fill="#FCB38F"/>
<path d="M25.1264 214.411C25.1264 214.411 23.5036 246.498 23.2188 255.293C22.934 264.088 16.3136 301.173 16.3136 301.173C11.7964 303.077 8.30683 300.269 8.30683 300.269C8.30683 300.269 9.73329 286.208 9.95192 282.182C10.1705 278.156 9.05201 265.093 10.935 259.108C10.935 259.108 8.89035 229.818 8.46695 228.259C8.46695 228.259 8.41923 225.433 8.27758 221.374C8.17597 218.47 8.27758 215.158 8.27758 215.158L25.1264 214.411Z" fill="#3B3E7D"/>
<path d="M15.5078 301.364C15.4893 301.364 15.4708 301.363 15.4523 301.361C15.2414 301.331 15.0944 301.134 15.1252 300.923C15.1783 300.556 20.4061 264.135 20.918 259.333C21.4284 254.543 21.7017 227.958 21.7047 227.69C21.707 227.477 21.8833 227.296 22.095 227.307C22.3083 227.31 22.4799 227.484 22.4776 227.698C22.4668 228.794 22.2013 254.588 21.6863 259.414C21.1736 264.231 15.9435 300.666 15.8904 301.033C15.8619 301.225 15.6971 301.364 15.5078 301.364Z" fill="#001350"/>
<path d="M8.09778 297.949C8.09778 297.949 13.0661 299.406 17.0853 299.09C17.1084 300.651 16.6588 302.205 16.1508 303C16.1508 303 11.3587 303.359 7.84066 301.793C7.61665 300.59 7.53351 299.207 8.09778 297.949Z" fill="#586197"/>
<path d="M42.4528 186.359C42.8208 200.961 45.2757 218.782 45.2757 218.782C45.2757 218.782 16.9675 227.681 7.62891 217.975C7.62891 217.975 10.4657 156.566 11.6296 149.579C11.6335 149.551 11.6396 149.526 11.6435 149.498C12.023 147.225 11.9522 147.531 12.2401 146.104C12.5326 144.663 14.1715 142.971 15.8397 142.232C16.6149 141.888 17.3993 141.751 18.056 141.945C26.5955 144.449 41.3281 148.461 44.1325 151.098C46.1271 152.971 45.3604 159.748 44.2965 167.449C44.2472 167.807 44.1979 168.165 44.1464 168.526C43.2927 174.658 42.3242 181.252 42.4528 186.359Z" fill="#579DFF"/>
<path d="M28.5632 206.348C28.5432 206.348 28.5231 206.346 28.5031 206.343C18.0353 204.753 11.3756 194.408 11.3094 194.303C11.1924 194.118 11.2479 193.874 11.4318 193.757C11.6166 193.64 11.8606 193.696 11.9776 193.88C12.0415 193.981 18.5156 204.026 28.6225 205.561C28.838 205.594 28.9866 205.795 28.9542 206.011C28.9235 206.208 28.7549 206.348 28.5632 206.348Z" fill="#3C80FB"/>
<path d="M44.297 167.448C44.2477 167.806 44.1985 168.164 44.1469 168.525C41.8144 165.738 40.3102 162.457 40.2293 162.279C40.1385 162.08 40.2255 161.846 40.4249 161.755C40.6242 161.664 40.8575 161.753 40.9483 161.95C40.966 161.99 42.2747 164.845 44.297 167.448Z" fill="#3C80FB"/>
<path d="M24.2141 188.426C24.114 188.426 24.0147 188.388 23.9377 188.312C17.4598 181.967 15.2089 167.245 15.1157 166.621C15.0834 166.404 15.2327 166.204 15.4491 166.171C15.6654 166.14 15.8663 166.288 15.8979 166.505C15.9202 166.655 18.2034 181.588 24.4912 187.747C24.6475 187.9 24.6498 188.151 24.4974 188.306C24.4189 188.386 24.3165 188.426 24.2141 188.426Z" fill="#3C80FB"/>
<path d="M43.8898 131.317C43.8898 131.317 44.3725 134.655 44.3725 135.527C44.3725 135.961 42.6543 136.183 42.6543 136.183C42.6543 136.183 43.2501 132.131 43.8898 131.317Z" fill="#FCB38F"/>
<path d="M29.0084 146.587C30.0792 146.981 32.1716 147.311 34.2085 146.98L34.4418 145.424L34.5026 145.037L35.0014 141.822L35.063 141.421C35.063 141.421 29.0285 137.157 26.5581 138.096C26.4627 138.128 26.3726 138.17 26.291 138.222C26.1186 140.123 25.6067 142.617 25.2656 144.239C25.378 144.953 26.8399 145.788 29.0084 146.587Z" fill="#FCB38F"/>
<path d="M35.0029 141.823L34.504 145.038C31.9552 143.701 29.8867 141.194 29.8867 141.194L35.0029 141.823Z" fill="#FD8471"/>
<path d="M44.1097 128.287C44.0658 129.484 43.9873 130.675 43.8549 131.745C43.7856 132.34 43.6971 132.897 43.5901 133.397C43.4831 133.896 43.333 134.453 43.1421 135.038C43.1421 135.038 43.1397 135.042 43.1382 135.048C43.1205 135.15 42.9565 135.986 42.6763 137.064C42.6702 137.089 42.6625 137.116 42.6563 137.141C42.4138 138.071 42.0897 139.167 41.6987 140.115C41.6733 140.178 41.6471 140.239 41.6217 140.3C41.2483 141.171 40.8218 141.894 40.3561 142.218C37.9666 143.883 29.889 141.193 29.889 141.193L29.0953 140.871C28.1654 140.631 28.0368 140.222 27.5788 139.768C27.0138 139.258 26.5142 138.743 26.0738 138.212C25.2763 137.254 24.6535 136.245 24.1362 135.136C23.9368 134.71 23.8599 134.234 23.7375 133.78C23.7159 133.701 23.6944 133.618 23.6766 133.539C23.6651 133.494 23.6512 133.45 23.6389 133.405C23.3033 132.076 23.0646 130.741 22.8868 129.471C22.6674 127.886 22.5512 126.412 22.4958 125.202C22.3872 122.977 23.4673 120.863 25.3279 119.637C30.3678 116.317 35.9705 117.05 39.7033 118.208C42.296 119.007 44.0797 121.381 44.1313 124.091C44.1551 125.372 44.1551 126.838 44.1097 128.287Z" fill="#FCB38F"/>
<path d="M43.3463 130.65C43.2832 131.26 43.026 131.732 42.7735 131.705C42.5203 131.679 42.3671 131.163 42.4302 130.555C42.4933 129.945 42.7497 129.472 43.003 129.499C43.2562 129.525 43.4102 130.041 43.3463 130.65Z" fill="#18285D"/>
<path d="M44.1706 126.682C43.196 126.545 42.0197 126.532 40.9628 126.937C40.8635 126.975 40.8073 127.081 40.8258 127.185L40.9512 127.887C40.9728 128.007 41.0859 128.089 41.206 128.069C41.661 127.993 42.788 127.849 44.1175 128.01C44.2499 128.026 44.3684 127.927 44.3707 127.794C44.3761 127.494 44.3746 127.193 44.3607 126.894C44.3569 126.786 44.2768 126.697 44.1706 126.682Z" fill="#18285D"/>
<path d="M35.8416 131.192C35.7754 132.596 38.2565 131.897 38.3581 129.759C38.459 127.622 38.3543 125.516 40.803 125.509C43.2518 125.502 43.1048 122.128 45.5189 120.712C47.9323 119.295 48.368 116.555 47.221 114.923C46.0739 113.291 43.3704 116.529 43.3704 116.529C43.3704 116.529 44.4404 113.315 43.2718 112.138C42.1033 110.961 39.5082 115.336 39.5082 115.336C39.5082 115.336 40.6637 111.223 39.7153 110.949C38.7677 110.676 37.9093 110.959 36.1203 114.398C36.1203 114.398 27.5785 115.151 24.9758 117.793C24.9758 117.793 22.6579 116.571 21.3646 118.041C20.0713 119.51 22.4138 119.773 22.4138 119.773C22.4138 119.773 19.417 120.397 19.8565 121.897C20.2961 123.398 21.9119 122.658 21.9119 122.658C21.9119 122.658 21.3138 129.373 22.8295 131.881C22.8295 131.881 21.2314 136.729 22.6555 137.668C23.8695 138.469 24.955 137.092 24.955 137.092C24.955 137.092 23.1113 140.796 25.6332 140.797C26.7186 140.797 28.54 137.872 28.54 137.872C28.54 137.872 26.8726 141.851 28.9726 141.669C31.5222 141.448 33.4544 134.66 32.9317 134.3C32.9317 134.3 30.3398 133.852 30.66 130.451C30.998 126.863 33.2782 126.971 34.4575 127.537C36.0456 128.297 35.8416 131.192 35.8416 131.192Z" fill="#18285D"/>
<path d="M34.0264 132.808C33.9324 132.759 33.8793 132.652 33.9016 132.544C34.2427 130.935 33.088 129.604 33.0764 129.591C32.9879 129.491 32.9971 129.338 33.0972 129.25C33.1973 129.161 33.3505 129.17 33.439 129.27C33.4936 129.331 34.7692 130.792 34.3758 132.644C34.3481 132.775 34.2196 132.859 34.0887 132.832C34.0664 132.826 34.0456 132.818 34.0264 132.808Z" fill="#FD8471"/>
<path d="M32.9303 131.334C32.8902 131.313 32.8564 131.28 32.8325 131.238C32.7663 131.122 32.8071 130.974 32.9233 130.908C32.9426 130.897 33.4052 130.639 34.0688 130.681C34.202 130.688 34.3044 130.804 34.2959 130.938C34.2874 131.071 34.1727 131.173 34.0396 131.165C33.5261 131.133 33.1666 131.328 33.1628 131.331C33.0881 131.371 33.0003 131.371 32.9303 131.334Z" fill="#FD8471"/>
<path d="M42.6738 137.064C42.6676 137.09 42.6599 137.116 42.6538 137.141C42.4113 138.071 42.0872 139.167 41.6961 140.115C40.3082 139.311 40.0372 137.809 40.0156 136.692V136.578L40.195 136.612L42.6738 137.064Z" fill="white"/>
<path d="M35.5979 154.014C35.5979 154.014 34.1923 158.854 24.8252 158.579C16.4774 158.335 12.8516 153.208 11.6445 149.498C12.0233 147.225 11.9525 147.532 12.2411 146.103C12.5329 144.664 14.1718 142.971 15.84 142.232C18.5189 144.642 29.17 153.851 35.5979 154.014Z" fill="#3C80FB"/>
<path d="M25.3765 141.36C25.3765 141.36 22.6382 138.021 18.0787 139.432C15.0664 140.364 11.8524 147.421 14.4151 151.003C16.9778 154.585 25.4019 158.912 32.2716 156.359C38.026 154.222 37.4679 147.813 37.4679 147.813C37.1661 146.473 36.1754 145.523 34.1654 145.15C34.1654 145.15 27.184 144.457 25.3765 141.36Z" fill="#579DFF"/>
<path d="M44.1321 151.098C44.1321 151.098 60.5159 169.149 65.0355 169.383L62.4466 177.104C62.4466 177.104 48.383 173.441 43.6917 166.619C39.1322 159.99 44.1321 151.098 44.1321 151.098Z" fill="#579DFF"/>
<path d="M76.451 155.507C76.451 155.507 72.5473 172.948 68.4219 176.004C64.2965 179.06 61.1949 176.407 61.1949 176.407C61.1949 176.407 60.4913 172.504 63.0309 168.88C63.181 168.667 63.3411 168.453 63.5174 168.242C63.7884 167.91 64.0925 167.582 64.4289 167.261C68.5997 163.296 70.7821 155.421 70.7821 155.421C72.448 155.793 74.6543 156.072 76.451 155.507Z" fill="#579DFF"/>
<path d="M66.875 134.561L67.6494 135.013L67.7433 135.068L67.8927 134.077L67.8904 134.078H67.8896L66.875 134.561Z" fill="#18285D"/>
<path d="M67.6806 134.42L66.8638 150.161C66.8561 150.311 66.9293 150.455 67.0563 150.536L74.0023 155.011C74.274 155.187 74.6335 155.002 74.6505 154.68L75.4572 139.131C75.4657 138.965 75.4079 138.805 75.2994 138.685C75.264 138.647 75.224 138.611 75.1793 138.582L68.3319 134.09C68.1887 133.996 68.0209 134.003 67.8915 134.077L67.8908 134.078C67.7737 134.146 67.6883 134.267 67.6806 134.42Z" fill="#001350"/>
<path d="M74.3117 155.071L73.1816 155.322L73.2348 154.295L74.3117 155.071Z" fill="#18285D"/>
<path d="M66.875 134.561L67.6494 135.013L67.6256 135.472L73.7548 139.45L75.2983 138.685C75.2628 138.647 75.2228 138.611 75.1782 138.582L68.3307 134.09C68.1875 133.996 68.0197 134.003 67.8904 134.077L67.8896 134.078L66.875 134.561Z" fill="#26246C"/>
<path d="M66.5611 135.033L65.7605 150.462C65.7505 150.66 65.8467 150.85 66.0145 150.958L72.6995 155.265C73.0583 155.496 73.5325 155.254 73.5548 154.827L74.3516 139.474C74.3616 139.277 74.2669 139.09 74.1014 138.982L67.4202 134.598C67.0615 134.363 66.5834 134.605 66.5611 135.033Z" fill="#3B3E7D"/>
<path d="M67.3653 136.119L66.6371 150.159C66.6317 150.265 66.6833 150.365 66.7718 150.422L72.2975 153.983C72.3668 154.027 72.4445 154.039 72.5161 154.024C72.6401 153.997 72.744 153.894 72.7517 153.75L73.4769 139.772C73.4822 139.667 73.4314 139.568 73.3445 139.51L70.423 137.594L67.8226 135.888C67.8057 135.877 67.788 135.867 67.7703 135.86C67.5878 135.787 67.3761 135.912 67.3653 136.119Z" fill="white"/>
<path d="M72.0711 138.664L72.0318 139.42C72.0265 139.53 71.9033 139.593 71.8109 139.532L68.9118 137.632C68.8695 137.604 68.8448 137.556 68.8479 137.505L68.8956 136.587L72.0711 138.664Z" fill="#3B3E7D"/>
<path d="M70.5429 155.166C70.5429 155.166 69.342 153.786 69.1534 152.109C68.9648 150.433 68.1226 147.384 69.1534 147.003C70.1842 146.622 70.0425 149.366 71.2565 150.204C72.4705 151.042 75.1225 147.808 75.0848 146.306C75.054 145.063 75.2549 143.024 75.2549 143.024C75.2549 143.024 78.415 144.03 79.0239 147.536C79.6336 151.041 76.4489 155.506 76.4489 155.506C76.4489 155.506 72.3196 157.34 70.5429 155.166Z" fill="#FCB38F"/>
<path d="M65.0312 170.662C64.9581 170.718 64.8749 170.743 64.7903 170.743C64.6717 170.743 64.5547 170.69 64.4762 170.589C64.0035 169.97 63.5078 169.395 63.0312 168.879C63.1814 168.666 63.3415 168.452 63.5178 168.241C64.0397 168.799 64.5855 169.427 65.1051 170.11C65.2368 170.283 65.2029 170.53 65.0312 170.662Z" fill="#3C80FB"/>
<path d="M62.7367 152.422C62.7367 152.422 59.2141 158.118 54.626 161.819C52.228 159.553 49.864 157.158 47.9902 155.207C51.3035 153.657 55.7861 151.22 59.1748 148.106L62.7367 152.422Z" fill="#2E60E0"/>
<path d="M68.549 150.349C67.8077 150.798 66.9994 151.227 66.4282 151.595C65.0109 152.512 63.1826 152.459 63.1826 152.459C60.3736 152.461 59.1758 148.106 59.1758 148.106C59.1758 148.106 60.6107 142.812 63.7084 141.061C64.5721 140.573 65.5275 140.361 66.2888 140.312L65.967 146.52C65.9647 146.526 65.964 146.57 65.964 146.576C65.9463 146.76 65.9355 146.957 65.9355 147.129C65.9378 147.955 66.0394 148.608 66.5698 148.763C67.987 149.17 70.0193 147.322 70.3788 148.359C70.5913 148.979 69.6467 149.685 68.549 150.349Z" fill="#FCB38F"/>
<path d="M228.483 267.281C235.247 267.281 240.731 265.724 240.731 263.803C240.731 261.881 235.247 260.324 228.483 260.324C221.718 260.324 216.234 261.881 216.234 263.803C216.234 265.724 221.718 267.281 228.483 267.281Z" fill="#E5E5E5"/>
<path d="M240.618 244.796L235.483 261.972C235.271 262.827 234.689 263.541 233.9 263.935C230.011 265.878 226.124 265.879 222.238 263.935C221.449 263.541 220.867 262.828 220.656 261.973L215.439 244.963L228.069 243.021L240.618 244.796Z" fill="#3B3E7D"/>
<path d="M228.07 250.596C235.063 250.596 240.732 247.597 240.732 243.898C240.732 240.198 235.063 237.199 228.07 237.199C221.077 237.199 215.408 240.198 215.408 243.898C215.408 247.597 221.077 250.596 228.07 250.596Z" fill="#26246C"/>
<path d="M236.826 243.898C236.826 246.057 232.906 247.807 228.07 247.807C223.234 247.807 219.314 246.057 219.314 243.898C219.314 241.738 223.234 239.988 228.07 239.988C232.905 239.988 236.826 241.738 236.826 243.898Z" fill="#001350"/>
<path d="M244.87 216.76C239.56 215.361 231.447 226.383 228.983 237.128V221.472C230.222 219.276 232.583 215.971 236.87 212.48C243.538 207.05 249.676 200.081 244.356 198.68C239.372 197.367 231.916 207.001 228.984 217.077V196.971C229.843 195.638 231.25 193.888 233.499 192.056C237.701 188.634 241.569 184.242 238.217 183.359C235.308 182.593 231.063 187.742 228.983 193.55V187.034C229.327 185.018 229.813 182.139 231.146 179.197C234.237 172.377 235.906 165.351 231.831 165.873C227.753 166.397 225.109 178.542 227.339 187.867V191.22C225.832 184.397 220.664 177.33 217.29 178.218C213.937 179.101 217.805 183.493 222.007 186.915C225.206 189.52 226.702 191.958 227.339 193.27V209.107C224.922 198.309 216.752 187.162 211.414 188.568C206.095 189.969 212.233 196.938 218.9 202.368C223.938 206.471 226.317 210.316 227.339 212.408V231.4C224.757 220.798 216.795 210.099 211.559 211.478C206.24 212.88 210.802 217.973 218.294 224.132C223.387 228.318 226.114 232.735 227.339 235.137V244.083C227.934 244.249 228.49 244.249 228.983 244.083V240.523C230.025 238.416 232.407 234.614 237.384 230.561C244.051 225.13 250.189 218.161 244.87 216.76Z" fill="#3C80FB"/>
<path d="M220.506 75.6133L217.812 81.5093V77.1691L220.506 75.6133Z" fill="#2E60E0"/>
<path d="M217.813 81.5091L216.478 80.7378V77.9388L217.811 77.1689L217.813 81.5091Z" fill="#0041C6"/>
<path d="M204.472 61.3657V80.9674L207.861 82.9242L207.567 63.1663L204.472 61.3657Z" fill="#0041C6"/>
<path d="M225.119 53.0325V72.9605L207.861 82.9242L207.567 63.1662L225.119 53.0325Z" fill="#2E60E0"/>
<path d="M220.894 63.9816C220.906 64.8261 220.654 65.8353 220.133 66.8061L216.576 73.4303L212.891 71.2971C212.351 70.9846 212.074 70.3041 212.062 69.4588C212.05 68.6144 212.302 67.6051 212.823 66.6359C213.794 64.8261 215.304 64.1079 216.46 65.4312C217.556 62.7115 219.06 61.5614 220.066 62.1441C220.605 62.4566 220.882 63.1372 220.894 63.9816Z" fill="white"/>
<path d="M204.472 61.3657L222.024 51.2319L225.119 53.0325L207.567 63.1663L204.472 61.3657Z" fill="#3C80FB"/>
<path d="M158.464 27.8134C158.435 30.0535 157.638 32.5385 156.378 34.7378C155.117 36.9371 153.393 38.8509 151.51 39.9479L102.145 68.7018C98.3785 70.8958 95.3447 69.0259 95.4032 64.5456C95.4155 63.5949 95.5671 62.5972 95.8327 61.6011C96.193 60.2462 96.7657 58.8852 97.4901 57.6212C98.4262 55.9884 99.6179 54.5127 100.94 53.4118C101.482 40.2766 110.54 24.7418 121.492 18.3624C128.657 14.1885 134.897 14.9468 138.411 19.5279C139.423 18.561 140.499 17.7327 141.614 17.083C141.96 16.8821 142.298 16.7042 142.632 16.5472C147.977 14.0399 152.093 16.9644 152.008 23.4909C152.008 23.494 152.008 23.494 152.008 23.4978C155.641 21.5594 158.521 23.4485 158.464 27.8134Z" fill="#2E60E0"/>
<path d="M159.774 22.8772L156.223 22.54L155.268 23.9973C155.268 23.9973 155.871 24.5331 157.121 24.0489C158.371 23.5639 159.774 22.8772 159.774 22.8772Z" fill="#2E60E0"/>
<path d="M146.695 15.665L151.933 15.8098L149.51 17.6065C149.51 17.6065 147.325 17.0576 146.695 15.665Z" fill="#2E60E0"/>
<path d="M98.8164 69.6126L103.731 69.7342L102.02 68.2446C102.02 68.2446 98.9588 68.909 98.8164 69.6126Z" fill="#2E60E0"/>
<path d="M163.47 27.951C163.441 30.1912 162.644 32.6761 161.383 34.8755C160.123 37.0748 158.399 38.9886 156.516 40.0856L107.151 68.8395C103.384 71.0335 100.351 69.1628 100.409 64.6833C100.421 63.7326 100.573 62.7349 100.839 61.7388C101.199 60.3839 101.772 59.0229 102.496 57.7589C103.432 56.1261 104.624 54.6504 105.946 53.5495C106.488 40.4143 115.546 24.8795 126.498 18.5001C133.663 14.3262 139.903 15.0845 143.417 19.6656C144.429 18.6987 145.505 17.8704 146.62 17.2207C146.966 17.0198 147.304 16.8419 147.638 16.6849C152.982 14.1776 157.099 17.1021 157.014 23.6286C157.014 23.6316 157.014 23.6317 157.014 23.6355C160.647 21.6979 163.527 23.587 163.47 27.951Z" fill="#3C80FB"/>
<path d="M140.783 27.7596L137.381 25.6626L134.675 23.9937L134.352 24.5533L132.727 27.3885L131.882 28.8642L128.371 34.9881C127.602 36.3337 127.582 37.7956 128.329 38.2582C129.077 38.717 130.308 38.0003 131.078 36.657L132.615 33.975L132.468 45.235C132.451 46.5121 133.309 47.0402 134.382 46.4151C135.455 45.79 136.34 44.2473 136.356 42.971L136.503 31.7141L137.991 32.6317C138.365 32.8596 138.859 32.7964 139.358 32.5062C139.855 32.2168 140.354 31.7018 140.741 31.0305C141.51 29.6841 141.53 28.2222 140.783 27.7596Z" fill="white"/>
<path d="M70.5664 123.585L73.2607 129.48V125.14L70.5664 123.585Z" fill="#2E60E0"/>
<path d="M73.2578 129.48L74.5942 128.709V125.91L73.2601 125.14L73.2578 129.48Z" fill="#0041C6"/>
<path d="M85.7801 108.884V128.486L82.3906 130.443L82.6855 110.686L85.7801 108.884Z" fill="#0041C6"/>
<path d="M65.1328 100.551V120.479L82.3904 130.443L82.6853 110.686L65.1328 100.551Z" fill="#2E60E0"/>
<path d="M85.7799 108.884L68.2275 98.7505L65.1328 100.551L82.6853 110.686L85.7799 108.884Z" fill="#3C80FB"/>
<path d="M68.1979 112.078C68.1517 115.118 70.6767 119.126 73.8267 121.011C76.976 122.896 79.5765 121.956 79.6226 118.916C79.6688 115.876 77.1439 111.869 73.9938 109.984C70.8437 108.098 68.2441 109.038 68.1979 112.078ZM71.3726 116.033C71.1948 115.321 71.1024 114.611 71.097 113.918L73.6789 115.464L73.6497 117.396L71.3726 116.033ZM72.6751 119.748C71.2286 118.564 70.0085 116.937 69.2918 115.234L71.0316 116.276C71.261 117.072 71.5858 117.863 71.9977 118.627C72.2063 119.014 72.4334 119.39 72.6751 119.748ZM73.6428 117.84L73.6035 120.425C73.4318 120.223 72.8899 119.552 72.3526 118.549C72.0085 117.906 71.729 117.241 71.5219 116.57L73.6428 117.84ZM71.7259 111.451C72.3549 110.512 73.2632 110.248 73.5527 110.185C73.6212 110.22 73.6889 110.257 73.7575 110.295L73.7221 112.645L71.7259 111.451ZM69.5173 110.129C70.2656 109.458 71.4319 109.351 72.7498 109.83C72.4873 109.939 72.2402 110.082 72.0138 110.257C71.7013 110.498 71.4357 110.799 71.224 111.151L69.5173 110.129ZM71.1062 113.476C71.1432 112.833 71.2864 112.263 71.5319 111.782L73.7143 113.088L73.6851 115.02L71.1062 113.476ZM68.6744 112.021C68.7314 111.372 68.9246 110.833 69.2495 110.416L71.0447 111.491C70.8153 111.986 70.6821 112.561 70.6467 113.202L68.6744 112.021ZM70.6374 113.643C70.642 114.331 70.7283 115.037 70.8945 115.746L69.0693 114.654C68.7999 113.877 68.6613 113.138 68.6575 112.459L70.6374 113.643ZM77.1261 117.528L79.1592 118.745C79.1354 119.408 78.9768 119.969 78.6889 120.413L76.8105 119.289C76.9953 118.789 77.1015 118.197 77.1261 117.528ZM74.1809 112.92L74.2163 110.57C74.2648 110.601 74.3133 110.633 74.3618 110.665C74.5573 110.944 75.0315 111.655 75.5019 112.61C75.7436 113.102 75.953 113.597 76.1239 114.084L74.1809 112.92ZM76.304 114.639C76.5303 115.405 76.6535 116.134 76.6704 116.807L74.1447 115.295L74.1739 113.364L76.304 114.639ZM76.625 114.383C76.4272 113.786 76.1754 113.175 75.876 112.568C75.6543 112.119 75.411 111.677 75.1516 111.251C76.4903 112.351 77.6565 113.859 78.3848 115.436L76.625 114.383ZM76.6673 117.253C76.6412 117.929 76.5288 118.517 76.334 119.003L74.1093 117.671L74.1385 115.739L76.6673 117.253ZM77.1308 117.083C77.1154 116.412 77.0014 115.688 76.7913 114.93L78.6396 116.037C78.9468 116.832 79.12 117.591 79.1561 118.295L77.1308 117.083ZM78.4533 120.719C77.695 121.542 76.3933 121.685 74.9253 121.11C75.1801 121.045 75.4195 120.944 75.6404 120.808C76.0677 120.545 76.4102 120.154 76.6596 119.645L78.4533 120.719ZM76.1693 119.351C75.5111 120.561 74.4149 120.667 74.0638 120.669L74.1023 118.114L76.1693 119.351Z" fill="white"/>
<path d="M193.47 315.965C211.372 309.23 223.407 297.186 220.352 289.064C217.296 280.942 200.307 279.817 182.405 286.553C164.503 293.288 152.467 305.331 155.523 313.453C158.579 321.575 175.568 322.7 193.47 315.965Z" fill="#E5E5E5"/>
<path d="M213.221 262.994L182.025 281.005L161.229 268.998L192.233 250.877L213.221 262.994Z" fill="#586197"/>
<mask id="mask0_1_2070" style="mask-type:luminance" maskUnits="userSpaceOnUse" x="165" y="236" width="44" height="42">
<path d="M166.634 268.983L182.024 277.869L207.789 262.994L208.254 244.206L193.497 236.314L165.918 250.81L166.634 268.983Z" fill="white"/>
</mask>
<g mask="url(#mask0_1_2070)">
<path d="M207.788 262.994L192.24 254.018L166.633 268.983L182.023 277.869L207.788 262.994Z" fill="#001350"/>
</g>
<mask id="mask1_1_2070" style="mask-type:luminance" maskUnits="userSpaceOnUse" x="165" y="236" width="44" height="42">
<path d="M166.634 268.983L182.024 277.869L207.789 262.994L208.254 244.206L193.497 236.314L165.918 250.81L166.634 268.983Z" fill="white"/>
</mask>
<g mask="url(#mask1_1_2070)">
<path d="M195.49 241.673V261.863C195.49 262.143 195.34 262.401 195.099 262.541L183.335 269.246L172.156 275.617C171.999 275.706 171.83 275.734 171.671 275.714C171.302 275.667 170.984 275.356 170.984 274.936V254.912C170.984 254.632 171.134 254.373 171.376 254.233L194.314 240.994C194.837 240.692 195.49 241.069 195.49 241.673Z" fill="#2E60E0"/>
<path d="M189.444 256.777C189.302 259.225 187.331 261.182 185.041 261.147C182.751 261.113 181.009 259.1 181.151 256.652C181.292 254.203 183.263 252.247 185.553 252.281C187.843 252.316 189.585 254.329 189.444 256.777Z" fill="#6EB4FA"/>
<path d="M195.489 256.495V261.863C195.489 262.143 195.339 262.401 195.098 262.541L183.334 269.246L187.588 256.373L189.499 250.858L193.528 254.667L195.489 256.495Z" fill="#18285D"/>
<path d="M193.528 254.667L192.696 256.187L190.52 255.727L189.65 257.223L187.588 256.373L189.498 250.858L193.528 254.667Z" fill="white"/>
<path d="M191.131 264.802L183.334 269.246L172.155 275.617C171.998 275.706 171.829 275.734 171.67 275.714L177.009 260.3L179.317 253.636L184.186 258.239L191.131 264.802Z" fill="#3B3E7D"/>
<path d="M184.187 258.238L183.182 260.074L180.553 259.519L179.502 261.327L177.01 260.299L179.318 253.636L184.187 258.238Z" fill="white"/>
</g>
<mask id="mask2_1_2070" style="mask-type:luminance" maskUnits="userSpaceOnUse" x="165" y="236" width="44" height="42">
<path d="M166.634 268.983L182.024 277.869L207.789 262.994L208.254 244.206L193.497 236.314L165.918 250.81L166.634 268.983Z" fill="white"/>
</mask>
<g mask="url(#mask2_1_2070)">
<path d="M204.527 246.392V266.584C204.527 266.864 204.378 267.122 204.137 267.262L192.372 273.966L181.193 280.337C181.036 280.426 180.868 280.455 180.708 280.435C180.339 280.388 180.021 280.077 180.021 279.657V259.632C180.021 259.352 180.171 259.093 180.413 258.953L203.351 245.715C203.874 245.412 204.527 245.79 204.527 246.392Z" fill="#3C80FB"/>
<path d="M198.481 261.498C198.339 263.946 196.368 265.902 194.078 265.868C191.788 265.833 190.047 263.82 190.188 261.372C190.329 258.924 192.3 256.967 194.59 257.002C196.88 257.037 198.622 259.05 198.481 261.498Z" fill="#6EB4FA"/>
<path d="M204.526 261.215V266.584C204.526 266.864 204.376 267.122 204.135 267.262L192.371 273.966L196.625 261.093L198.536 255.578L202.565 259.388L204.526 261.215Z" fill="#18285D"/>
<path d="M202.565 259.388L201.733 260.907L199.557 260.448L198.687 261.943L196.625 261.093L198.535 255.578L202.565 259.388Z" fill="white"/>
<path d="M200.168 269.523L192.371 273.966L181.192 280.337C181.035 280.426 180.866 280.455 180.707 280.435L186.046 265.02L188.354 258.357L193.223 262.959L200.168 269.523Z" fill="#3B3E7D"/>
<path d="M193.224 262.959L192.219 264.795L189.59 264.24L188.54 266.047L186.047 265.019L188.356 258.357L193.224 262.959Z" fill="white"/>
</g>
<path d="M213.221 262.994V299.016L182.025 317.027V281.005L213.221 262.994Z" fill="#3B3E7D"/>
<path d="M198.899 278.778C193.342 282.105 188.887 289.174 188.968 294.538C189.049 299.903 193.636 301.561 199.193 298.234C204.751 294.908 209.206 287.837 209.125 282.473C209.044 277.109 204.456 275.452 198.899 278.778ZM199.506 291.856L199.454 288.447L204.01 285.72C204 286.942 203.837 288.196 203.523 289.451L199.506 291.856ZM202.42 294.03C203.145 292.68 203.719 291.284 204.124 289.881L207.194 288.044C205.93 291.047 203.777 293.916 201.226 296.007C201.652 295.374 202.052 294.711 202.42 294.03ZM203.26 290.398C202.894 291.582 202.402 292.756 201.794 293.89C200.847 295.659 199.889 296.843 199.587 297.2L199.517 292.638L203.26 290.398ZM199.379 283.474L199.316 279.327C199.436 279.26 199.556 279.195 199.677 279.133C200.187 279.244 201.789 279.712 202.899 281.367L199.379 283.474ZM203.785 280.837C203.412 280.215 202.943 279.685 202.391 279.259C201.992 278.951 201.556 278.698 201.093 278.506C203.42 277.66 205.476 277.849 206.797 279.034L203.785 280.837ZM199.443 287.665L199.391 284.256L203.242 281.951C203.676 282.8 203.928 283.804 203.994 284.94L199.443 287.665ZM204.804 284.456C204.743 283.324 204.506 282.309 204.102 281.436L207.27 279.54C207.843 280.275 208.184 281.227 208.284 282.372L204.804 284.456ZM208.314 283.144C208.308 284.343 208.063 285.646 207.588 287.018L204.368 288.946C204.66 287.696 204.813 286.449 204.821 285.235L208.314 283.144ZM193.927 295.195L190.613 297.179C190.105 296.395 189.826 295.406 189.783 294.236L193.37 292.089C193.416 293.27 193.603 294.314 193.927 295.195ZM195.139 286.011C195.441 285.153 195.81 284.279 196.237 283.412C197.066 281.726 197.904 280.473 198.249 279.979C198.334 279.922 198.419 279.867 198.505 279.812L198.567 283.959L195.139 286.011ZM198.58 284.741L198.632 288.15L194.176 290.817C194.206 289.628 194.424 288.342 194.822 286.99L198.58 284.741ZM191.152 288.398C192.437 285.616 194.495 282.954 196.857 281.014C196.398 281.766 195.969 282.546 195.578 283.337C195.049 284.409 194.605 285.486 194.256 286.539L191.152 288.398ZM198.644 288.932L198.695 292.341L194.771 294.69C194.426 293.833 194.228 292.795 194.182 291.603L198.644 288.932ZM189.79 293.442C189.854 292.2 190.16 290.86 190.701 289.458L193.962 287.505C193.591 288.843 193.39 290.119 193.363 291.303L189.79 293.442ZM194.195 295.824C194.635 296.722 195.24 297.412 195.993 297.876C196.383 298.115 196.806 298.294 197.255 298.408C194.665 299.422 192.369 299.171 191.03 297.718L194.195 295.824ZM198.707 293.124L198.776 297.63C198.157 297.628 196.223 297.44 195.061 295.306L198.707 293.124Z" fill="#586197"/>
<path d="M182.025 317.027L161.229 304.772V268.998L182.025 281.005V317.027Z" fill="#26246C"/>
</svg>
