<svg width="359" height="233" viewBox="0 0 359 233" fill="none" xmlns="http://www.w3.org/2000/svg">
<path d="M347.64 207.643H12.2559C12.2559 207.643 15.2416 77.9926 113.767 133.298C113.767 133.298 164.523 12.7142 242.149 20.8743C319.775 29.0343 271.01 136.925 305.842 144.178C340.674 151.431 353.612 176.817 347.64 207.643Z" fill="url(#paint0_linear_1_2448)"/>
<path d="M321.271 175.808C321.271 175.808 334.287 140.01 355.899 145.025C355.899 145.025 346.729 168.951 321.271 175.808Z" fill="#C4C3FD"/>
<path d="M299.021 206.672C302.593 200.604 306.484 194.75 310.563 189.022C314.673 183.318 319.012 177.776 323.61 172.451C328.208 167.127 333.117 162.063 338.37 157.371C341.013 155.045 343.721 152.788 346.566 150.705C347.267 150.172 348.005 149.686 348.722 149.175L349.806 148.418L350.919 147.703C351.667 147.236 352.387 146.725 353.158 146.296C353.914 145.842 354.675 145.384 355.64 145.312C355.092 146.129 354.339 146.56 353.582 146.995C352.821 147.423 352.109 147.933 351.371 148.398L350.274 149.111L349.203 149.865C348.494 150.376 347.767 150.86 347.074 151.392C344.263 153.468 341.585 155.722 338.971 158.043C336.361 160.372 333.868 162.831 331.425 165.335C328.99 167.848 326.647 170.451 324.338 173.082C319.748 178.37 315.411 183.881 311.301 189.555C307.176 195.215 303.225 201.022 299.611 207.013L299.021 206.672Z" fill="#3D0663"/>
<path d="M315.096 192.683C315.096 192.683 338.422 162.57 357.47 173.946C357.47 173.946 341.431 193.929 315.096 192.683Z" stroke="#3D0663" stroke-width="1.2609" stroke-miterlimit="10"/>
<path d="M305.951 186.006C305.951 186.006 295.796 149.294 316.311 140.847C316.311 140.847 322.715 165.658 305.951 186.006Z" stroke="#3D0663" stroke-width="1.2609" stroke-miterlimit="10"/>
<path d="M316.161 141.127C316.161 141.127 303.245 191.84 305.26 197.099L357.361 174.141" stroke="#3D0663" stroke-width="1.2609" stroke-miterlimit="10"/>
<path d="M34.6629 179.668C34.6629 179.668 5.1028 157.926 15.601 139.308C15.601 139.308 35.2312 154.275 34.6629 179.668Z" fill="#C4C3FD"/>
<path d="M57.1487 208.617C52.5071 203.669 48.1504 198.486 43.9605 193.161C39.802 187.815 35.8561 182.3 32.18 176.605C28.5045 170.911 25.1566 164.998 22.2442 158.868C20.8107 155.793 19.4587 152.678 18.3059 149.481C18.0031 148.688 17.7543 147.875 17.4758 147.073L17.071 145.865L16.711 144.643C16.4827 143.824 16.2053 143.02 16.018 142.19C15.8032 141.369 15.5862 140.541 15.7967 139.626C16.4185 140.35 16.6122 141.163 16.8087 141.981C16.9976 142.8 17.2761 143.596 17.506 144.404L17.8676 145.612L18.274 146.806C18.5536 147.6 18.8035 148.404 19.1074 149.188C20.2645 152.349 21.6214 155.436 23.0581 158.481C24.503 161.525 26.0995 164.495 27.7516 167.433C29.4139 170.365 31.1842 173.236 32.9901 176.084C36.6327 181.761 40.5495 187.265 44.6784 192.604C48.7905 197.953 53.0856 203.181 57.6415 208.148L57.1487 208.617Z" fill="#3D0663"/>
<path d="M48.5857 189.955C48.5857 189.955 27.0777 160.223 42.7604 145.702C42.7604 145.702 56.8818 165.949 48.5857 189.955Z" stroke="#3D0663" stroke-width="1.2609" stroke-miterlimit="10"/>
<path d="M39.9335 196.597C39.9335 196.597 3.24309 196.025 1 174.769C1 174.769 25.6718 175.58 39.9335 196.597Z" stroke="#3D0663" stroke-width="1.2609" stroke-miterlimit="10"/>
<path d="M1.21875 174.983C1.21875 174.983 44.5931 200.679 50.0016 200.243L42.9129 145.854" stroke="#3D0663" stroke-width="1.2609" stroke-miterlimit="10"/>
<path d="M280.063 32.8454C283.144 32.8454 285.72 30.3864 285.734 27.3057C285.734 27.2852 285.734 27.2646 285.734 27.2441C285.734 21.278 281.789 16.4416 276.923 16.4416C275.834 16.4416 274.797 16.6952 273.834 17.1378C271.866 13.0505 268.239 10.3071 264.087 10.3071C262.673 10.3071 261.32 10.6282 260.071 11.21C257.572 7.10059 253.578 4.43921 249.076 4.43921C242.835 4.43921 237.571 9.55633 235.915 16.5533C235.522 16.488 235.124 16.4421 234.717 16.4421C229.851 16.4421 225.906 21.2786 225.906 27.2447C225.906 27.2652 225.906 27.2857 225.906 27.3062C225.92 30.3875 228.496 32.8459 231.577 32.8459L280.063 32.8454Z" fill="white"/>
<path d="M159.871 46.7303C160.599 46.7303 161.193 46.1355 161.193 45.408V39.2378C161.193 38.5108 160.599 37.9155 159.871 37.9155C159.144 37.9155 158.549 38.5103 158.549 39.2378V45.408C158.549 46.135 159.144 46.7303 159.871 46.7303Z" fill="#5953BD"/>
<path d="M155.463 42.3228C155.463 43.0498 156.058 43.6451 156.785 43.6451H162.955C163.682 43.6451 164.278 43.0504 164.278 42.3228C164.278 41.5958 163.683 41.0005 162.955 41.0005H156.785C156.058 41.0005 155.463 41.5958 155.463 42.3228Z" fill="#5953BD"/>
<path d="M36.7788 97.0985C37.4567 97.3619 38.2269 97.0224 38.4897 96.3445L40.7226 90.5927C40.986 89.9148 40.6465 89.1446 39.9686 88.8818C39.2907 88.6184 38.5205 88.9579 38.2577 89.6357L36.0248 95.3876C35.7614 96.0655 36.1009 96.8357 36.7788 97.0985Z" fill="#5953BD"/>
<path d="M34.2651 91.3953C34.0017 92.0732 34.3412 92.8434 35.0191 93.1062L40.7709 95.339C41.4488 95.6024 42.219 95.2629 42.4818 94.585C42.7452 93.9071 42.4057 93.1375 41.7278 92.8741L35.976 90.6413C35.2981 90.3779 34.5279 90.7174 34.2651 91.3953Z" fill="#5953BD"/>
<path d="M305.75 87.5253C306.427 87.7887 307.198 87.4492 307.46 86.7713L309.693 81.0194C309.956 80.3416 309.617 79.5714 308.939 79.3085C308.261 79.0451 307.491 79.3846 307.228 80.0625L304.996 85.8143C304.732 86.4922 305.072 87.2624 305.75 87.5253Z" fill="#5953BD"/>
<path d="M303.236 81.822C302.972 82.4999 303.312 83.2701 303.99 83.533L309.742 85.7658C310.419 86.0292 311.19 85.6897 311.453 85.0118C311.716 84.3339 311.376 83.5637 310.699 83.3009L304.947 81.068C304.269 80.8047 303.499 81.1441 303.236 81.822Z" fill="#5953BD"/>
<path d="M79.5167 67.3618C80.2135 68.0586 81.3539 68.0586 82.0507 67.3618L87.9634 61.4492C88.6602 60.7524 88.6602 59.6119 87.9634 58.9152C87.2666 58.2184 86.1262 58.2184 85.4294 58.9152L79.5167 64.8278C78.8199 65.5246 78.8199 66.665 79.5167 67.3618Z" fill="#5953BD"/>
<path d="M79.5167 58.9151C78.8199 59.6119 78.8199 60.7523 79.5167 61.4491L85.4294 67.3617C86.1262 68.0585 87.2666 68.0585 87.9634 67.3617C88.6602 66.665 88.6602 65.5245 87.9634 64.8278L82.0507 58.9151C81.3539 58.2178 80.2135 58.2178 79.5167 58.9151Z" fill="#5953BD"/>
<path d="M103.186 44.1887C103.186 44.7743 103.665 45.2535 104.25 45.2535H109.221C109.806 45.2535 110.286 44.7743 110.286 44.1887C110.286 43.6031 109.806 43.1238 109.221 43.1238H104.25C103.665 43.1232 103.186 43.6025 103.186 44.1887Z" fill="white"/>
<path d="M106.735 40.6384C106.149 40.6384 105.67 41.1177 105.67 41.7033V46.6736C105.67 47.2592 106.149 47.7385 106.735 47.7385C107.32 47.7385 107.8 47.2592 107.8 46.6736V41.7033C107.8 41.1177 107.32 40.6384 106.735 40.6384Z" fill="white"/>
<path d="M186.926 169H158.654V204.439H186.926V169Z" fill="#5953BD"/>
<path opacity="0.5" d="M186.926 169H158.654V190.901H186.926V169Z" fill="#06309E"/>
<path d="M259.073 183.534H86.5092C82.9217 183.534 80.0137 180.626 80.0137 177.038V59.823C80.0137 56.2354 82.9217 53.3274 86.5092 53.3274H259.073C262.66 53.3274 265.568 56.2354 265.568 59.823V177.039C265.568 180.626 262.66 183.534 259.073 183.534Z" fill="#5953BD"/>
<path d="M259.073 183.534H86.5092C82.9217 183.534 80.0137 180.626 80.0137 177.038V151.878H265.568V177.038C265.568 180.626 262.66 183.534 259.073 183.534Z" fill="#06309E"/>
<path d="M248.574 159.643H97.0061C93.004 159.643 89.7598 156.399 89.7598 152.397V68.3381C89.7598 64.3361 93.004 61.0918 97.0061 61.0918H248.574C252.576 61.0918 255.82 64.3361 255.82 68.3381V152.397C255.82 156.399 252.576 159.643 248.574 159.643Z" fill="#A4A4ED"/>
<path d="M248.633 159.645H96.9473C92.9776 159.645 89.7598 156.428 89.7598 152.458V69.8721C89.7598 65.9024 92.9776 62.6846 96.9473 62.6846H248.632C252.602 62.6846 255.82 65.9024 255.82 69.8721V152.458C255.82 156.428 252.602 159.645 248.633 159.645Z" fill="#C4C3FD"/>
<path d="M170.303 173.68C170.303 175.054 171.417 176.168 172.79 176.168C174.164 176.168 175.278 175.054 175.278 173.68C175.278 172.307 174.164 171.193 172.79 171.193C171.416 171.193 170.303 172.306 170.303 173.68Z" fill="#C4C3FD"/>
<path d="M209.225 208.371H136.357C136.357 200.454 142.775 194.036 150.692 194.036H194.89C202.808 194.036 209.225 200.454 209.225 208.371Z" fill="#06309E"/>
<path opacity="0.5" d="M205.719 77.1189H114.932C110.754 77.1189 107.367 80.5062 107.367 84.6847V88.2685V143.617C107.367 147.795 110.754 151.182 114.932 151.182H205.719C209.897 151.182 213.285 147.795 213.285 143.617V88.268V84.6842C213.284 80.5062 209.897 77.1189 205.719 77.1189Z" fill="#5953BD"/>
<path d="M111.946 147.897H202.732C206.911 147.897 210.298 144.509 210.298 140.331V81.3995C210.298 77.221 206.91 73.8342 202.732 73.8342H111.946C107.768 73.8342 104.381 77.2215 104.381 81.3995V140.331C104.381 144.509 107.768 147.897 111.946 147.897Z" fill="#E3E3FF"/>
<path d="M104.381 84.9833H210.298V81.3995C210.298 77.221 206.911 73.8342 202.733 73.8342H111.946C107.768 73.8342 104.381 77.2215 104.381 81.3995V84.9833Z" fill="#5953BD"/>
<path d="M111.295 126.251H110.234V128.769H111.295V126.251Z" fill="#C4C3FD"/>
<path d="M111.295 122.501H110.234V125.019H111.295V122.501Z" fill="#C4C3FD"/>
<path d="M111.295 118.751H110.234V121.269H111.295V118.751Z" fill="#C4C3FD"/>
<path d="M111.295 115H110.234V117.518H111.295V115Z" fill="#C4C3FD"/>
<path d="M111.295 111.25H110.234V113.769H111.295V111.25Z" fill="#C4C3FD"/>
<path d="M111.295 107.5H110.234V110.018H111.295V107.5Z" fill="#C4C3FD"/>
<path d="M111.295 103.75H110.234V106.268H111.295V103.75Z" fill="#C4C3FD"/>
<path d="M128.089 87.8513H124.9V88.9124H128.089V87.8513Z" fill="#C4C3FD"/>
<path d="M132.837 87.8513H129.648V88.9124H132.837V87.8513Z" fill="#C4C3FD"/>
<path d="M137.583 87.8513H134.395V88.9124H137.583V87.8513Z" fill="#C4C3FD"/>
<path d="M142.332 87.8513H139.145V88.9124H142.332V87.8513Z" fill="#C4C3FD"/>
<path d="M147.078 87.8513H143.891V88.9124H147.078V87.8513Z" fill="#C4C3FD"/>
<path d="M151.826 87.8513H148.639V88.9124H151.826V87.8513Z" fill="#C4C3FD"/>
<path d="M156.574 87.8513H153.387V88.9124H156.574V87.8513Z" fill="#C4C3FD"/>
<path d="M161.322 87.8513H158.135V88.9124H161.322V87.8513Z" fill="#C4C3FD"/>
<path d="M166.071 87.8513H162.883V88.9124H166.071V87.8513Z" fill="#C4C3FD"/>
<path d="M170.818 87.8513H167.631V88.9124H170.818V87.8513Z" fill="#C4C3FD"/>
<path d="M175.566 87.8513H172.379V88.9124H175.566V87.8513Z" fill="#C4C3FD"/>
<path d="M180.313 87.8513H177.125V88.9124H180.313V87.8513Z" fill="#C4C3FD"/>
<path d="M185.063 87.8513H181.875V88.9124H185.063V87.8513Z" fill="#C4C3FD"/>
<path d="M189.808 87.8513H186.621V88.9124H189.808V87.8513Z" fill="#C4C3FD"/>
<path d="M206.036 102.518H204.975V105.036H206.036V102.518Z" fill="#C4C3FD"/>
<path d="M206.036 106.268H204.975V108.786H206.036V106.268Z" fill="#C4C3FD"/>
<path d="M206.036 110.018H204.975V112.536H206.036V110.018Z" fill="#C4C3FD"/>
<path d="M206.036 113.768H204.975V116.286H206.036V113.768Z" fill="#C4C3FD"/>
<path d="M206.036 117.518H204.975V120.037H206.036V117.518Z" fill="#C4C3FD"/>
<path d="M206.036 121.269H204.975V123.787H206.036V121.269Z" fill="#C4C3FD"/>
<path d="M206.036 125.019H204.975V127.537H206.036V125.019Z" fill="#C4C3FD"/>
<path d="M191.37 142.374H188.182V143.435H191.37V142.374Z" fill="#C4C3FD"/>
<path d="M186.622 142.374H183.434V143.435H186.622V142.374Z" fill="#C4C3FD"/>
<path d="M181.874 142.374H178.686V143.435H181.874V142.374Z" fill="#C4C3FD"/>
<path d="M177.125 142.374H173.938V143.435H177.125V142.374Z" fill="#C4C3FD"/>
<path d="M172.38 142.374H169.191V143.435H172.38V142.374Z" fill="#C4C3FD"/>
<path d="M167.631 142.374H164.443V143.435H167.631V142.374Z" fill="#C4C3FD"/>
<path d="M162.882 142.374H159.695V143.435H162.882V142.374Z" fill="#C4C3FD"/>
<path d="M158.137 142.374H154.949V143.435H158.137V142.374Z" fill="#C4C3FD"/>
<path d="M153.389 142.374H150.201V143.435H153.389V142.374Z" fill="#C4C3FD"/>
<path d="M148.641 142.374H145.453V143.435H148.641V142.374Z" fill="#C4C3FD"/>
<path d="M143.892 142.374H140.705V143.435H143.892V142.374Z" fill="#C4C3FD"/>
<path d="M139.145 142.374H135.957V143.435H139.145V142.374Z" fill="#C4C3FD"/>
<path d="M134.397 142.374H131.209V143.435H134.397V142.374Z" fill="#C4C3FD"/>
<path d="M129.65 142.374H126.463V143.435H129.65V142.374Z" fill="#C4C3FD"/>
<path d="M111.291 99.9814H110.23V102.696H111.291V99.9814Z" fill="#C4C3FD"/>
<path d="M111.291 95.9385H110.23V98.6527H111.291V95.9385Z" fill="#C4C3FD"/>
<path d="M111.291 91.8958H110.23V94.6106H111.291V91.8958Z" fill="#C4C3FD"/>
<path d="M111.291 87.8535H110.23V90.5678H111.291V87.8535Z" fill="#C4C3FD"/>
<path d="M115.488 87.8513H112.773V88.913H115.488V87.8513Z" fill="#C4C3FD"/>
<path d="M119.594 87.8513H116.879V88.913H119.594V87.8513Z" fill="#C4C3FD"/>
<path d="M123.574 87.8513H120.859V88.913H123.574V87.8513Z" fill="#C4C3FD"/>
<path d="M193.906 87.8469H191.191V88.9075H193.906V87.8469Z" fill="#C4C3FD"/>
<path d="M197.949 87.8469H195.234V88.9075H197.949V87.8469Z" fill="#C4C3FD"/>
<path d="M201.992 87.8469H199.277V88.9075H201.992V87.8469Z" fill="#C4C3FD"/>
<path d="M206.035 87.8469H203.32V88.9075H206.035V87.8469Z" fill="#C4C3FD"/>
<path d="M206.036 90.3884H204.975V93.1032H206.036V90.3884Z" fill="#C4C3FD"/>
<path d="M206.036 94.3828H204.975V97.0976H206.036V94.3828Z" fill="#C4C3FD"/>
<path d="M206.036 98.4746H204.975V101.189H206.036V98.4746Z" fill="#C4C3FD"/>
<path d="M206.041 128.591H204.98V131.305H206.041V128.591Z" fill="#C4C3FD"/>
<path d="M206.041 132.634H204.98V135.349H206.041V132.634Z" fill="#C4C3FD"/>
<path d="M206.041 136.676H204.98V139.39H206.041V136.676Z" fill="#C4C3FD"/>
<path d="M206.041 140.719H204.98V143.434H206.041V140.719Z" fill="#C4C3FD"/>
<path d="M203.5 142.374H200.785V143.435H203.5V142.374Z" fill="#C4C3FD"/>
<path d="M195.413 142.374H192.699V143.435H195.413V142.374Z" fill="#C4C3FD"/>
<path d="M199.482 142.374H196.768V143.435H199.482V142.374Z" fill="#C4C3FD"/>
<path d="M125.08 142.38H122.365V143.44H125.08V142.38Z" fill="#C4C3FD"/>
<path d="M121.037 142.38H118.322V143.44H121.037V142.38Z" fill="#C4C3FD"/>
<path d="M116.994 142.38H114.279V143.44H116.994V142.38Z" fill="#C4C3FD"/>
<path d="M112.951 142.38H110.236V143.44H112.951V142.38Z" fill="#C4C3FD"/>
<path d="M111.296 138.184H110.234V140.898H111.296V138.184Z" fill="#C4C3FD"/>
<path d="M111.296 130.098H110.234V132.812H111.296V130.098Z" fill="#C4C3FD"/>
<path d="M111.296 134.055H110.234V136.77H111.296V134.055Z" fill="#C4C3FD"/>
<path d="M198.029 79.5331C198.029 81.141 199.333 82.4449 200.941 82.4449C202.549 82.4449 203.853 81.1415 203.853 79.5331C203.853 77.9248 202.549 76.6213 200.941 76.6213C199.333 76.6213 198.029 77.9248 198.029 79.5331Z" fill="#E3E3FF"/>
<path d="M190.041 79.5331C190.041 81.141 191.344 82.4449 192.953 82.4449C194.561 82.4449 195.865 81.1415 195.865 79.5331C195.865 77.9248 194.561 76.6213 192.953 76.6213C191.345 76.6213 190.041 77.9248 190.041 79.5331Z" fill="#E3E3FF"/>
<path d="M182.053 79.5331C182.053 81.141 183.357 82.4449 184.965 82.4449C186.572 82.4449 187.876 81.1415 187.876 79.5331C187.876 77.9248 186.573 76.6213 184.965 76.6213C183.357 76.6213 182.053 77.9248 182.053 79.5331Z" fill="#E3E3FF"/>
<path d="M162.766 109.872H154.006V130.976H162.766V109.872Z" fill="#C4C3FD"/>
<path d="M167.742 114.849H149.027L158.185 102.306L167.742 114.849Z" fill="#C4C3FD"/>
<path d="M256.289 112.546C256.289 112.546 259.58 110.391 264.147 110.877L263.047 113.027L260.034 114.197L256.289 112.546Z" fill="#5C9EC6"/>
<path d="M260.58 108.416L257.184 109.285C257.184 109.285 258.676 118.967 260.997 125.917C262.913 124.779 264.769 123.55 266.542 122.203C264.49 116.954 260.58 108.416 260.58 108.416Z" fill="#DA7B5B"/>
<path d="M260.986 109.463C260.986 109.463 262.864 107.686 262.451 104.653C262.037 101.619 260.62 105.38 260.62 105.38C260.62 105.38 259.047 104.931 258.789 101.054C258.532 97.1786 257.011 101.766 257.349 103.753C257.349 103.753 256.913 99.5944 256.49 99.5377C256.065 99.481 255.346 101.629 256.108 104.321C256.108 104.321 255.157 101.431 254.591 101.787C254.026 102.142 253.944 109.512 257.757 110.368C261.57 111.225 260.986 109.463 260.986 109.463Z" fill="#DA7B5B"/>
<path d="M264.147 113.568C264.147 113.891 269.637 127.239 270.067 130.038C270.067 130.038 292.701 121.868 294.718 127.346C297.709 135.469 276.203 141.018 268.345 140.91C260.487 140.802 257.58 114.644 257.58 114.644L264.147 113.568Z" fill="#463C70"/>
<path d="M264.147 110.877L265.116 114.483C265.116 114.483 261.725 116.905 257.043 116.313L256.289 112.545C256.289 112.545 260.756 112.976 264.147 110.877Z" fill="#73B7EA"/>
<path d="M270.069 130.038C270.069 130.038 269.436 131.827 266.715 132.907C266.715 132.907 270.006 132.185 270.069 130.038Z" fill="#06309E"/>
<path d="M270.424 130.073C270.424 130.073 271.009 132.794 269.322 134.637C269.322 134.637 271.954 132.501 270.424 130.073Z" fill="#06309E"/>
<path d="M284.678 57.937H210.217V130.407H284.678V57.937Z" fill="white"/>
<path d="M278.372 64.5071H217.719V123.538H278.372V64.5071Z" fill="#BCDFFD"/>
<path d="M217.719 123.538H278.372C278.372 123.538 266.959 91.2848 254.118 109.801C254.118 109.801 243.367 91.5839 233.512 93.0767C223.656 94.5701 217.719 123.538 217.719 123.538Z" fill="#35C3A9"/>
<path d="M262.355 88.8052C264.943 84.5874 263.621 79.0708 259.403 76.4834C255.185 73.896 249.669 75.2177 247.081 79.4355C244.494 83.6533 245.816 89.17 250.033 91.7574C254.251 94.3448 259.768 93.023 262.355 88.8052Z" fill="#FAB52C"/>
<path d="M263.035 116.189C263.035 116.189 266.326 114.035 270.894 114.521L269.794 116.67L266.78 117.84L263.035 116.189Z" fill="#5C9EC6"/>
<path d="M291.732 124.35C291.732 124.35 286.031 126.925 283.197 133.401C280.363 139.878 272.268 170.642 272.268 170.642C272.268 170.642 277.935 175.365 285.221 173.341C292.507 171.317 291.732 124.35 291.732 124.35Z" fill="#463C70"/>
<path d="M267.326 112.06L263.93 112.928C263.93 112.928 265.423 122.611 267.743 129.561C269.659 128.422 271.516 127.193 273.289 125.847C271.236 120.597 267.326 112.06 267.326 112.06Z" fill="#DA7B5B"/>
<path d="M267.732 113.107C267.732 113.107 269.61 111.33 269.197 108.296C268.784 105.263 267.366 109.024 267.366 109.024C267.366 109.024 265.793 108.574 265.536 104.698C265.278 100.822 263.757 105.409 264.095 107.396C264.095 107.396 263.659 103.238 263.236 103.181C262.812 103.124 262.092 105.272 262.854 107.964C262.854 107.964 261.903 105.074 261.338 105.43C260.772 105.786 260.69 113.156 264.504 114.012C268.316 114.868 267.732 113.107 267.732 113.107Z" fill="#DA7B5B"/>
<path d="M284.488 221.478C284.488 221.478 285.87 227.003 280.506 229.36C275.143 231.717 281.888 232.854 284.407 231.473C286.925 230.092 288.47 229.198 286.601 221.966C284.732 214.733 284.488 221.478 284.488 221.478Z" fill="#FAB52C"/>
<path d="M296.605 221.478C296.605 221.478 297.987 227.003 292.623 229.36C287.26 231.717 294.005 232.854 296.524 231.473C299.043 230.092 300.587 229.198 298.718 221.966C296.849 214.733 296.605 221.478 296.605 221.478Z" fill="#FAB52C"/>
<path d="M302.203 156.699C302.203 156.699 292.695 161.734 283.594 156.699C283.594 156.699 279.511 172.465 282.131 205.597L283.432 224.029C283.432 224.029 286.194 225.565 288.307 224.542L291.233 177.778H292.858L295.133 224.201C295.133 224.201 298.059 225.224 300.009 223.688C300.009 223.688 308.459 176.9 302.203 156.699Z" fill="#06309E"/>
<path d="M283.467 166.504C283.467 166.504 290.663 170.912 301.548 167.224C301.548 167.224 290.034 169.113 283.467 166.504Z" fill="#C4C3FD"/>
<path d="M290.844 170.012L291.203 176.13L292.553 176.219L292.913 170.012H290.844Z" fill="#C4C3FD"/>
<path d="M296.083 170.44C296.083 170.44 294.531 178.541 302.424 179.278C302.424 179.278 296.42 177.125 296.083 170.44Z" fill="#C4C3FD"/>
<path d="M289.078 170.44C289.078 170.44 290.63 178.541 282.736 179.278C282.736 179.278 288.741 177.125 289.078 170.44Z" fill="#C4C3FD"/>
<path d="M281.535 163.617C281.535 163.617 282.58 157.85 283.062 151.077C283.627 143.146 283.906 133.688 288.122 128.274C289.25 126.825 290.842 126.121 292.44 125.44L293.586 124.627C297.847 124.332 301.756 126.984 303.063 131.052C304.892 136.749 306.179 146.674 303.444 163.177C303.444 163.177 291.742 169.249 281.535 163.617Z" fill="#73B7EA"/>
<path d="M282.387 162.141C282.387 162.141 288.594 165.38 299.995 162.276C299.995 162.276 285.962 163.356 282.387 162.141Z" fill="#06309E"/>
<path d="M289.982 127.317C289.982 127.317 288.959 131.541 296.69 129.509C296.69 129.509 289.75 130.279 289.982 127.317Z" fill="#06309E"/>
<path d="M291.628 120.309L291.58 125.746C291.56 128.102 293.771 129.862 296.053 129.278C296.088 129.269 296.122 129.26 296.157 129.25C297.629 128.849 298.675 127.541 298.776 126.019L299.237 119.115L291.628 120.309Z" fill="#DA7B5B"/>
<path d="M291.627 120.309L291.586 125.045C292.338 125.433 293.213 125.523 294.089 125.231C295.818 124.676 297.522 123.812 298.999 122.674L299.237 119.115L291.627 120.309Z" fill="#C15F44"/>
<path d="M302.978 115.072C302.978 115.072 306.978 111.639 307.845 115.518C308.819 119.872 300.463 121.075 300.95 118.317C301.437 115.559 302.897 114.951 302.978 115.072Z" fill="#DA7B5B"/>
<path d="M299.737 98.6263C295.522 97.874 291.342 100.168 289.585 104.073C286.957 109.914 283.757 119.995 291.368 122.716C299.282 125.547 304.296 116.656 306.452 111.567C307.579 108.904 307.435 105.861 306.027 103.335C304.872 101.263 302.939 99.1979 299.737 98.6263Z" fill="#DA7B5B"/>
<path d="M306.027 103.335C304.872 101.263 302.939 99.1979 299.737 98.6263C295.522 97.874 291.342 100.168 289.585 104.073C289.502 104.258 289.418 104.448 289.334 104.642C292.092 106.871 296.154 107.321 299.761 107.164C299.599 108.299 299.437 109.597 300.086 110.571C300.735 111.544 302.195 111.22 303.168 110.408C302.357 112.031 300.086 113.816 301.708 115.6C302.351 116.386 303.151 116.574 303.956 116.413C305.014 114.727 305.846 112.998 306.451 111.567C307.579 108.904 307.435 105.861 306.027 103.335Z" fill="#C15F44"/>
<path d="M299.627 116.549C299.433 117.504 298.502 118.121 297.547 117.927C296.592 117.734 295.975 116.802 296.168 115.847C296.362 114.893 297.293 114.275 298.248 114.469C299.203 114.663 299.821 115.594 299.627 116.549Z" fill="#C15F44"/>
<path d="M290.93 113.933C290.72 114.969 289.71 115.638 288.674 115.429C287.638 115.219 286.969 114.208 287.179 113.172C287.389 112.137 288.399 111.467 289.435 111.677C290.471 111.888 291.14 112.898 290.93 113.933Z" fill="#C15F44"/>
<path d="M293.865 109.174C293.865 109.174 291.905 112.567 292.118 113.818C292.33 115.068 294.045 114.866 294.045 114.866C294.045 114.866 292.553 114.59 292.485 113.574C292.419 112.608 293.865 109.174 293.865 109.174Z" fill="#06309E"/>
<path d="M296.365 116.268C296.365 116.268 294.815 117.33 292.659 116.681C290.504 116.032 290.096 114.911 290.096 114.911C290.096 114.911 290.429 116.61 292.724 117.097C295.018 117.584 296.365 116.268 296.365 116.268Z" fill="#06309E"/>
<path d="M291.348 110.773C291.21 111.451 290.747 111.931 290.314 111.843C289.881 111.755 289.641 111.133 289.779 110.454C289.917 109.776 290.38 109.297 290.813 109.385C291.247 109.473 291.486 110.094 291.348 110.773Z" fill="#06309E"/>
<path d="M296.082 112.326C295.944 113.005 296.184 113.626 296.617 113.714C297.051 113.802 297.513 113.324 297.651 112.645C297.788 111.966 297.549 111.345 297.115 111.256C296.683 111.169 296.219 111.648 296.082 112.326Z" fill="#06309E"/>
<path d="M300.458 110.709C300.241 111.118 299.631 110.57 298.62 110.035C297.61 109.5 296.58 109.178 296.797 108.77C297.013 108.361 298.008 108.464 299.019 109C300.03 109.535 300.674 110.301 300.458 110.709Z" fill="#FFC5E1"/>
<path d="M292.144 107.619C292.154 108.082 291.354 107.9 290.211 107.925C289.067 107.949 288.012 108.169 288.002 107.707C287.992 107.245 288.911 106.85 290.055 106.826C291.199 106.802 292.134 107.157 292.144 107.619Z" fill="#FFC5E1"/>
<path d="M303.654 109.976C303.654 109.976 298.625 112.355 301.113 107.055C301.113 107.055 284.727 106.082 285.7 101.755C286.674 97.4287 292.244 97.8615 292.244 97.8615C292.244 97.8615 288.945 94.4542 292.027 92.5614C295.109 90.6686 308.359 94.8326 310.252 103.594C310.252 103.594 311.712 102.621 312.037 103.431C312.361 104.243 310.468 104.513 310.468 104.513C310.468 104.513 312.794 109.651 307.764 113.923C302.735 118.196 300.193 116.411 303.654 109.976Z" fill="#FFC5E1"/>
<path d="M270.893 117.212C270.893 117.534 276.383 130.883 276.813 133.681C276.813 133.681 299.447 125.512 301.464 130.99C304.455 139.113 282.949 144.661 275.091 144.554C267.233 144.446 264.326 118.288 264.326 118.288L270.893 117.212Z" fill="#463C70"/>
<path d="M270.893 114.52L271.862 118.126C271.862 118.126 268.471 120.548 263.789 119.956L263.035 116.188C263.035 116.188 267.502 116.62 270.893 114.52Z" fill="#73B7EA"/>
<path d="M286.525 176.04C286.525 176.04 293.079 145.403 292.311 130.43C292.243 129.106 293.123 127.915 294.405 127.583C296.106 127.142 298.235 126.274 298.894 124.631C298.894 124.631 308.564 125.71 307.215 156.205L305.596 177.794C305.596 177.794 289.494 180.087 286.525 176.04Z" fill="#463C70"/>
<path d="M291.338 99.5784C291.338 99.5784 288.954 104.166 302.133 105.785C302.133 105.785 291.249 103.356 291.338 99.5784Z" fill="white"/>
<path d="M294.351 97.9144C294.351 97.9144 290.933 94.9459 293.092 93.4169C295.251 91.8878 306.36 100.028 306.36 100.028C306.36 100.028 295.026 93.4617 293.767 94.4963C292.507 95.5304 294.351 97.9144 294.351 97.9144Z" fill="white"/>
<path d="M303.076 118.098C303.076 118.098 303.739 114.904 306.596 116.647C306.596 116.647 304.302 115.804 303.076 118.098Z" fill="#06309E"/>
<path d="M304.055 116.828C304.055 116.828 304.774 117.469 304.606 118.334C304.606 118.334 305.112 117.3 304.403 116.603L304.055 116.828Z" fill="#06309E"/>
<path d="M276.815 133.681C276.815 133.681 276.182 135.471 273.461 136.55C273.461 136.55 276.752 135.828 276.815 133.681Z" fill="#06309E"/>
<path d="M277.17 133.716C277.17 133.716 277.755 136.437 276.068 138.281C276.068 138.281 278.7 136.145 277.17 133.716Z" fill="#06309E"/>
<path d="M274.967 169.563C274.967 169.563 280.094 145.41 281.713 144.466C281.713 144.466 276.856 166.055 274.967 169.563Z" fill="#06309E"/>
<path d="M293.002 140.597L300.918 137.539C300.918 137.539 296.24 141.048 293.002 140.597Z" fill="#06309E"/>
<path d="M294.936 142.711L291.293 174.42C291.293 174.42 296.15 150.402 294.936 142.711Z" fill="#06309E"/>
<path d="M268.963 115.725L269.874 118.863C269.874 118.863 269.57 115.86 268.963 115.725Z" fill="#06309E"/>
<path d="M266.736 116.299L267.647 119.436C267.647 119.436 267.344 116.434 266.736 116.299Z" fill="#06309E"/>
<path d="M264.105 116.67L265.017 119.807C265.017 119.807 264.713 116.805 264.105 116.67Z" fill="#06309E"/>
<path d="M84.8644 230.622C83.4201 230.28 82.5274 228.83 82.8701 227.386L111.434 107.094C111.777 105.65 113.226 104.757 114.671 105.1C116.115 105.443 117.008 106.892 116.665 108.336L88.1006 228.628C87.7573 230.072 86.3087 230.965 84.8644 230.622Z" fill="#562F5E"/>
<path d="M49.6242 230.622C48.1799 230.28 47.2872 228.83 47.6299 227.386L76.1942 107.094C76.5369 105.65 77.9861 104.757 79.4304 105.1C80.8747 105.443 81.7674 106.892 81.4247 108.336L52.8603 228.628C52.5176 230.072 51.0685 230.965 49.6242 230.622Z" fill="#562F5E"/>
<path d="M111.614 115.301H74.7812V119.482H111.614V115.301Z" fill="#562F5E"/>
<path d="M106.438 136.803H69.6055V140.984H106.438V136.803Z" fill="#562F5E"/>
<path d="M102.655 156.911H65.8223V161.092H102.655V156.911Z" fill="#562F5E"/>
<path d="M96.8812 179.408H60.0488V183.589H96.8812V179.408Z" fill="#562F5E"/>
<path d="M91.307 204.096H54.4746V208.277H91.307V204.096Z" fill="#562F5E"/>
<path d="M102.673 62.2145C102.673 62.2145 100.785 60.4291 101.2 57.3802C101.616 54.3319 102.477 58.8137 102.477 58.8137C102.477 58.8137 104.62 57.6587 104.88 53.7641C105.138 49.8689 106.667 54.4787 106.328 56.4762C106.328 56.4762 106.765 52.2971 107.191 52.2399C107.617 52.1827 108.34 54.341 107.575 57.0467C107.575 57.0467 108.53 54.1424 109.099 54.5002C109.667 54.8575 109.749 62.2642 105.917 63.1245C102.085 63.9848 102.673 62.2145 102.673 62.2145Z" fill="#FBBD8E"/>
<path d="M147.517 0H73.0566V72.4697H147.517V0Z" fill="white"/>
<path d="M141.21 6.57007H80.5566V65.6012H141.21V6.57007Z" fill="#BCDFFD"/>
<path d="M80.5566 65.6012H141.21C141.21 65.6012 129.797 33.3478 116.956 51.8636C116.956 51.8636 106.205 33.6468 96.3495 35.1397C86.4947 36.6331 80.5566 65.6012 80.5566 65.6012Z" fill="#35C3A9"/>
<path d="M125.193 30.867C127.781 26.6492 126.459 21.1325 122.241 18.5451C118.023 15.9578 112.507 17.2795 109.919 21.4973C107.332 25.7151 108.654 31.2318 112.871 33.8192C117.089 36.4065 122.606 35.0848 125.193 30.867Z" fill="#FAB52C"/>
<path d="M59.2045 56.3298C61.0693 54.4802 62.4607 52.195 63.1531 49.6615C64.1846 45.8867 67.4213 40.4182 77.5206 40.4798C92.9264 40.5737 88.7932 55.7917 90.8598 57.0131C92.9264 58.2345 105.327 66.5948 95.1809 71.1981C95.1809 71.1981 97.8115 78.1498 74.796 77.3979C51.7806 76.6466 58.5444 68.8492 58.5444 68.8492C58.5444 68.8492 47.7079 67.7336 59.2045 56.3298Z" fill="#06309E"/>
<path d="M98.0172 72.595C96.7942 75.6002 95.8151 78.2421 95.8588 78.9016L88.7998 75.8571L84.9629 81.7498C84.9856 81.9203 93.7728 86.6413 98.3858 85.6762C100.812 85.1684 102.929 78.6561 104.39 72.595H98.0172Z" fill="#FBBD8E"/>
<path d="M85.1197 87.1156C85.1197 87.1156 72.2505 80.6514 75.4813 72.9279C78.7121 65.2045 93.1751 74.6955 93.1751 74.6955C93.1751 74.6955 93.7072 82.2927 85.1197 87.1156Z" fill="#EA9B1C"/>
<path d="M91.3566 73.4871C91.3566 73.4871 90.349 82.1156 83.4961 86.2801L85.7219 87.5506C85.7219 87.5506 92.1619 84.7398 93.4162 74.7257L91.3566 73.4871Z" fill="#DD870B"/>
<path d="M86.2986 171.231C86.2986 171.231 84.7852 177.284 90.6601 179.865C96.535 182.447 89.1468 183.693 86.3872 182.18C83.6281 180.666 81.9366 179.687 83.9838 171.765C86.0315 163.843 86.2986 171.231 86.2986 171.231Z" fill="#35C3A9"/>
<path d="M73.0253 171.231C73.0253 171.231 71.5119 177.284 77.3868 179.865C83.2617 182.447 75.8734 183.693 73.1138 182.18C70.3542 180.666 68.6633 179.687 70.7104 171.765C72.7581 163.843 73.0253 171.231 73.0253 171.231Z" fill="#35C3A9"/>
<path d="M66.8929 101.622C66.8929 101.622 77.3074 106.874 87.2771 101.622C87.2771 101.622 96.1783 115.954 88.8796 152.627L87.4553 171.854C87.4553 171.854 84.429 173.456 82.1147 172.388L78.9104 123.608H77.1303L74.6379 172.032C74.6379 172.032 71.4336 173.1 69.2973 171.498C69.2963 171.498 56.6565 121.116 66.8929 101.622Z" fill="#06309E"/>
<path d="M65.2242 104.45C65.2242 104.45 65.6705 99.7554 65.2242 94.097C64.5447 85.4857 63.5996 74.2411 70.059 70.7528C80.7634 64.9724 88.6849 75.9979 88.8986 81.8852C89.1129 87.7725 88.0421 92.6969 89.434 101.902C89.434 101.902 80.5318 111.408 65.2242 104.45Z" fill="#FDB32C"/>
<path d="M68.7046 60.1598C68.7046 60.1598 66.7633 56.6684 64.7436 58.641C62.724 60.6137 66.8259 65.7492 69.4565 62.5551C72.0865 59.3616 68.7046 60.1598 68.7046 60.1598Z" fill="#FBBD8E"/>
<path d="M72.3223 65.5144V71.4379C72.3223 72.9577 73.8238 74.2191 75.6842 74.204C75.8677 74.2023 76.0571 74.1932 76.2525 74.1754C77.9521 74.0194 79.2269 72.8266 79.2269 71.4292V65.8215L72.3223 65.5144Z" fill="#FBBD8E"/>
<path d="M77.7125 71.7158C78.2144 71.7449 78.7196 71.7509 79.2269 71.7406V65.8905L72.3223 65.5149V68.9367C73.7137 70.4928 75.6059 71.5938 77.7125 71.7158Z" fill="#E5A173"/>
<path d="M71.7831 45.1634C68.8902 46.9926 67.1846 50.2169 67.2132 53.6392C67.2629 59.5201 68.6419 69.2065 77.3644 69.444C86.5704 69.6944 85.9983 59.5967 86.1635 52.9732C86.3567 45.2201 78.8 41.0259 72.1166 44.96C72.0055 45.0253 71.8943 45.0933 71.7831 45.1634Z" fill="#FBBD8E"/>
<path d="M72.0253 44.1429C71.9141 44.2001 71.8029 44.2595 71.6918 44.321C70.8325 44.7965 70.0812 45.3816 69.446 46.0449C68.3498 49.3852 72.9709 52.9938 76.0209 53.6215C79.4168 54.3151 84.0995 53.2928 86.0727 51.1404C86.2546 44.3653 78.7038 40.7027 72.0253 44.1429Z" fill="#E5A173"/>
<path d="M66.3977 56.7449C66.3977 56.7449 68.7978 62.2312 71.1407 61.3741C73.4837 60.517 68.7978 52.3446 70.3409 50.1732C70.3409 50.1732 80.6847 61.0886 87.1425 48.0014C87.1425 48.0014 85.5422 41.2009 75.2556 42.5723C64.9685 43.9438 66.3977 56.7449 66.3977 56.7449Z" fill="#06309E"/>
<path d="M72.2793 62.9187C72.2793 63.9572 73.1213 64.7991 74.1597 64.7991C75.1981 64.7991 76.0401 63.9572 76.0401 62.9187C76.0401 61.8803 75.1981 61.0383 74.1597 61.0383C73.1213 61.0383 72.2793 61.8803 72.2793 62.9187Z" fill="#E28174"/>
<path d="M81.3105 62.1851C81.3105 63.2235 82.1525 64.0655 83.1909 64.0655C84.2294 64.0655 85.0713 63.2235 85.0713 62.1851C85.0713 61.1467 84.2294 60.3047 83.1909 60.3047C82.152 60.3047 81.3105 61.1467 81.3105 62.1851Z" fill="#E28174"/>
<path d="M79.1416 56.1675C79.1416 56.1675 80.4688 60.1274 79.9825 61.3882C79.4957 62.649 77.748 62.0742 77.748 62.0742C77.748 62.0742 79.364 62.1023 79.6506 61.0568C79.9231 60.061 79.1416 56.1675 79.1416 56.1675Z" fill="#06309E"/>
<path d="M74.9668 62.4805C74.9668 62.4805 76.4154 63.975 78.8987 63.745C81.382 63.5151 82.0717 62.3882 82.0717 62.3882C82.0717 62.3882 81.3361 64.1585 78.7378 64.1817C76.1396 64.2049 74.9668 62.4805 74.9668 62.4805Z" fill="#06309E"/>
<path d="M81.4297 58.3705C81.4297 59.1083 81.8118 59.7069 82.283 59.7069C82.7542 59.7069 83.1363 59.1089 83.1363 58.3705C83.1363 57.6327 82.7542 57.0342 82.283 57.0342C81.8118 57.0347 81.4297 57.6327 81.4297 58.3705Z" fill="#06309E"/>
<path d="M82.2832 57.0348C82.2832 57.0348 84.4313 56.7061 84.4313 57.0348C84.4313 57.3634 82.7252 57.5901 82.7252 57.5901L82.2832 57.0348Z" fill="#06309E"/>
<path d="M75.3045 60.3265C75.7757 60.3265 76.1578 59.7282 76.1578 58.9902C76.1578 58.2521 75.7757 57.6538 75.3045 57.6538C74.8332 57.6538 74.4512 58.2521 74.4512 58.9902C74.4512 59.7282 74.8332 60.3265 75.3045 60.3265Z" fill="#06309E"/>
<path d="M75.3043 57.6539C75.3043 57.6539 73.1562 57.3252 73.1562 57.6539C73.1562 57.9826 74.8623 58.2087 74.8623 58.2087L75.3043 57.6539Z" fill="#06309E"/>
<path d="M71.9292 56.3735C72.0685 56.8463 72.8219 56.4037 73.991 56.0588C75.1606 55.714 76.3032 55.5963 76.1639 55.124C76.0247 54.6512 74.9636 54.5476 73.794 54.893C72.6244 55.2385 71.79 55.9007 71.9292 56.3735Z" fill="#06309E"/>
<path d="M81.2689 54.9087C81.1604 55.3896 82.0337 55.3696 83.2232 55.6373C84.4128 55.905 85.4679 56.3589 85.5764 55.878C85.6849 55.3971 84.8084 54.7905 83.6188 54.5228C82.4293 54.2551 81.3774 54.4278 81.2689 54.9087Z" fill="#06309E"/>
<path d="M65.5273 60.4729C65.5273 60.4729 68.0792 59.3297 68.1418 62.1795C68.1418 62.1795 67.7974 60.0033 65.5273 60.4729Z" fill="#06309E"/>
<path d="M67.3596 60.551C67.3596 60.551 66.4518 60.7388 66.4043 62.0072C66.4043 62.0072 66.7173 60.598 67.704 60.8797L67.3596 60.551Z" fill="#06309E"/>
<path d="M91.6234 64.2052C91.6234 64.2052 89.736 62.4193 90.1516 59.3709C90.5672 56.3226 92.2705 59.9986 92.2705 59.9986C92.2705 59.9986 93.5718 59.65 93.8303 55.7548C94.0889 51.8596 95.6179 56.4694 95.2784 58.4669C95.2784 58.4669 95.7156 54.2878 96.142 54.2306C96.5678 54.1734 97.291 56.3323 96.5257 59.0368C96.5257 59.0368 97.481 56.1326 98.0493 56.4904C98.6177 56.8483 98.6997 64.2543 94.8677 65.1147C91.0367 65.9755 91.6234 64.2052 91.6234 64.2052Z" fill="#FBBD8E"/>
<path d="M88.9698 84.6448C88.9698 84.6448 81.4866 88.5529 70.0957 85.5596C70.0957 85.5596 80.4892 89.9664 88.9698 84.6448Z" fill="#06309E"/>
<path d="M73.9121 83.7413C73.9348 83.9119 82.722 88.6328 87.335 87.6678C91.948 86.7022 95.4433 64.0263 95.4433 64.0263L92.0301 63.1536C92.0301 63.1536 84.6931 79.1736 84.8075 80.8932L77.7485 77.8486L73.9121 83.7413Z" fill="#FBBD8E"/>
<path d="M80.8618 71.5911C80.8618 71.5911 80.8618 75.2704 75.0625 75.1457C75.0625 75.1457 80.987 76.081 80.8618 71.5911Z" fill="#06309E"/>
<path d="M74.0709 89.1066C74.0709 89.1066 61.2017 82.6423 64.4325 74.9189C67.6633 67.196 82.1262 76.6865 82.1262 76.6865C82.1262 76.6865 82.6584 84.2836 74.0709 89.1066Z" fill="#FDB32C"/>
<path d="M80.3078 75.4783C80.3078 75.4783 79.3001 84.1068 72.4473 88.2713L74.6731 89.5418C74.6731 89.5418 81.1125 86.731 82.3668 76.7169L80.3078 75.4783Z" fill="#DD870B"/>
<path d="M66.1875 103.956C66.1875 103.956 78.4932 109.901 88.6368 101.794C88.6368 101.794 79.3244 107.531 66.1875 103.956Z" fill="#06309E"/>
<path d="M82.9773 45.8345C82.9773 45.8345 85.7974 53.4543 76.4375 52.9739C76.4375 52.9739 83.3972 52.8541 82.9773 45.8345Z" fill="#4646A5"/>
<path d="M79.8634 110.441C79.8634 110.441 79.8634 121.499 79.2816 121.749C78.6998 121.998 77.9512 110.441 77.9512 110.441H79.8634Z" fill="#C4C3FD"/>
<path d="M66.5195 107.448C66.5195 107.448 79.1577 111.604 87.9708 106.366C87.9708 106.366 80.1556 110.524 66.5195 107.448Z" fill="#C4C3FD"/>
<path d="M65.7793 122.517C65.7793 122.517 72.7957 121.887 72.5258 110.193C72.5258 110.193 70.8165 120.897 65.7793 122.517Z" fill="#C4C3FD"/>
<path d="M89.9846 122.517C89.9846 122.517 82.9682 121.887 83.2381 110.193C83.2381 110.193 84.9474 120.897 89.9846 122.517Z" fill="#C4C3FD"/>
<path d="M64.8786 52.1055C64.8786 52.1055 53.4094 62.8999 59.0091 66.5431C59.0091 66.5431 56.3779 61.4832 64.8786 52.1055Z" fill="#4646A5"/>
<path d="M62.9908 74.639C63.1775 74.7421 57.0538 71.3332 63.598 66.4082C63.598 66.4082 58.4706 72.1428 62.9908 74.639Z" fill="#4646A5"/>
<defs>
<linearGradient id="paint0_linear_1_2448" x1="12.2559" y1="114.06" x2="349.043" y2="114.06" gradientUnits="userSpaceOnUse">
<stop stop-color="#FFB4D1"/>
<stop offset="1" stop-color="#FF90BB"/>
</linearGradient>
</defs>
</svg>
