<svg width="305" height="196" viewBox="0 0 305 196" fill="none" xmlns="http://www.w3.org/2000/svg">
<path d="M43.3976 0H260.851C264.993 0 268.35 3.35764 268.35 7.49913V126.531V154.153H35.8984V126.531V7.4988C35.8984 3.35731 39.2561 0 43.3976 0Z" fill="#1A1A1A"/>
<path opacity="0.2" d="M43.3979 0H117.517C119.286 6.56537 120.236 13.4669 120.236 20.5916C120.236 64.177 84.9031 99.5102 41.3176 99.5102C39.4956 99.5102 37.6897 99.4428 35.8984 99.3214V7.4988C35.8988 3.35731 39.2564 0 43.3979 0Z" fill="url(#paint0_linear_1_2710)"/>
<path d="M256.576 134.03V143.68H47.6719V134.03V10.4714H256.576V134.03Z" fill="white"/>
<path opacity="0.25" d="M84.5742 111.664L207.427 111.761L207.459 101.629L84.6053 101.532L84.5742 111.664Z" fill="url(#paint1_linear_1_2710)"/>
<path d="M199.98 85.3758C199.905 76.9305 205.961 68.4868 205.887 60.0415H86.4566C74.8331 60.0415 65.4102 69.4644 65.4102 81.088C65.4102 92.7116 74.8331 102.134 86.4566 102.134H205.887C205.904 101.63 200.024 90.4579 199.98 85.3758Z" fill="#06309E"/>
<path d="M82.873 90.8501V71.3262H87.0135C88.6218 71.3262 89.8423 71.7651 90.6742 72.6422C91.5059 73.5196 91.9219 74.763 91.9219 76.3716V85.5029C91.9219 87.3312 91.4784 88.6796 90.5921 89.5475C89.7052 90.4161 88.43 90.8501 86.7668 90.8501H82.873ZM85.67 73.9585V88.2178H86.9589C87.7447 88.2178 88.3027 88.0217 88.6317 87.6283C88.9609 87.2352 89.1252 86.6183 89.1252 85.7772V76.3716C89.1252 75.6038 88.9697 75.0098 88.6591 74.5892C88.3479 74.169 87.7817 73.9585 86.9589 73.9585H85.67Z" fill="white"/>
<path d="M94.3906 75.9328C94.3906 75.147 94.5278 74.4522 94.802 73.849C95.0763 73.2458 95.4415 72.7431 95.8988 72.3408C96.3377 71.9569 96.8354 71.6647 97.3931 71.4634C97.9505 71.2624 98.5128 71.1616 99.0793 71.1616C99.6459 71.1616 100.208 71.2621 100.766 71.4634C101.323 71.6647 101.831 71.9569 102.288 72.3408C102.727 72.7431 103.083 73.2458 103.357 73.849C103.632 74.4522 103.769 75.147 103.769 75.9328V86.2433C103.769 87.0661 103.632 87.7701 103.357 88.3546C103.083 88.9398 102.727 89.4242 102.288 89.8081C101.831 90.2104 101.323 90.5121 100.766 90.7131C100.208 90.914 99.6459 91.0148 99.0793 91.0148C98.5125 91.0148 97.9502 90.914 97.3931 90.7131C96.8351 90.5121 96.3373 90.2107 95.8988 89.8081C95.4415 89.4242 95.0763 88.9398 94.802 88.3546C94.5278 87.7701 94.3906 87.0658 94.3906 86.2433V75.9328ZM97.1876 86.2433C97.1876 86.9198 97.3748 87.4183 97.7499 87.7377C98.1243 88.0578 98.5678 88.2175 99.0797 88.2175C99.5912 88.2175 100.035 88.0578 100.41 87.7377C100.784 87.4179 100.972 86.9198 100.972 86.2433V75.9328C100.972 75.2566 100.784 74.7585 100.41 74.4384C100.035 74.1187 99.5915 73.9586 99.0797 73.9586C98.5678 73.9586 98.1243 74.119 97.7499 74.4384C97.3748 74.7585 97.1876 75.2566 97.1876 75.9328V86.2433Z" fill="white"/>
<path d="M120.414 71.3262L117.507 90.8501H114.875L112.736 78.1815H112.682L110.57 90.8501H107.938L105.031 71.3262H107.993L109.391 83.7209H109.446L111.64 71.3262H113.779L116.055 84.0223H116.109L117.453 71.3262H120.414Z" fill="white"/>
<path d="M122.059 90.8501V71.3262H124.746L128.969 83.0898H129.024V71.3262H131.821V90.8501H129.189L124.911 79.1136H124.856V90.8501H122.059Z" fill="white"/>
<path d="M134.342 90.8501V71.3262H137.139V88.0531H142.678V90.8501H134.342Z" fill="white"/>
<path d="M144.324 75.9328C144.324 75.147 144.461 74.4522 144.736 73.849C145.01 73.2458 145.375 72.7431 145.832 72.3408C146.271 71.9569 146.769 71.6647 147.327 71.4634C147.884 71.2624 148.446 71.1616 149.013 71.1616C149.579 71.1616 150.141 71.2621 150.699 71.4634C151.257 71.6647 151.764 71.9569 152.221 72.3408C152.66 72.7431 153.017 73.2458 153.291 73.849C153.565 74.4522 153.702 75.147 153.702 75.9328V86.2433C153.702 87.0661 153.565 87.7701 153.291 88.3546C153.017 88.9398 152.66 89.4242 152.221 89.8081C151.764 90.2104 151.257 90.5121 150.699 90.7131C150.142 90.914 149.579 91.0148 149.013 91.0148C148.446 91.0148 147.884 90.914 147.327 90.7131C146.769 90.5121 146.271 90.2107 145.832 89.8081C145.375 89.4242 145.01 88.9398 144.736 88.3546C144.461 87.7701 144.324 87.0658 144.324 86.2433V75.9328ZM147.121 86.2433C147.121 86.9198 147.308 87.4183 147.683 87.7377C148.058 88.0578 148.501 88.2175 149.013 88.2175C149.525 88.2175 149.968 88.0578 150.343 87.7377C150.718 87.4179 150.906 86.9198 150.906 86.2433V75.9328C150.906 75.2566 150.718 74.7585 150.343 74.4384C149.968 74.1187 149.525 73.9586 149.013 73.9586C148.501 73.9586 148.058 74.119 147.683 74.4384C147.308 74.7585 147.121 75.2566 147.121 75.9328V86.2433Z" fill="white"/>
<path d="M154.58 90.8501L158.94 71.3262H161.271L165.631 90.8501H162.834L162.011 86.6546H158.2L157.377 90.8501H154.58ZM161.49 84.0223L160.119 76.9477H160.065L158.693 84.0223H161.49Z" fill="white"/>
<path d="M167.002 90.8501V71.3262H171.142C172.751 71.3262 173.971 71.7651 174.803 72.6422C175.635 73.5196 176.051 74.763 176.051 76.3716V85.5029C176.051 87.3312 175.608 88.6796 174.721 89.5475C173.834 90.4161 172.559 90.8501 170.896 90.8501H167.002ZM169.799 73.9585V88.2178H171.088C171.874 88.2178 172.432 88.0217 172.761 87.6283C173.09 87.2352 173.254 86.6183 173.254 85.7772V76.3716C173.254 75.6038 173.099 75.0098 172.788 74.5892C172.477 74.169 171.911 73.9585 171.088 73.9585H169.799Z" fill="white"/>
<mask id="mask0_1_2710" style="mask-type:luminance" maskUnits="userSpaceOnUse" x="163" y="59" width="71" height="44">
<path d="M233.645 85.298C233.552 76.8527 222.33 68.4342 222.238 59.9893L164.488 60.1185C164.471 62.3218 164.448 64.5254 164.418 66.7287C164.294 76.0904 164.088 85.4512 163.963 94.8129C163.931 97.2767 163.906 99.7444 163.861 102.213L223.513 102.079C223.529 101.575 229.202 96.6945 229.214 96.1901C229.33 91.1087 233.701 90.3798 233.645 85.298Z" fill="white"/>
</mask>
<g mask="url(#mask0_1_2710)">
<g opacity="0.5">
<path opacity="0.0769" d="M226.013 61.9324C220.919 56.8372 214.146 54.0304 206.942 54.0291C199.737 54.0277 192.963 56.8323 187.868 61.9255C182.773 67.0191 179.966 73.7919 179.965 80.9965C179.964 88.201 182.768 94.9749 187.861 100.07C192.955 105.166 199.728 107.972 206.932 107.974C214.137 107.975 220.911 105.171 226.006 100.077C231.101 94.9837 233.908 88.2109 233.91 81.0063C233.911 73.8017 231.106 67.0279 226.013 61.9324Z" fill="black"/>
<path opacity="0.1538" d="M226.241 61.9324C221.148 56.8372 214.375 54.0304 207.17 54.0291C199.966 54.0277 193.192 56.8323 188.097 61.9255C183.001 67.0191 180.194 73.7919 180.193 80.9965C180.192 88.201 182.997 94.9749 188.09 100.07C193.183 105.166 199.956 107.972 207.161 107.974C214.365 107.975 221.139 105.171 226.234 100.077C231.33 94.9837 234.137 88.2109 234.138 81.0063C234.139 73.8017 231.335 67.0279 226.241 61.9324Z" fill="black"/>
<path opacity="0.2308" d="M226.468 61.9324C221.374 56.8372 214.601 54.0304 207.397 54.0291C200.192 54.0277 193.418 56.8323 188.323 61.9255C183.228 67.0191 180.421 73.7919 180.42 80.9965C180.419 88.201 183.223 94.9749 188.316 100.07C193.41 105.166 200.183 107.972 207.387 107.974C214.592 107.975 221.366 105.171 226.461 100.077C231.556 94.9837 234.363 88.2109 234.365 81.0063C234.366 73.8017 231.561 67.0279 226.468 61.9324Z" fill="black"/>
<path opacity="0.3077" d="M226.694 61.9324C221.601 56.8372 214.828 54.0304 207.623 54.0291C200.419 54.0277 193.645 56.8323 188.55 61.9255C183.455 67.0191 180.648 73.7919 180.646 80.9965C180.645 88.201 183.45 94.9749 188.543 100.07C193.636 105.166 200.409 107.972 207.614 107.974C214.818 107.975 221.592 105.171 226.688 100.077C231.783 94.9837 234.59 88.2109 234.591 81.0063C234.592 73.8017 231.788 67.0279 226.694 61.9324Z" fill="black"/>
<path opacity="0.3846" d="M226.923 61.9324C221.829 56.8372 215.056 54.0304 207.852 54.0291C200.647 54.0277 193.874 56.8323 188.778 61.9255C183.683 67.0191 180.876 73.7919 180.875 80.9965C180.874 88.201 183.678 94.9749 188.771 100.07C193.865 105.166 200.638 107.972 207.842 107.974C215.047 107.975 221.821 105.171 226.916 100.077C232.012 94.9837 234.818 88.2109 234.82 81.0063C234.821 73.8017 232.016 67.0279 226.923 61.9324Z" fill="black"/>
<path opacity="0.4615" d="M227.149 61.9324C222.056 56.8372 215.283 54.0304 208.078 54.0291C200.874 54.0277 194.1 56.8323 189.005 61.9255C183.91 67.0191 181.103 73.7919 181.102 80.9965C181.1 88.201 183.905 94.9749 188.998 100.07C194.092 105.166 200.864 107.972 208.069 107.974C215.274 107.975 222.047 105.171 227.143 100.077C232.238 94.9837 235.045 88.2109 235.046 81.0063C235.048 73.8017 232.243 67.0279 227.149 61.9324Z" fill="black"/>
<path opacity="0.5385" d="M227.376 61.9324C222.283 56.8372 215.51 54.0304 208.305 54.0291C201.101 54.0277 194.327 56.8323 189.231 61.9255C184.136 67.0191 181.329 73.7919 181.328 80.9965C181.327 88.201 184.131 94.9749 189.225 100.07C194.318 105.166 201.091 107.972 208.296 107.974C215.5 107.975 222.274 105.171 227.369 100.077C232.465 94.9837 235.272 88.2109 235.273 81.0063C235.274 73.8017 232.47 67.0279 227.376 61.9324Z" fill="black"/>
<path opacity="0.6154" d="M227.603 61.9324C222.509 56.8372 215.736 54.0304 208.532 54.0291C201.327 54.0277 194.554 56.8323 189.458 61.9255C184.363 67.0191 181.556 73.7919 181.555 80.9965C181.553 88.201 184.358 94.9749 189.451 100.07C194.545 105.166 201.318 107.972 208.522 107.974C215.727 107.975 222.501 105.171 227.596 100.077C232.691 94.9837 235.498 88.2109 235.499 81.0063C235.501 73.8017 232.696 67.0279 227.603 61.9324Z" fill="black"/>
<path opacity="0.6923" d="M227.831 61.9324C222.738 56.8372 215.965 54.0304 208.76 54.0291C201.556 54.0277 194.782 56.8323 189.687 61.9255C184.591 67.0191 181.785 73.7919 181.783 80.9965C181.782 88.201 184.586 94.9749 189.68 100.07C194.773 105.166 201.546 107.972 208.751 107.974C215.955 107.975 222.729 105.171 227.824 100.077C232.92 94.9837 235.727 88.2109 235.728 81.0063C235.729 73.8017 232.925 67.0279 227.831 61.9324Z" fill="black"/>
<path opacity="0.7692" d="M228.058 61.9324C222.964 56.8372 216.192 54.0304 208.987 54.0291C201.782 54.0277 195.009 56.8323 189.913 61.9255C184.818 67.0191 182.011 73.7919 182.01 80.9965C182.008 88.201 184.813 94.9749 189.906 100.07C195 105.166 201.773 107.972 208.977 107.974C216.182 107.975 222.956 105.171 228.051 100.077C233.146 94.9837 235.953 88.2109 235.954 81.0063C235.956 73.8017 233.152 67.0279 228.058 61.9324Z" fill="black"/>
<path opacity="0.8462" d="M228.287 61.9324C223.193 56.8372 216.42 54.0304 209.216 54.0291C202.011 54.0277 195.237 56.8323 190.142 61.9255C185.046 67.0191 182.24 73.7919 182.238 80.9965C182.237 88.201 185.041 94.9749 190.135 100.07C195.228 105.166 202.001 107.972 209.206 107.974C216.41 107.975 223.184 105.171 228.279 100.077C233.375 94.9837 236.182 88.2109 236.183 81.0063C236.184 73.8017 233.38 67.0279 228.287 61.9324Z" fill="black"/>
<path opacity="0.9231" d="M228.513 61.9324C223.42 56.8372 216.647 54.0304 209.442 54.0291C202.238 54.0277 195.464 56.8323 190.368 61.9255C185.273 67.0191 182.466 73.7919 182.465 80.9965C182.464 88.201 185.268 94.9749 190.361 100.07C195.455 105.166 202.228 107.972 209.432 107.974C216.637 107.975 223.411 105.171 228.506 100.077C233.601 94.9837 236.408 88.2109 236.41 81.0063C236.411 73.8017 233.606 67.0279 228.513 61.9324Z" fill="black"/>
<path d="M228.74 61.9324C223.646 56.8372 216.873 54.0304 209.669 54.0291C202.464 54.0277 195.69 56.8323 190.595 61.9255C185.5 67.0191 182.693 73.7919 182.691 80.9965C182.69 88.201 185.495 94.9749 190.588 100.07C195.681 105.166 202.454 107.972 209.659 107.974C216.863 107.975 223.637 105.171 228.732 100.077C233.828 94.9837 236.635 88.2109 236.636 81.0063C236.637 73.8017 233.833 67.0279 228.74 61.9324Z" fill="black"/>
</g>
</g>
<path d="M229.795 99.527C240.026 89.2957 240.026 72.7074 229.795 62.4762C219.564 52.245 202.976 52.2451 192.744 62.4764C182.513 72.7078 182.513 89.296 192.744 99.5272C202.975 109.758 219.563 109.758 229.795 99.527Z" fill="#FDFDFD"/>
<path d="M211.278 52.4209C203.643 52.4196 196.466 55.391 191.066 60.7883C185.667 66.1856 182.693 73.3623 182.691 80.9966C182.69 88.6309 185.662 95.8086 191.059 101.208C196.456 106.607 203.633 109.582 211.267 109.583C218.901 109.584 226.079 106.613 231.478 101.215C236.878 95.8181 239.852 88.6414 239.853 81.0071C239.855 73.3728 236.883 66.1951 231.486 60.7958C226.089 55.3966 218.912 52.4222 211.278 52.4209ZM211.268 104.819C198.135 104.817 187.453 94.1303 187.455 80.9973C187.457 67.8642 198.144 57.1819 211.277 57.1842C224.41 57.1865 235.092 67.8731 235.09 81.0061C235.087 94.1391 224.401 104.821 211.268 104.819Z" fill="#06309E"/>
<mask id="mask1_1_2710" style="mask-type:luminance" maskUnits="userSpaceOnUse" x="186" y="45" width="50" height="60">
<path d="M235.805 45.6641H186.74V77.6308H187.695C187.539 78.7311 187.456 79.8547 187.456 80.9973C187.453 94.1303 198.136 104.817 211.269 104.819C224.402 104.821 235.088 94.1391 235.091 81.0061C235.091 79.8603 235.008 78.7338 234.851 77.6308H235.806V45.6641H235.805Z" fill="white"/>
</mask>
<g mask="url(#mask1_1_2710)">
<path d="M192.419 48.8237C191.082 48.8237 189.998 49.9074 189.998 51.2444V103.067C189.998 104.404 191.082 105.488 192.419 105.488H230.126C231.463 105.488 232.547 104.404 232.547 103.067V56.0548L225.316 48.8237H192.419Z" fill="#F2F2F2"/>
<path d="M227.737 56.0548H232.547L225.316 48.8237V53.6342C225.316 54.9712 226.4 56.0548 227.737 56.0548Z" fill="#E6E6E6"/>
<path d="M215.674 77.7101V67.3845H206.872V77.7101H201.98L206.627 83.9082L211.273 90.1064L215.919 83.9082L220.566 77.7101H215.674Z" fill="url(#paint2_linear_1_2710)"/>
</g>
<g opacity="0.05">
<path d="M228.112 97.8432C237.413 88.542 237.413 73.4619 228.112 64.1608C218.81 54.8596 203.73 54.8596 194.429 64.1607C185.128 73.4619 185.128 88.542 194.429 97.8432C203.73 107.144 218.81 107.144 228.112 97.8432Z" fill="black"/>
<path opacity="0.9231" d="M222.373 101.482C234.009 95.3483 238.469 80.9432 232.335 69.3072C226.202 57.6712 211.797 53.2108 200.161 59.3444C188.525 65.4781 184.064 79.8832 190.198 91.5192C196.331 103.155 210.737 107.616 222.373 101.482Z" fill="black"/>
<path opacity="0.8462" d="M228.112 96.671C237.413 87.3699 237.413 72.2898 228.112 62.9886C218.81 53.6875 203.73 53.6875 194.429 62.9886C185.128 72.2898 185.128 87.3699 194.429 96.671C203.73 105.972 218.81 105.972 228.112 96.671Z" fill="black"/>
<path opacity="0.7692" d="M225.478 98.3514C236.029 90.4972 238.215 75.577 230.361 65.0262C222.506 54.4755 207.586 52.2895 197.035 60.1437C186.485 67.9979 184.299 82.9181 192.153 93.4689C200.007 104.02 214.927 106.206 225.478 98.3514Z" fill="black"/>
<path opacity="0.6923" d="M228.112 95.4987C237.413 86.1975 237.413 71.1174 228.112 61.8163C218.81 52.5151 203.73 52.5151 194.429 61.8163C185.128 71.1174 185.128 86.1975 194.429 95.4987C203.73 104.8 218.81 104.8 228.112 95.4987Z" fill="black"/>
<path opacity="0.6154" d="M225.478 97.179C236.029 89.3248 238.215 74.4047 230.361 63.8539C222.506 53.3031 207.586 51.1171 197.035 58.9713C186.485 66.8255 184.299 81.7457 192.153 92.2965C200.007 102.847 214.927 105.033 225.478 97.179Z" fill="black"/>
<path opacity="0.5385" d="M222.373 98.5513C234.009 92.4177 238.469 78.0125 232.335 66.3766C226.202 54.7406 211.797 50.2801 200.161 56.4138C188.525 62.5474 184.064 76.9526 190.198 88.5886C196.331 100.225 210.737 104.685 222.373 98.5513Z" fill="black"/>
<path opacity="0.4615" d="M228.112 93.7402C237.413 84.439 237.413 69.3589 228.112 60.0577C218.81 50.7566 203.73 50.7566 194.429 60.0577C185.128 69.3589 185.128 84.439 194.429 93.7401C203.73 103.041 218.81 103.041 228.112 93.7402Z" fill="black"/>
<path opacity="0.3846" d="M222.373 97.3792C234.009 91.2455 238.469 76.8404 232.335 65.2044C226.202 53.5685 211.797 49.108 200.161 55.2417C188.525 61.3753 184.064 75.7805 190.198 87.4164C196.331 99.0524 210.737 103.513 222.373 97.3792Z" fill="black"/>
<path opacity="0.3077" d="M228.112 92.5678C237.413 83.2666 237.413 68.1865 228.112 58.8854C218.81 49.5842 203.73 49.5842 194.429 58.8854C185.128 68.1865 185.128 83.2666 194.429 92.5678C203.73 101.869 218.81 101.869 228.112 92.5678Z" fill="black"/>
<path opacity="0.2308" d="M225.478 94.2484C236.029 86.3942 238.215 71.474 230.361 60.9232C222.506 50.3724 207.586 48.1864 197.035 56.0407C186.485 63.8949 184.299 78.8151 192.153 89.3658C200.007 99.9166 214.927 102.103 225.478 94.2484Z" fill="black"/>
<path opacity="0.1538" d="M228.112 91.3957C237.413 82.0945 237.413 67.0144 228.112 57.7132C218.81 48.4121 203.73 48.4121 194.429 57.7132C185.128 67.0144 185.128 82.0945 194.429 91.3957C203.73 100.697 218.81 100.697 228.112 91.3957Z" fill="black"/>
<path opacity="0.0769" d="M225.478 93.076C236.029 85.2218 238.215 70.3016 230.361 59.7508C222.506 49.2001 207.586 47.0141 197.035 54.8683C186.485 62.7225 184.299 77.6427 192.153 88.1935C200.007 98.7442 214.927 100.93 225.478 93.076Z" fill="black"/>
</g>
<path d="M302.683 191.981C302.683 193.914 301.115 195.481 299.182 195.481H5.12337C3.19042 195.481 1.62305 193.914 1.62305 191.981V188.434H302.683V191.981Z" fill="#CCCCCC"/>
<path d="M304.306 191.841C304.306 192.261 303.966 192.601 303.547 192.601H0.758978C0.339724 192.601 0 192.261 0 191.841V187.724H304.306V191.841Z" fill="#B3B3B3"/>
<path d="M169.52 188.412C169.52 189.379 168.736 190.162 167.77 190.162H136.537C135.571 190.162 134.787 189.379 134.787 188.412V187.724H169.52L169.52 188.412Z" fill="#CCCCCC"/>
<path d="M268.258 151.514L304.306 187.724H0L36.0487 151.514H268.258Z" fill="#F3F3F3"/>
<path d="M280.463 173.081H259.522L244.781 154.109H262.847L280.463 173.081Z" fill="#D1D1D1"/>
<path d="M59.5255 154.109L44.7849 173.081H23.8438L41.4596 154.109H59.5255Z" fill="#D1D1D1"/>
<path d="M121.384 177.911C121.756 176.18 123.622 174.807 125.559 174.807H178.747C180.684 174.807 182.55 176.18 182.923 177.911L183.938 182.629C184.345 184.523 182.986 186.094 180.893 186.094H123.414C121.32 186.094 119.962 184.523 120.369 182.629L121.384 177.911Z" fill="#D8D8D8"/>
<path d="M253.317 173.081H241.633L239.396 169.627H250.788L253.317 173.081Z" fill="#313946"/>
<path d="M242.489 158.29H232.056L230.268 155.528H240.467L242.489 158.29Z" fill="#313946"/>
<path d="M240.134 155.074H224.981L224.396 154.109H239.428L240.134 155.074Z" fill="#313946"/>
<path d="M222.911 155.074H212.75L212.264 154.109H222.343L222.911 155.074Z" fill="#313946"/>
<path d="M210.431 155.074H200.269L199.883 154.109H209.963L210.431 155.074Z" fill="#313946"/>
<path d="M198.111 155.074H187.95L187.662 154.109H197.742L198.111 155.074Z" fill="#313946"/>
<path d="M185.632 155.074H175.47L175.283 154.109H185.363L185.632 155.074Z" fill="#313946"/>
<path d="M173.369 155.074H163.208L163.119 154.109H173.199L173.369 155.074Z" fill="#313946"/>
<path d="M160.818 154.109L160.888 155.074H150.727L150.738 154.109H160.818Z" fill="#313946"/>
<path d="M148.596 154.109L148.568 155.074H138.406L138.517 154.109H148.596Z" fill="#313946"/>
<path d="M136.716 154.109L136.591 155.074H126.43L126.636 154.109H136.716Z" fill="#313946"/>
<path d="M124.603 154.109L124.38 155.074H114.219L114.523 154.109H124.603Z" fill="#313946"/>
<path d="M111.938 154.109L111.612 155.074H101.451L101.858 154.109H111.938Z" fill="#313946"/>
<path d="M99.5578 154.109L99.132 155.074H88.9707L89.478 154.109H99.5578Z" fill="#313946"/>
<path d="M87.3383 154.109L86.8139 155.074H76.6523L77.2588 154.109H87.3383Z" fill="#313946"/>
<path d="M74.9579 154.109L74.3331 155.074H64.1719L64.8782 154.109H74.9579Z" fill="#313946"/>
<path d="M247.597 165.267H227.864L226.076 162.188H245.343L247.597 165.267Z" fill="#313946"/>
<path d="M244.973 161.682H228.255L226.506 158.768H242.84L244.973 161.682Z" fill="#313946"/>
<path d="M250.373 169.06H221.653L219.965 165.802H247.988L250.373 169.06Z" fill="#313946"/>
<path d="M80.0296 162.188L78.2855 165.267H56.7441L58.9972 162.188H80.0296Z" fill="#313946"/>
<path d="M84.3766 165.802L82.6898 169.06H53.9688L56.353 165.802H84.3766Z" fill="#313946"/>
<path d="M239.354 173.081H227.671L225.783 169.627H237.175L239.354 173.081Z" fill="#313946"/>
<path d="M219.421 169.06H208.077L206.719 165.802H217.787L219.421 169.06Z" fill="#313946"/>
<path d="M205.487 169.06H194.143L193.123 165.802H204.192L205.487 169.06Z" fill="#313946"/>
<path d="M192.097 169.06H180.753L180.059 165.802H191.127L192.097 169.06Z" fill="#313946"/>
<path d="M178.163 169.06H166.819L166.463 165.802H177.531L178.163 169.06Z" fill="#313946"/>
<path d="M164.549 169.06H153.205L153.18 165.802H164.248L164.549 169.06Z" fill="#313946"/>
<path d="M150.653 165.802L150.616 169.06H139.271L139.584 165.802H150.653Z" fill="#313946"/>
<path d="M137.587 165.802L137.225 169.06H125.881L126.519 165.802H137.587Z" fill="#313946"/>
<path d="M123.992 165.802L123.291 169.06H111.947L112.924 165.802H123.992Z" fill="#313946"/>
<path d="M110.982 165.802L109.957 169.06H98.6133L99.9136 165.802H110.982Z" fill="#313946"/>
<path d="M97.3866 165.802L96.0234 169.06H84.6797L86.3181 165.802H97.3866Z" fill="#313946"/>
<path d="M225.355 165.267H214.331L212.863 162.188H223.626L225.355 165.267Z" fill="#313946"/>
<path d="M211.816 165.267H200.793L199.645 162.188H210.408L211.816 165.267Z" fill="#313946"/>
<path d="M198.804 165.267H187.781L186.939 162.188H197.702L198.804 165.267Z" fill="#313946"/>
<path d="M185.263 165.267H174.24L173.719 162.188H184.482L185.263 165.267Z" fill="#313946"/>
<path d="M172.035 165.267H161.012L160.803 162.188H171.566L172.035 165.267Z" fill="#313946"/>
<path d="M158.346 162.188L158.496 165.267H147.473L147.583 162.188H158.346Z" fill="#313946"/>
<path d="M145.642 162.188L145.484 165.267H134.461L134.879 162.188H145.642Z" fill="#313946"/>
<path d="M132.422 162.188L131.945 165.267H120.922L121.659 162.188H132.422Z" fill="#313946"/>
<path d="M119.769 162.188L118.986 165.267H107.963L109.006 162.188H119.769Z" fill="#313946"/>
<path d="M106.55 162.188L105.447 165.267H94.4238L95.787 162.188H106.55Z" fill="#313946"/>
<path d="M93.2905 162.188L91.8671 165.267H80.8438L82.5276 162.188H93.2905Z" fill="#313946"/>
<path d="M225.783 161.682H215.063L213.617 158.768H224.091L225.783 161.682Z" fill="#313946"/>
<path d="M212.615 161.683H201.895L200.752 158.769H211.226L212.615 161.683Z" fill="#313946"/>
<path d="M199.961 161.682H189.241L188.389 158.768H198.863L199.961 161.682Z" fill="#313946"/>
<path d="M186.793 161.683H176.073L175.523 158.769H185.997L186.793 161.683Z" fill="#313946"/>
<path d="M173.929 161.683H163.209L162.955 158.769H173.429L173.929 161.683Z" fill="#313946"/>
<path d="M160.563 158.769L160.761 161.683H150.041L150.089 158.769H160.563Z" fill="#313946"/>
<path d="M148.2 158.769L148.107 161.683H137.387L137.726 158.769H148.2Z" fill="#313946"/>
<path d="M135.334 158.768L134.939 161.682H124.219L124.861 158.768H135.334Z" fill="#313946"/>
<path d="M122.503 158.768L121.806 161.682H111.086L112.03 158.768H122.503Z" fill="#313946"/>
<path d="M110.159 158.769L109.171 161.683H98.4512L99.685 158.769H110.159Z" fill="#313946"/>
<path d="M97.2556 158.769L95.9641 161.683H85.2441L86.7817 158.769H97.2556Z" fill="#313946"/>
<path d="M84.638 158.768L83.05 161.682H72.3301L74.1642 158.768H84.638Z" fill="#313946"/>
<path d="M71.973 158.768L70.0875 161.682H59.3672L61.4995 158.768H71.973Z" fill="#313946"/>
<path d="M230.022 158.29H219.589L218.08 155.528H228.28L230.022 158.29Z" fill="#313946"/>
<path d="M217.206 158.29H206.773L205.551 155.528H215.751L217.206 158.29Z" fill="#313946"/>
<path d="M204.892 158.29H194.459L193.512 155.528H203.712L204.892 158.29Z" fill="#313946"/>
<path d="M192.075 158.29H181.642L180.982 155.528H191.182L192.075 158.29Z" fill="#313946"/>
<path d="M179.555 158.29H169.122L168.742 155.528H178.942L179.555 158.29Z" fill="#313946"/>
<path d="M166.741 158.29H156.308L156.215 155.528H166.415L166.741 158.29Z" fill="#313946"/>
<path d="M154.375 155.528L154.425 158.29H143.992L144.175 155.528H154.375Z" fill="#313946"/>
<path d="M141.845 155.528L141.609 158.29H131.176L131.645 155.528H141.845Z" fill="#313946"/>
<path d="M129.856 155.528L129.346 158.29H118.912L119.656 155.528H129.856Z" fill="#313946"/>
<path d="M117.328 155.528L116.531 158.29H106.098L107.128 155.528H117.328Z" fill="#313946"/>
<path d="M104.762 155.528L103.677 158.29H93.2441L94.5624 155.528H104.762Z" fill="#313946"/>
<path d="M92.4751 155.528L91.109 158.29H80.6758L82.2752 155.528H92.4751Z" fill="#313946"/>
<path d="M80.143 155.528L78.4944 158.29H61.8516L63.8722 155.528H80.143Z" fill="#313946"/>
<path d="M225.188 173.081H213.504L211.971 169.627H223.363L225.188 173.081Z" fill="#313946"/>
<path d="M106.308 169.627L105.133 173.081H93.4492L94.9164 169.627H106.308Z" fill="#313946"/>
<path d="M92.4945 169.627L90.9651 173.081H79.2812L81.1026 169.627H92.4945Z" fill="#313946"/>
<path d="M65.0597 169.451L62.8302 172.896H51.1621L53.6829 169.451H65.0597Z" fill="#313946"/>
<path d="M78.8146 169.451L77.9859 170.971H66.4805L67.4374 169.451H78.8146Z" fill="#313946"/>
<path d="M77.6923 171.514L76.8381 173.081H65.1543L66.1411 171.514H77.6923Z" fill="#313946"/>
<path d="M211.227 173.081H195.982L194.887 169.627H209.75L211.227 173.081Z" fill="#313946"/>
<path d="M123.249 169.627L122.508 173.081H107.264L108.386 169.627H123.249Z" fill="#313946"/>
<path d="M191.831 169.627L192.848 173.081H125.141L125.815 169.627H191.831Z" fill="#313946"/>
<path d="M66.8101 151.514H237.53L237.537 151.523C237.982 152.131 237.66 152.629 236.813 152.629H67.5272C66.6805 152.629 66.3585 152.131 66.8036 151.523L66.8101 151.514Z" fill="#333333"/>
<defs>
<linearGradient id="paint0_linear_1_2710" x1="34.7483" y1="98.6569" x2="98.1602" y2="-11.1759" gradientUnits="userSpaceOnUse">
<stop/>
<stop offset="1" stop-color="white"/>
</linearGradient>
<linearGradient id="paint1_linear_1_2710" x1="146.017" y1="100.629" x2="146.017" y2="112.062" gradientUnits="userSpaceOnUse">
<stop stop-color="#71756F"/>
<stop offset="0.0317" stop-color="#828680"/>
<stop offset="0.1035" stop-color="#A3A6A2"/>
<stop offset="0.1833" stop-color="#C0C2BF"/>
<stop offset="0.2716" stop-color="#D7D8D7"/>
<stop offset="0.3722" stop-color="#E9EAE9"/>
<stop offset="0.4921" stop-color="#F6F6F6"/>
<stop offset="0.6505" stop-color="#FDFDFD"/>
<stop offset="1" stop-color="white"/>
</linearGradient>
<linearGradient id="paint2_linear_1_2710" x1="211.273" y1="65.1382" x2="211.273" y2="94.3453" gradientUnits="userSpaceOnUse">
<stop stop-color="#A7D63F"/>
<stop offset="0.0738" stop-color="#9FD340"/>
<stop offset="1" stop-color="#39B54A"/>
</linearGradient>
</defs>
</svg>
