<svg width="80" height="80" viewBox="0 0 80 80" fill="none" xmlns="http://www.w3.org/2000/svg">
<path d="M25 52.4999C25 53.163 24.7366 53.7988 24.2678 54.2677C23.7989 54.7365 23.163 54.9999 22.5 54.9999H17.5C16.837 54.9999 16.2011 54.7365 15.7322 54.2677C15.2634 53.7988 15 53.163 15 52.4999C15 51.8369 15.2634 51.201 15.7322 50.7322C16.2011 50.2633 16.837 49.9999 17.5 49.9999H22.5C23.163 49.9999 23.7989 50.2633 24.2678 50.7322C24.7366 51.201 25 51.8369 25 52.4999ZM62.5 49.9999H57.5C56.837 49.9999 56.2011 50.2633 55.7322 50.7322C55.2634 51.201 55 51.8369 55 52.4999C55 53.163 55.2634 53.7988 55.7322 54.2677C56.2011 54.7365 56.837 54.9999 57.5 54.9999H62.5C63.163 54.9999 63.7989 54.7365 64.2678 54.2677C64.7366 53.7988 65 53.163 65 52.4999C65 51.8369 64.7366 51.201 64.2678 50.7322C63.7989 50.2633 63.163 49.9999 62.5 49.9999ZM75 24.9249C74.9687 30.5683 72.8502 36.0005 69.0525 40.1749C70.7327 40.5304 72.2399 41.4517 73.3224 42.785C74.405 44.1182 74.9971 45.7826 75 47.4999V69.9999C75 71.326 74.4732 72.5978 73.5355 73.5355C72.5979 74.4731 71.3261 74.9999 70 74.9999H65C63.6739 74.9999 62.4021 74.4731 61.4645 73.5355C60.5268 72.5978 60 71.326 60 69.9999V64.9999H20V69.9999C20 71.326 19.4732 72.5978 18.5355 73.5355C17.5979 74.4731 16.3261 74.9999 15 74.9999H10C8.67392 74.9999 7.40215 74.4731 6.46447 73.5355C5.52678 72.5978 5 71.326 5 69.9999V47.4999C5 45.5108 5.79018 43.6031 7.1967 42.1966C8.60322 40.7901 10.5109 39.9999 12.5 39.9999H13L16.25 25.3324C16.7512 23.1127 17.9913 21.1289 19.7671 19.706C21.543 18.283 23.7494 17.5052 26.025 17.4999H41.15V13.2749C41.1501 12.7757 41.2997 12.2879 41.5795 11.8744C41.8594 11.4609 42.2566 11.1406 42.72 10.9549L57.145 5.17992C57.7427 4.94003 58.4098 4.94003 59.0075 5.17992L73.43 10.9549C73.8934 11.1406 74.2906 11.4609 74.5705 11.8744C74.8503 12.2879 74.9999 12.7757 75 13.2749V24.9249ZM18.1175 39.9999H46.96C43.2442 35.855 41.1771 30.4915 41.15 24.9249V22.4999H26.025C24.8887 22.5025 23.7869 22.8907 22.8999 23.601C22.0129 24.3113 21.3933 25.3016 21.1425 26.4099L18.1175 39.9999ZM15 64.9999H10V69.9999H15V64.9999ZM70 64.9999H65V69.9999H70V64.9999ZM67.5 44.9999H62.9425L59.36 47.1449C58.972 47.3771 58.5284 47.4997 58.0762 47.4997C57.6241 47.4997 57.1805 47.3771 56.7925 47.1449L53.2075 44.9999H12.5C11.837 44.9999 11.2011 45.2633 10.7322 45.7322C10.2634 46.201 10 46.8369 10 47.4999V59.9999H70V47.4999C70 46.8369 69.7366 46.201 69.2678 45.7322C68.7989 45.2633 68.163 44.9999 67.5 44.9999ZM70 14.9674L58.075 10.1924L46.15 14.9674V24.9249C46.1617 27.9772 46.959 30.975 48.4653 33.6298C49.9715 36.2845 52.1359 38.5067 54.75 40.0824L55.195 40.3549L58.0875 42.0849L60.98 40.3549L61.41 40.0924C62.0152 39.7308 62.5995 39.3351 63.16 38.9074C65.283 37.2455 67.0014 35.1238 68.1862 32.7019C69.3709 30.28 69.9911 27.621 70 24.9249V14.9674ZM53.5925 23.2324C53.121 22.777 52.4895 22.525 51.834 22.5307C51.1785 22.5364 50.5515 22.7994 50.088 23.2629C49.6244 23.7264 49.3615 24.3534 49.3558 25.0089C49.3501 25.6644 49.6021 26.2959 50.0575 26.7674L55.0575 31.7674C55.5263 32.2361 56.1621 32.4994 56.825 32.4994C57.4879 32.4994 58.1237 32.2361 58.5925 31.7674L66.0925 24.2674C66.5479 23.7959 66.7999 23.1644 66.7942 22.5089C66.7885 21.8534 66.5256 21.2264 66.062 20.7629C65.5985 20.2994 64.9715 20.0364 64.316 20.0307C63.6605 20.025 63.029 20.277 62.5575 20.7324L56.825 26.4649L53.5925 23.2324Z" fill="#8BD3FF"/>
</svg>
