<svg width="210" height="42" viewBox="0 0 210 42" fill="none" xmlns="http://www.w3.org/2000/svg">
<path d="M35.7476 41.8765H20.9388V41.8642L10.4688 31.4189V25.2877L14.8076 20.9365L35.7476 41.8765Z" fill="url(#paint0_linear_1_947)"/>
<path opacity="0.83" d="M35.7476 41.8765H20.9388V41.8642L10.4688 31.4189V25.2877L14.8076 20.9365L35.7476 41.8765Z" fill="url(#paint1_linear_1_947)"/>
<path d="M35.2539 41.6819H21.0384L10.6797 31.3355V25.365L11.1741 24.8829L14.8084 21.2363L35.2539 41.6819Z" fill="url(#paint2_linear_1_947)"/>
<path opacity="0.25" d="M35.2556 41.6819H27.9748L11.1758 24.8829L14.81 21.2363L35.2556 41.6819Z" fill="url(#paint3_linear_1_947)"/>
<path d="M10.47 0V10.4701L7.41672 13.548L5.34007 15.6124L0 20.9399V0H10.47Z" fill="url(#paint4_linear_1_947)"/>
<path opacity="0.79" d="M10.47 0V10.4701L7.41672 13.548L5.34007 15.6124L0 20.9399V0H10.47Z" fill="url(#paint5_linear_1_947)"/>
<path d="M0.210938 0.193359H10.2731V14.5696L7.26926 13.3953L0.210938 24.6317V0.193359Z" fill="url(#paint6_linear_1_947)"/>
<path opacity="0.46" d="M0.40625 0.405273H4.93048V15.4489L0.40625 19.9608V0.405273Z" fill="url(#paint7_linear_1_947)"/>
<path d="M35.7488 0.0576172L15.3403 21.4921C15.2538 21.6033 14.9818 21.9371 14.611 22.4315C13.2389 24.2734 10.4823 28.3155 10.4823 31.1462V41.8387H0V20.9358L7.41672 13.519L10.47 10.4411L19.5308 1.38027L20.9523 0.0576172H35.7488Z" fill="url(#paint8_linear_1_947)"/>
<path opacity="0.79" d="M35.7488 0.0576172L15.3403 21.4921C15.2538 21.6033 14.9818 21.9371 14.611 22.4315C13.2389 24.2734 10.4823 28.3155 10.4823 31.1462V41.8387H0V20.9358L7.41672 13.519L10.47 10.4411L19.5308 1.38027L20.9523 0.0576172H35.7488Z" fill="url(#paint9_linear_1_947)"/>
<path d="M0.210938 41.686V21.0797L7.62774 13.7371L10.6933 10.6592L21.1015 0.250977H35.2799L15.2176 21.364L15.1187 21.4877L14.4635 22.3282C12.9184 24.4173 10.3101 28.3482 10.3101 31.1665V41.6489L0.210938 41.686Z" fill="url(#paint10_linear_1_947)"/>
<g opacity="0.44">
<path d="M5.23943 41.4694C4.9922 24.3985 4.89331 23.5455 23.188 5.34979L28.1325 0.405273H34.7829L15.0048 21.2216C14.7283 21.5388 14.4723 21.8732 14.2384 22.2229C12.6809 24.312 10.048 28.2799 10.048 31.1601V41.4694H5.23943Z" fill="url(#paint11_linear_1_947)"/>
<path d="M5.23959 41.4694C5.23959 23.2612 4.95528 24.9424 12.78 16.1041C15.3264 13.2362 18.7011 9.81217 23.1882 5.34979L28.1327 0.405273H34.7831L15.005 21.2216C14.7285 21.5388 14.4725 21.8732 14.2386 22.2229C12.6811 24.312 10.0482 28.2799 10.0482 31.1601V41.4694H5.23959Z" fill="url(#paint12_linear_1_947)"/>
</g>
<path d="M64.6965 33.2363C64.2244 32.472 63.6624 31.6515 63.0104 30.7747C62.381 29.8755 61.6841 28.9875 60.9198 28.1108C60.1779 27.2116 59.4023 26.3573 58.593 25.548C57.7837 24.7162 56.9744 23.9856 56.1651 23.3561V33.2363H50.9047V9.86785H56.1651V18.7027C57.5364 17.2639 58.9077 15.769 60.2791 14.2178C61.6728 12.6442 62.9655 11.1942 64.1569 9.86785H70.3953C68.7992 11.7562 67.1918 13.5771 65.5732 15.3306C63.9771 17.0841 62.2911 18.8488 60.5151 20.6248C62.381 22.1759 64.1794 24.0193 65.9104 26.155C67.6639 28.2906 69.3387 30.6511 70.9348 33.2363H64.6965ZM80.0673 29.7294C80.5619 29.7294 81.034 29.7181 81.4836 29.6956C81.9332 29.6732 82.2929 29.6394 82.5627 29.5945V25.784C82.3604 25.7391 82.0569 25.6941 81.6522 25.6492C81.2476 25.6042 80.8766 25.5817 80.5394 25.5817C80.0673 25.5817 79.6177 25.6154 79.1906 25.6829C78.786 25.7278 78.4263 25.829 78.1115 25.9864C77.7968 26.1437 77.5495 26.3573 77.3697 26.6271C77.1898 26.8968 77.0999 27.234 77.0999 27.6387C77.0999 28.4255 77.3584 28.9763 77.8755 29.291C78.415 29.5832 79.1456 29.7294 80.0673 29.7294ZM79.6627 15.0271C81.1464 15.0271 82.3828 15.1957 83.372 15.5329C84.3611 15.8701 85.1479 16.3535 85.7324 16.9829C86.3394 17.6124 86.7665 18.3767 87.0138 19.2759C87.2611 20.1752 87.3847 21.1755 87.3847 22.2771V32.7305C86.6654 32.8879 85.665 33.0677 84.3836 33.27C83.1022 33.4949 81.5511 33.6073 79.7301 33.6073C78.5836 33.6073 77.5383 33.5061 76.5941 33.3038C75.6724 33.1014 74.8743 32.7755 74.1999 32.3259C73.5255 31.8538 73.0085 31.2468 72.6488 30.5049C72.2891 29.7631 72.1092 28.8526 72.1092 27.7736C72.1092 26.7395 72.3116 25.8627 72.7162 25.1433C73.1433 24.424 73.7054 23.8507 74.4023 23.4236C75.0992 22.9965 75.8972 22.693 76.7964 22.5131C77.6956 22.3108 78.6286 22.2096 79.5952 22.2096C80.2472 22.2096 80.8204 22.2434 81.315 22.3108C81.8321 22.3558 82.2479 22.4232 82.5627 22.5131V22.041C82.5627 21.1868 82.3042 20.5011 81.7871 19.9841C81.27 19.467 80.3708 19.2085 79.0894 19.2085C78.2352 19.2085 77.3922 19.2759 76.5604 19.4108C75.7286 19.5232 75.0092 19.6918 74.4023 19.9166L73.7616 15.8701C74.0538 15.7802 74.4135 15.6903 74.8406 15.6004C75.2902 15.488 75.7736 15.3981 76.2906 15.3306C76.8077 15.2407 77.3472 15.1732 77.9092 15.1283C78.4937 15.0608 79.0782 15.0271 79.6627 15.0271ZM102.618 19.9504C102.168 19.838 101.64 19.7255 101.033 19.6131C100.426 19.4783 99.7738 19.4108 99.0769 19.4108C98.7622 19.4108 98.38 19.4445 97.9304 19.512C97.5033 19.5569 97.1773 19.6131 96.9525 19.6806V33.2363H91.9281V16.4434C92.8273 16.1287 93.8839 15.8364 95.0978 15.5667C96.3343 15.2744 97.7056 15.1283 99.2118 15.1283C99.4815 15.1283 99.8075 15.1508 100.19 15.1957C100.572 15.2182 100.954 15.2632 101.336 15.3306C101.718 15.3756 102.101 15.443 102.483 15.5329C102.865 15.6004 103.191 15.6903 103.461 15.8027L102.618 19.9504ZM112.864 29.2236C113.606 29.2236 114.213 29.1674 114.685 29.055C115.18 28.9201 115.573 28.7515 115.866 28.5491C116.158 28.3243 116.36 28.0658 116.473 27.7736C116.585 27.4813 116.641 27.1554 116.641 26.7957C116.641 26.0313 116.281 25.4019 115.562 24.9073C114.843 24.3903 113.606 23.8395 111.853 23.255C111.088 22.9852 110.324 22.6817 109.56 22.3445C108.795 21.9848 108.11 21.5465 107.503 21.0294C106.896 20.4899 106.401 19.8492 106.019 19.1073C105.637 18.343 105.446 17.4213 105.446 16.3422C105.446 15.2632 105.648 14.2965 106.053 13.4423C106.458 12.5655 107.031 11.8237 107.773 11.2167C108.514 10.6097 109.414 10.1489 110.47 9.83413C111.527 9.49692 112.718 9.32832 114.045 9.32832C115.618 9.32832 116.978 9.49692 118.125 9.83413C119.271 10.1713 120.216 10.5423 120.957 10.9469L119.44 15.0946C118.788 14.7574 118.057 14.4651 117.248 14.2178C116.461 13.9481 115.506 13.8132 114.382 13.8132C113.123 13.8132 112.213 13.993 111.651 14.3527C111.111 14.6899 110.841 15.2182 110.841 15.9376C110.841 16.3647 110.942 16.7244 111.145 17.0166C111.347 17.3089 111.628 17.5787 111.988 17.8259C112.37 18.0508 112.797 18.2643 113.269 18.4666C113.764 18.6465 114.303 18.8376 114.888 19.0399C116.102 19.4895 117.158 19.9391 118.057 20.3887C118.957 20.8159 119.699 21.3217 120.283 21.9062C120.89 22.4907 121.34 23.1763 121.632 23.9631C121.924 24.7499 122.07 25.7054 122.07 26.8294C122.07 29.01 121.306 30.7073 119.777 31.9212C118.249 33.1127 115.944 33.7084 112.864 33.7084C111.83 33.7084 110.897 33.641 110.066 33.5061C109.234 33.3937 108.492 33.2476 107.84 33.0677C107.211 32.8879 106.66 32.6968 106.188 32.4945C105.738 32.2921 105.356 32.1011 105.041 31.9212L106.525 27.7398C107.222 28.122 108.076 28.4705 109.088 28.7852C110.122 29.0774 111.381 29.2236 112.864 29.2236ZM125.612 11.0818L130.636 10.2725V15.4992H136.672V19.6806H130.636V25.9189C130.636 26.9755 130.816 27.8185 131.176 28.448C131.558 29.0774 132.311 29.3922 133.435 29.3922C133.975 29.3922 134.525 29.3472 135.087 29.2573C135.672 29.1449 136.2 28.9988 136.672 28.8189L137.38 32.7305C136.774 32.9778 136.099 33.1914 135.357 33.3712C134.615 33.5511 133.705 33.641 132.626 33.641C131.255 33.641 130.119 33.4611 129.22 33.1014C128.321 32.7193 127.601 32.2022 127.062 31.5503C126.522 30.8759 126.14 30.0666 125.915 29.1224C125.713 28.1782 125.612 27.1329 125.612 25.9864V11.0818ZM155.905 32.6294C155.05 32.8766 153.949 33.1014 152.6 33.3038C151.251 33.5286 149.835 33.641 148.351 33.641C146.845 33.641 145.586 33.4387 144.574 33.034C143.585 32.6294 142.798 32.0673 142.214 31.348C141.629 30.6061 141.214 29.7294 140.966 28.7177C140.719 27.7061 140.595 26.5933 140.595 25.3794V15.4992H145.62V24.7724C145.62 26.391 145.833 27.56 146.26 28.2794C146.688 28.9988 147.486 29.3584 148.655 29.3584C149.014 29.3584 149.396 29.3472 149.801 29.3247C150.206 29.2798 150.565 29.2348 150.88 29.1898V15.4992H155.905V32.6294ZM164.903 24.2329C164.903 25.784 165.252 27.0317 165.949 27.9759C166.646 28.9201 167.68 29.3922 169.051 29.3922C169.501 29.3922 169.917 29.3809 170.299 29.3584C170.681 29.3135 170.996 29.2685 171.243 29.2236V20.0852C170.928 19.8829 170.512 19.7143 169.995 19.5794C169.501 19.4445 168.995 19.3771 168.478 19.3771C166.095 19.3771 164.903 20.9957 164.903 24.2329ZM176.267 32.6631C175.818 32.798 175.301 32.9328 174.716 33.0677C174.132 33.1801 173.514 33.2813 172.862 33.3712C172.232 33.4611 171.58 33.5286 170.906 33.5735C170.254 33.641 169.624 33.6747 169.017 33.6747C167.556 33.6747 166.252 33.4611 165.106 33.034C163.959 32.6069 162.993 31.9999 162.206 31.2131C161.419 30.4038 160.812 29.4371 160.385 28.3131C159.98 27.1666 159.778 25.8852 159.778 24.4689C159.778 23.0302 159.958 21.7376 160.317 20.591C160.677 19.4221 161.194 18.4329 161.869 17.6236C162.543 16.8143 163.364 16.1961 164.33 15.769C165.319 15.3419 166.443 15.1283 167.702 15.1283C168.399 15.1283 169.017 15.1957 169.557 15.3306C170.119 15.4655 170.681 15.6566 171.243 15.9039V7.87833L176.267 7.06903V32.6631ZM185.996 33.2363H180.972V15.4992H185.996V33.2363ZM186.468 10.3737C186.468 11.2954 186.165 12.026 185.558 12.5655C184.973 13.0826 184.277 13.3411 183.467 13.3411C182.658 13.3411 181.95 13.0826 181.343 12.5655C180.758 12.026 180.466 11.2954 180.466 10.3737C180.466 9.45196 180.758 8.73259 181.343 8.21553C181.95 7.676 182.658 7.40624 183.467 7.40624C184.277 7.40624 184.973 7.676 185.558 8.21553C186.165 8.73259 186.468 9.45196 186.468 10.3737ZM207.31 24.3341C207.31 25.7278 207.108 27.0092 206.703 28.1782C206.298 29.3247 205.714 30.3139 204.949 31.1456C204.185 31.9549 203.263 32.5844 202.184 33.034C201.128 33.4836 199.936 33.7084 198.61 33.7084C197.306 33.7084 196.115 33.4836 195.036 33.034C193.979 32.5844 193.069 31.9549 192.304 31.1456C191.54 30.3139 190.944 29.3247 190.517 28.1782C190.09 27.0092 189.876 25.7278 189.876 24.3341C189.876 22.9403 190.09 21.6701 190.517 20.5236C190.967 19.3771 191.574 18.3992 192.338 17.5899C193.125 16.7806 194.046 16.1512 195.103 15.7015C196.182 15.2519 197.351 15.0271 198.61 15.0271C199.891 15.0271 201.06 15.2519 202.117 15.7015C203.196 16.1512 204.118 16.7806 204.882 17.5899C205.646 18.3992 206.242 19.3771 206.669 20.5236C207.096 21.6701 207.31 22.9403 207.31 24.3341ZM202.184 24.3341C202.184 22.7829 201.87 21.569 201.24 20.6922C200.633 19.793 199.756 19.3434 198.61 19.3434C197.463 19.3434 196.576 19.793 195.946 20.6922C195.317 21.569 195.002 22.7829 195.002 24.3341C195.002 25.8852 195.317 27.1216 195.946 28.0433C196.576 28.9426 197.463 29.3922 198.61 29.3922C199.756 29.3922 200.633 28.9426 201.24 28.0433C201.87 27.1216 202.184 25.8852 202.184 24.3341Z" fill="black"/>
<defs>
<linearGradient id="paint0_linear_1_947" x1="11.0992" y1="26.0665" x2="34.1653" y2="44.2499" gradientUnits="userSpaceOnUse">
<stop stop-color="#006486"/>
<stop offset="1" stop-color="#02BAB5"/>
</linearGradient>
<linearGradient id="paint1_linear_1_947" x1="11.0992" y1="26.0665" x2="34.1653" y2="44.2499" gradientUnits="userSpaceOnUse">
<stop offset="0.48" stop-color="white" stop-opacity="0"/>
<stop offset="1" stop-color="white"/>
</linearGradient>
<linearGradient id="paint2_linear_1_947" x1="11.2359" y1="26.1932" x2="33.7458" y2="43.9316" gradientUnits="userSpaceOnUse">
<stop stop-color="#005066"/>
<stop offset="1" stop-color="#02BAB5"/>
</linearGradient>
<linearGradient id="paint3_linear_1_947" x1="12.6344" y1="24.5492" x2="35.0825" y2="42.2381" gradientUnits="userSpaceOnUse">
<stop offset="0.02" stop-color="white" stop-opacity="0"/>
<stop offset="1" stop-color="white"/>
</linearGradient>
<linearGradient id="paint4_linear_1_947" x1="7.9977" y1="14.8336" x2="2.84309" y2="6.68745" gradientUnits="userSpaceOnUse">
<stop stop-color="#1F002C"/>
<stop offset="1" stop-color="#6C147E"/>
</linearGradient>
<linearGradient id="paint5_linear_1_947" x1="0.358477" y1="12.6209" x2="11.4589" y2="-4.19047" gradientUnits="userSpaceOnUse">
<stop offset="0.48" stop-color="white" stop-opacity="0"/>
<stop offset="1" stop-color="white"/>
</linearGradient>
<linearGradient id="paint6_linear_1_947" x1="8.76498" y1="17.9936" x2="2.75736" y2="8.48783" gradientUnits="userSpaceOnUse">
<stop stop-color="#1F002C"/>
<stop offset="1" stop-color="#6C147E"/>
</linearGradient>
<linearGradient id="paint7_linear_1_947" x1="-4.04381" y1="12.7912" x2="35.2527" y2="-10.2254" gradientUnits="userSpaceOnUse">
<stop offset="0.1" stop-color="white" stop-opacity="0"/>
<stop offset="1" stop-color="white"/>
</linearGradient>
<linearGradient id="paint8_linear_1_947" x1="1.70586" y1="42.7287" x2="25.662" y2="-5.05995" gradientUnits="userSpaceOnUse">
<stop stop-color="#1F002C"/>
<stop offset="0.52" stop-color="#E50A8C"/>
<stop offset="1" stop-color="#DC2B17"/>
</linearGradient>
<linearGradient id="paint9_linear_1_947" x1="6.74921" y1="15.2002" x2="25.1552" y2="24.6936" gradientUnits="userSpaceOnUse">
<stop offset="0.48" stop-color="white" stop-opacity="0"/>
<stop offset="1" stop-color="white"/>
</linearGradient>
<linearGradient id="paint10_linear_1_947" x1="1.79318" y1="42.4771" x2="25.4403" y2="-4.71826" gradientUnits="userSpaceOnUse">
<stop stop-color="#1F002C"/>
<stop offset="0.52" stop-color="#E50A8C"/>
<stop offset="1" stop-color="#DC2B17"/>
</linearGradient>
<linearGradient id="paint11_linear_1_947" x1="17.4153" y1="21.7655" x2="54.1406" y2="-21.2146" gradientUnits="userSpaceOnUse">
<stop offset="0.02" stop-color="white" stop-opacity="0"/>
<stop offset="1" stop-color="white"/>
</linearGradient>
<linearGradient id="paint12_linear_1_947" x1="16.612" y1="20.8879" x2="-21.1888" y2="20.344" gradientUnits="userSpaceOnUse">
<stop offset="0.14" stop-color="white" stop-opacity="0"/>
<stop offset="1" stop-color="white"/>
</linearGradient>
</defs>
</svg>
