<svg width="22" height="22" viewBox="0 0 22 22" fill="none" xmlns="http://www.w3.org/2000/svg">
<path d="M21.1794 19.4125L17.1256 15.3588C18.3618 13.7472 19.0306 11.7723 19.0281 9.74128C19.0281 7.26003 18.0619 4.92816 16.3075 3.17378C15.4471 2.30856 14.4236 1.6226 13.2963 1.15561C12.169 0.688609 10.9602 0.449853 9.74 0.453159C7.25938 0.453159 4.9275 1.41941 3.1725 3.17378C-0.448125 6.79503 -0.448125 12.6875 3.1725 16.3088C4.0329 17.174 5.05639 17.86 6.18371 18.327C7.31103 18.794 8.51978 19.0327 9.74 19.0294C11.7988 19.0294 13.7494 18.355 15.3581 17.1263L19.4119 21.1807C19.6556 21.4244 19.9756 21.5469 20.2956 21.5469C20.6156 21.5469 20.9356 21.4244 21.1794 21.1807C21.2955 21.0646 21.3876 20.9268 21.4505 20.7751C21.5133 20.6234 21.5457 20.4608 21.5457 20.2966C21.5457 20.1324 21.5133 19.9698 21.4505 19.8181C21.3876 19.6664 21.2955 19.5286 21.1794 19.4125ZM4.94063 14.5413C2.29375 11.8944 2.29438 7.58816 4.94063 4.94128C5.5696 4.30915 6.31769 3.80801 7.1416 3.46686C7.9655 3.12571 8.84888 2.95132 9.74063 2.95378C10.6323 2.95133 11.5156 3.12573 12.3394 3.46688C13.1632 3.80803 13.9111 4.30917 14.54 4.94128C15.1723 5.57017 15.6736 6.31822 16.0149 7.14214C16.3561 7.96606 16.5306 8.84949 16.5281 9.74128C16.5281 11.5544 15.8219 13.2588 14.54 14.5413C13.2581 15.8238 11.5538 16.5288 9.74 16.5288C7.9275 16.5288 6.2225 15.8225 4.94 14.5413H4.94063Z" fill="#A4A4A4"/>
</svg>
