<svg width="25" height="22" viewBox="0 0 25 22" fill="none" xmlns="http://www.w3.org/2000/svg">
<path d="M14.5443 19.383H9.79214C8.92706 19.383 8.92706 18.0758 9.79214 18.0758H14.5443C15.4094 18.0758 15.4094 19.383 14.5443 19.383ZM17.9808 22H6.35535C5.49027 22 5.49027 20.6928 6.35535 20.6928H17.9808C18.8459 20.6928 18.8459 22 17.9808 22ZM11.5147 0C8.63367 0.155993 6.0393 1.32057 4.04334 3.11929L6.53429 5.61024C7.86154 4.45641 9.56178 3.67441 11.5147 3.52975V0ZM3.53236 11.515C3.67122 9.61088 4.42155 7.92371 5.61111 6.53574L3.11435 4.03898C1.30343 6.05033 0.151926 8.58806 0 11.515H3.53236ZM3.52655 12.8222H0C0.13653 15.3925 1.05448 17.7554 2.53947 19.6621C2.76634 19.9532 3.19801 19.9849 3.47949 19.7461L5.16666 18.3169C5.44088 18.0845 5.4679 17.6842 5.2509 17.3975C4.24683 16.0707 3.64798 14.4817 3.52655 12.8222ZM22.6057 5.86152C22.016 6.58571 21.1407 7.65965 20.1624 8.85792C20.5891 9.87929 20.8392 10.9922 20.8392 12.1686C20.8422 14.0688 20.2182 15.9168 19.064 17.4262C18.8537 17.7016 18.9132 18.0981 19.1782 18.3212L20.8578 19.735C21.1428 19.975 21.5791 19.9422 21.8077 19.6479C23.4715 17.51 24.3729 14.8774 24.3687 12.1684C24.3689 9.82351 23.7124 7.68115 22.6057 5.86152ZM21.8277 4.74516C19.6912 1.98812 16.4237 0.195209 12.822 0.00087127V3.53294C15.0619 3.70375 17.3629 4.74778 18.9966 6.83698C18.9966 6.83698 11.2144 12.6137 10.9375 12.8908C10.635 13.1971 10.4659 13.6107 10.4673 14.0412C10.4686 14.4718 10.6402 14.8843 10.9447 15.1887C11.2491 15.4932 11.6616 15.6648 12.0922 15.6661C12.5227 15.6674 12.9363 15.4984 13.2426 15.1958C13.6551 14.7831 21.8277 4.74516 21.8277 4.74516Z" fill="black"/>
</svg>
