<svg width="22" height="22" viewBox="0 0 22 22" fill="none" xmlns="http://www.w3.org/2000/svg">
<path d="M11 0C4.9255 0 0 4.92475 0 11C0 17.0752 4.92502 22 11 22C17.0755 22 22 17.0752 22 11C22 4.92475 17.0755 0 11 0ZM11 3.28913C11.9649 3.28906 12.8904 3.67234 13.5728 4.35464C14.2551 5.03695 14.6385 5.96238 14.6386 6.92737C14.6386 7.89235 14.2554 8.81784 13.5731 9.50023C12.8908 10.1826 11.9654 10.566 11.0005 10.5661C10.0355 10.5662 9.11009 10.1829 8.42773 9.50057C7.74537 8.81827 7.36199 7.89283 7.36192 6.92785C7.36186 5.96286 7.74512 5.03738 8.42739 4.35499C9.10966 3.67259 10.0351 3.28919 11 3.28913ZM10.9976 19.124C9.07003 19.1262 7.20532 18.4385 5.74062 17.1854C5.57017 17.04 5.43327 16.8593 5.33934 16.6558C5.24542 16.4524 5.19671 16.231 5.19656 16.0069C5.19656 13.9693 6.84565 12.3385 8.88369 12.3385H13.1173C15.1558 12.3385 16.7986 13.9693 16.7986 16.0069C16.7987 16.2309 16.7502 16.4523 16.6563 16.6557C16.5625 16.8591 16.4256 17.0397 16.255 17.1849C14.7904 18.4385 12.9254 19.1264 10.9976 19.124Z" fill="black"/>
</svg>
