<svg width="24" height="24" viewBox="0 0 24 24" fill="none" xmlns="http://www.w3.org/2000/svg">
<path d="M18.6662 11.0635L7.98588 0.383411C7.73885 0.136194 7.4091 0 7.05749 0C6.70589 0 6.37613 0.136194 6.12911 0.383411L5.34258 1.16975C4.83078 1.68213 4.83078 2.51491 5.34258 3.02651L14.3111 11.995L5.33263 20.9735C5.08561 21.2207 4.94922 21.5503 4.94922 21.9017C4.94922 22.2535 5.08561 22.583 5.33263 22.8304L6.11916 23.6166C6.36638 23.8638 6.69594 24 7.04754 24C7.39915 24 7.7289 23.8638 7.97593 23.6166L18.6662 12.9267C18.9138 12.6787 19.0498 12.3476 19.049 11.9956C19.0498 11.6422 18.9138 11.3113 18.6662 11.0635Z" fill="white"/>
</svg>
