<svg width="30" height="30" viewBox="0 0 30 30" fill="none" xmlns="http://www.w3.org/2000/svg">
<path d="M25.1794 23.4125L21.1256 19.3588C22.3618 17.7472 23.0306 15.7723 23.0281 13.7413C23.0281 11.26 22.0619 8.92816 20.3075 7.17378C19.4471 6.30856 18.4236 5.6226 17.2963 5.15561C16.169 4.68861 14.9602 4.44985 13.74 4.45316C11.2594 4.45316 8.9275 5.41941 7.1725 7.17378C3.55188 10.795 3.55188 16.6875 7.1725 20.3088C8.0329 21.174 9.05639 21.86 10.1837 22.327C11.311 22.794 12.5198 23.0327 13.74 23.0294C15.7988 23.0294 17.7494 22.355 19.3581 21.1263L23.4119 25.1807C23.6556 25.4244 23.9756 25.5469 24.2956 25.5469C24.6156 25.5469 24.9356 25.4244 25.1794 25.1807C25.2955 25.0646 25.3876 24.9268 25.4505 24.7751C25.5133 24.6234 25.5457 24.4608 25.5457 24.2966C25.5457 24.1324 25.5133 23.9698 25.4505 23.8181C25.3876 23.6664 25.2955 23.5286 25.1794 23.4125ZM8.94063 18.5413C6.29375 15.8944 6.29438 11.5882 8.94063 8.94128C9.5696 8.30915 10.3177 7.80801 11.1416 7.46686C11.9655 7.12571 12.8489 6.95132 13.7406 6.95378C14.6323 6.95133 15.5156 7.12573 16.3394 7.46688C17.1632 7.80803 17.9111 8.30917 18.54 8.94128C19.1723 9.57017 19.6736 10.3182 20.0149 11.1421C20.3561 11.9661 20.5306 12.8495 20.5281 13.7413C20.5281 15.5544 19.8219 17.2588 18.54 18.5413C17.2581 19.8238 15.5538 20.5288 13.74 20.5288C11.9275 20.5288 10.2225 19.8225 8.94 18.5413H8.94063Z" fill="#A4A4A4"/>
</svg>
