<svg width="74" height="74" viewBox="0 0 74 74" fill="none" xmlns="http://www.w3.org/2000/svg">
<g clip-path="url(#clip0_27_675)">
<path d="M58.4292 45.5867C56.9769 42.5589 51.7814 38.3562 46.7619 34.2954C43.9622 32.0322 41.3167 29.8924 39.6301 28.2059C39.2077 27.7804 38.5756 27.6447 38.0176 27.8452C36.9785 28.2214 36.3371 28.5112 35.8316 28.7362C35.0608 29.0815 34.8018 29.1987 33.7626 29.3035C33.5363 29.3258 33.3178 29.3979 33.1227 29.5147C32.9276 29.6314 32.7607 29.7899 32.6341 29.9787C30.4541 33.2378 28.1971 32.9603 26.6894 32.4547C26.2084 32.2944 26.1221 32.0877 26.0758 31.8904C25.7521 30.5369 27.3771 27.3857 29.4829 25.2797C34.4933 20.2662 37.0771 19.0113 42.5346 21.4502C48.7259 24.219 54.9296 26.3867 54.9913 26.4082C55.1826 26.4752 55.3853 26.5038 55.5876 26.4923C55.79 26.4808 55.9881 26.4294 56.1706 26.3412C56.353 26.2529 56.5163 26.1296 56.651 25.9781C56.7856 25.8266 56.8891 25.6501 56.9554 25.4585C57.2329 24.6538 56.8104 23.775 56.0057 23.4945C55.9439 23.4729 49.8637 21.3485 43.7957 18.632C36.7256 15.4715 32.8467 17.5528 27.3059 23.0967C25.1969 25.2057 22.3325 29.473 23.0725 32.6027C23.39 33.9347 24.3274 34.9214 25.721 35.3807C29.2145 36.5339 32.4025 35.43 34.7768 32.2789C35.7573 32.1279 36.2907 31.9059 37.0923 31.5452C37.449 31.384 37.8088 31.2298 38.1715 31.0827C39.9352 32.7384 42.3155 34.6654 44.8223 36.6912C49.3548 40.3572 54.4947 44.5137 55.651 46.9187C56.2214 48.1057 55.6078 48.8797 55.1915 49.2342C54.581 49.7584 53.7455 49.9249 53.2922 49.6072C52.7927 49.265 52.1422 49.2434 51.6272 49.5517C51.3738 49.7028 51.169 49.9234 51.0373 50.1874C50.9056 50.4514 50.8525 50.7477 50.8842 51.041C50.989 52.0215 50.0917 52.5827 49.7032 52.7769C48.7165 53.2764 47.6867 53.1902 47.3013 52.8324C46.8695 52.4317 46.2498 52.3144 45.701 52.5179C45.1522 52.7245 44.7698 53.2302 44.7143 53.816C44.6218 54.8273 43.8725 55.7985 42.8951 56.1778C42.4233 56.3565 41.7388 56.4645 41.1253 55.9033C40.9371 55.7337 40.7105 55.6126 40.465 55.5502C40.2195 55.4879 39.9625 55.4863 39.7163 55.5456C39.4698 55.6058 39.242 55.7259 39.0532 55.8954C38.8644 56.0648 38.7204 56.2783 38.634 56.5168C38.5755 56.6711 38.4428 57.041 36.9998 57.041C35.973 57.041 34.1261 56.3473 33.2228 55.7491C32.1405 55.0368 25.354 49.974 19.4927 45.0653C18.6695 44.3716 17.245 42.8854 15.987 41.5719C14.8708 40.4064 13.8502 39.3488 13.326 38.9048C12.6693 38.3498 11.698 38.4331 11.1523 39.0868C10.6035 39.7373 10.6835 40.7118 11.3342 41.2605C11.8122 41.6645 12.7372 42.6418 13.7577 43.7056C15.1329 45.1424 16.5543 46.6286 17.5102 47.4303C23.2514 52.2373 30.1519 57.4265 31.527 58.3298C32.6617 59.076 35.1067 60.1243 36.9999 60.1243C38.52 60.1243 39.6887 59.7759 40.4995 59.0945C41.5848 59.517 42.8182 59.5201 44.0052 59.0576C45.4082 58.5148 46.5613 57.4203 47.215 56.0945C48.4298 56.3535 49.8204 56.1716 51.0845 55.5365C52.321 54.9137 53.215 53.9609 53.659 52.8478C54.8863 52.9125 56.1503 52.4778 57.1956 51.5805C58.9657 50.0667 59.4527 47.7111 58.4292 45.5867Z" fill="#04E1D8"/>
<path d="M30.8337 20.041H16.9587C16.1077 20.041 15.417 20.7317 15.417 21.5827C15.417 22.4337 16.1077 23.1244 16.9587 23.1244H30.8337C31.6847 23.1244 32.3754 22.4337 32.3754 21.5827C32.3754 20.7317 31.6847 20.041 30.8337 20.041ZM62.9467 42.3058C62.4687 41.5997 61.5129 41.4055 60.8069 41.8865L56.2991 44.9143C55.5931 45.3891 55.4049 46.348 55.8798 47.0541C56.0216 47.2638 56.2127 47.4357 56.4363 47.5545C56.66 47.6733 56.9093 47.7354 57.1625 47.7355C57.4555 47.7355 57.7545 47.6523 58.0197 47.4735L62.5275 44.4457C63.2334 43.9708 63.4215 43.0119 62.9467 42.3058ZM53.376 49.6627C52.2722 48.7932 47.3357 43.7397 44.2832 40.5577C43.6942 39.9409 42.7169 39.9194 42.1032 40.5114C41.4865 41.1004 41.468 42.0777 42.057 42.6914C42.8495 43.5177 49.8393 50.8036 51.4642 52.0863C51.7356 52.3004 52.0713 52.4167 52.417 52.4163C52.8702 52.4163 53.3235 52.2128 53.6318 51.8273C54.1592 51.1612 54.0451 50.1899 53.376 49.6627ZM47.2155 52.7552C45.3685 51.2783 40.7282 46.348 39.6797 45.2072C39.1 44.5782 38.1288 44.5412 37.4998 45.1147C36.8738 45.6913 36.8307 46.6687 37.4073 47.2947C37.4628 47.3532 43.0005 53.3319 45.2883 55.1634C45.5619 55.3807 45.9009 55.4991 46.2503 55.4994C46.7005 55.4994 47.1506 55.299 47.4558 54.9229C47.9864 54.2568 47.8784 53.2855 47.2155 52.7552ZM41.0797 55.8602C38.8812 54.0072 34.3827 49.2187 33.5039 48.2782C32.9212 47.6554 31.9437 47.6215 31.324 48.2042C30.7012 48.787 30.6702 49.7613 31.25 50.3842C32.5142 51.7377 36.8185 56.3012 39.0909 58.2189C39.3684 58.4538 39.7202 58.5826 40.0837 58.5827C40.5215 58.5827 40.9594 58.3947 41.2647 58.0339C41.8135 57.3802 41.7302 56.409 41.0797 55.8602Z" fill="#04E1D8"/>
<path d="M18.019 17.3803C15.3765 14.8766 4.81 14.0656 1.63421 13.8776C1.19643 13.856 0.792465 14.0009 0.48418 14.2938C0.331199 14.438 0.209328 14.6119 0.126062 14.8049C0.0427958 14.9979 -0.000104329 15.2059 1.90525e-07 15.4161V43.1661C1.90525e-07 44.0171 0.690715 44.7078 1.54171 44.7078H10.7917C11.4577 44.7078 12.0497 44.2793 12.2563 43.6441C12.4813 42.9534 17.794 26.6488 18.4938 18.6321C18.534 18.1634 18.3612 17.7009 18.019 17.3803ZM9.66625 41.6246H3.08329V17.0688C8.03825 17.4604 13.3847 18.3114 15.3272 19.2549C14.5102 26.0074 10.8132 38.0046 9.66625 41.6246ZM72.4583 16.9578C60.3531 16.9578 53.6376 20.0566 53.357 20.1861C52.9562 20.3741 52.6571 20.7226 52.5338 21.145C52.4105 21.5675 52.4721 22.0208 52.7033 22.3968C54.6088 25.4648 60.5751 42.5033 61.7221 46.6596C61.8118 46.9849 62.0058 47.2717 62.2743 47.4761C62.5427 47.6805 62.8709 47.7912 63.2083 47.7911H72.4583C73.3093 47.7911 74 47.1004 74 46.2494V18.4994C74.0002 18.2969 73.9604 18.0964 73.883 17.9092C73.8056 17.7221 73.692 17.5521 73.5488 17.4089C73.4056 17.2657 73.2356 17.1522 73.0485 17.0748C72.8613 16.9974 72.6608 16.9576 72.4583 16.9578ZM70.9167 44.7078H64.3615C62.9 39.9471 58.5833 27.5336 56.1753 22.403C58.5278 21.6045 63.5815 20.2323 70.9167 20.0598V44.7078Z" fill="#04E1D8"/>
</g>
<defs>
<clipPath id="clip0_27_675">
<rect width="74" height="74" fill="white"/>
</clipPath>
</defs>
</svg>
