<svg width="70" height="70" viewBox="0 0 70 70" fill="none" xmlns="http://www.w3.org/2000/svg">
<g clip-path="url(#clip0_1_1607)">
<path d="M32.3048 47.4778C32.5611 47.2211 32.705 46.8732 32.705 46.5106C32.705 46.1479 32.5611 45.8 32.3048 45.5433C31.7708 45.0104 30.9057 45.0104 30.371 45.5433C29.838 46.0779 29.838 46.9431 30.371 47.4778C30.9055 48.0107 31.7708 48.0107 32.3048 47.4778ZM25.8322 15.0348C25.8322 23.3249 32.5766 30.0701 40.8669 30.0701C49.1571 30.0701 55.9017 23.3249 55.9017 15.0348C55.9017 6.74475 49.1571 0 40.8669 0C32.5766 0 25.8322 6.74461 25.8322 15.0348ZM53.1684 15.0348C53.1684 21.8179 47.6499 27.3362 40.8669 27.3362C34.0838 27.3362 28.5653 21.8179 28.5653 15.0348C28.5653 8.25221 34.0838 2.73383 40.8669 2.73383C47.6499 2.73383 53.1684 8.25221 53.1684 15.0348Z" fill="#FF007A"/>
<path d="M15.88 69.5954C16.4098 70.1294 17.2723 70.1354 17.8091 69.6066L24.4356 63.0783C25.5615 61.9526 25.9038 60.2857 25.4088 58.8369L26.834 57.4622C27.5967 56.7227 28.6178 56.3101 29.6801 56.3124H47.8503C51.0739 56.3124 54.1206 55.0744 56.4305 52.8266C56.5255 52.7342 55.709 53.696 68.8265 38.0182C70.772 35.7164 70.4811 32.26 68.1771 30.3123C65.8876 28.3828 62.4579 28.6599 60.5069 30.9221L52.4416 39.2119C51.4232 37.9584 49.8702 37.1771 48.1921 37.1771H32.9507C30.7818 36.2697 28.4806 35.8104 26.1062 35.8104C19.5245 35.8104 13.7774 38.8502 10.6933 44.5498C9.39393 44.3035 8.02346 44.6966 7.03772 45.6825L0.535511 52.2038C0.00463222 52.7362 0.00367516 53.5977 0.533324 54.1318L15.88 69.5954ZM26.1056 38.5437C28.1992 38.5437 30.2233 38.9651 32.1229 39.7961C32.2956 39.8718 32.4822 39.9109 32.6708 39.9109H48.1921C49.6741 39.9109 50.9259 41.1195 50.9259 42.6442C50.9259 44.1518 49.6998 45.378 48.1921 45.378H37.0405C36.2858 45.378 35.6739 45.9901 35.6739 46.7446C35.6739 47.4999 36.2858 48.1113 37.0405 48.1113H48.1921C51.2069 48.1113 53.6592 45.659 53.6592 42.6442C53.6592 42.4038 53.6421 42.1657 53.6112 41.9296C61.4132 33.9096 62.5134 32.7828 62.5604 32.7267C63.5346 31.5769 65.2638 31.4311 66.4141 32.4009C67.5656 33.3745 67.7114 35.1028 66.7346 36.259L54.4754 50.9146C52.6852 52.6331 50.3349 53.5791 47.8505 53.5791H29.6801C27.8995 53.5791 26.214 54.2599 24.9356 55.4952L23.774 56.6163L13.0662 45.9089C15.5687 41.214 20.2647 38.5437 26.1056 38.5437ZM8.97201 47.6142C9.42278 47.1634 10.115 47.0822 10.6645 47.4218C10.901 47.5661 10.2218 46.9477 22.5029 59.2118C23.0493 59.7581 23.0199 60.6286 22.5103 61.1381L16.8611 66.7035L3.43121 53.1711L8.97201 47.6142ZM39.2275 6.83398V8.43564C37.6365 8.99961 36.4936 10.519 36.4936 12.3012C36.4936 14.5619 38.3329 16.4017 40.5941 16.4017C41.3477 16.4017 41.9607 17.0147 41.9607 17.7683C41.9607 18.5219 41.3477 19.135 40.5941 19.135C40.0103 19.135 39.3796 18.768 38.8195 18.101C38.3335 17.5232 37.4714 17.4488 36.8937 17.9345C36.3158 18.4204 36.241 19.2825 36.7269 19.8603C37.4576 20.7291 38.3169 21.3348 39.2275 21.6404V23.2354C39.2275 23.9907 39.8394 24.6021 40.5941 24.6021C41.3488 24.6021 41.9607 23.9907 41.9607 23.2354V21.6338C43.5517 21.0693 44.6946 19.5499 44.6946 17.7683C44.6946 15.507 42.8553 13.6679 40.5941 13.6679C39.8405 13.6679 39.2275 13.0547 39.2275 12.3012C39.2275 11.5476 39.8405 10.934 40.5941 10.934C41.0785 10.934 41.5896 11.1812 42.0723 11.6485C42.6151 12.1735 43.4801 12.159 44.0051 11.6171C44.5301 11.0743 44.5157 10.2093 43.9737 9.6843C43.2798 9.01301 42.5855 8.6332 41.9607 8.42607V6.83398C41.9607 6.07889 41.3487 5.4668 40.5941 5.4668C39.8396 5.4668 39.2275 6.07889 39.2275 6.83398Z" fill="#FF007A"/>
</g>
<defs>
<clipPath id="clip0_1_1607">
<rect width="70" height="70" fill="white"/>
</clipPath>
</defs>
</svg>
