<svg width="64" height="64" viewBox="0 0 64 64" fill="none" xmlns="http://www.w3.org/2000/svg">
<path d="M46.9625 13.5831L33.756 0.295C33.6631 0.201505 33.5526 0.12731 33.4308 0.0766825C33.3091 0.026055 33.1786 -5.62758e-06 33.0467 9.11522e-10L4.125 9.11522e-10C3.03137 0.00125716 1.98289 0.436258 1.20957 1.20957C0.436258 1.98289 0.00125716 3.03137 0 4.125V59.875C0.00125716 60.9686 0.436258 62.0171 1.20957 62.7904C1.98289 63.5637 3.03137 63.9987 4.125 64H43.1286C44.2223 63.9987 45.2707 63.5637 46.0441 62.7904C46.8174 62.0171 47.2524 60.9686 47.2536 59.875V40.35L60.2895 27.3139C61.3885 26.2149 62.0059 24.7243 62.0059 23.1701C62.0059 21.6159 61.3885 20.1254 60.2895 19.0264C59.1905 17.9274 57.7 17.31 56.1457 17.31C54.5915 17.31 53.101 17.9274 52.002 19.0264L47.2533 23.7751V14.2876C47.2531 14.0236 47.1486 13.7704 46.9625 13.5831ZM48.805 25.052L54.2639 30.5109L35.1264 49.6484L29.6675 44.1895L48.805 25.052ZM51.563 22.2939L57.0219 27.7528L55.678 29.0966L50.2195 23.6375L51.563 22.2939ZM28.7635 46.1125L33.1835 50.5326L27.6675 51.5611L28.7635 46.1125ZM34.5409 3.92188L43.2784 12.7128H34.5409V3.92188ZM45.2536 59.875C45.253 60.4384 45.0289 60.9785 44.6305 61.3769C44.2322 61.7753 43.692 61.9994 43.1286 62H4.125C3.56161 61.9994 3.02147 61.7753 2.62309 61.3769C2.22471 60.9785 2.00063 60.4384 2 59.875V4.125C2.00063 3.56161 2.22471 3.02147 2.62309 2.62309C3.02147 2.22471 3.56161 2.00063 4.125 2H32.5409V13.7125C32.5409 13.9777 32.6462 14.2321 32.8338 14.4196C33.0213 14.6071 33.2757 14.7125 33.5409 14.7125H45.2534V25.775L27.3923 43.6366C27.2529 43.776 27.1579 43.9533 27.119 44.1465L25.4147 52.6189C25.3825 52.7793 25.3901 52.9451 25.4368 53.1019C25.4836 53.2587 25.5681 53.4016 25.683 53.5181C25.7979 53.6346 25.9396 53.7212 26.0957 53.7702C26.2518 53.8192 26.4175 53.8291 26.5784 53.7991L35.1558 52.2C35.3542 52.163 35.5369 52.0669 35.6796 51.9241L45.2536 42.35V59.875ZM58.875 20.4408C59.5954 21.1665 59.9997 22.1476 59.9997 23.1702C59.9997 24.1928 59.5954 25.1739 58.875 25.8996L58.436 26.3386L52.9772 20.8797L53.4161 20.4408C54.1406 19.7179 55.1222 19.312 56.1456 19.312C57.1689 19.312 58.1505 19.7179 58.875 20.4408ZM24.255 46.8759C24.255 47.1411 24.1496 47.3954 23.9621 47.583C23.7746 47.7705 23.5202 47.8759 23.255 47.8759H7.64213C7.37691 47.8759 7.12255 47.7705 6.93502 47.583C6.74748 47.3954 6.64213 47.1411 6.64213 46.8759C6.64213 46.6107 6.74748 46.3563 6.93502 46.1688C7.12255 45.9812 7.37691 45.8759 7.64213 45.8759H23.2546C23.386 45.8758 23.5161 45.9017 23.6374 45.9519C23.7588 46.0021 23.8691 46.0758 23.962 46.1686C24.0549 46.2615 24.1286 46.3718 24.1788 46.4931C24.2291 46.6145 24.255 46.7445 24.255 46.8759ZM6.6425 38.1609C6.6425 37.8957 6.74786 37.6413 6.93539 37.4538C7.12293 37.2662 7.37728 37.1609 7.6425 37.1609H28.2719C28.5371 37.1609 28.7914 37.2662 28.979 37.4538C29.1665 37.6413 29.2719 37.8957 29.2719 38.1609C29.2719 38.4261 29.1665 38.6804 28.979 38.868C28.7914 39.0555 28.5371 39.1609 28.2719 39.1609H7.64213C7.37691 39.1609 7.12255 39.0555 6.93502 38.868C6.74748 38.6804 6.64213 38.4261 6.64213 38.1609H6.6425ZM6.6425 29.4459C6.6425 29.1807 6.74786 28.9263 6.93539 28.7388C7.12293 28.5512 7.37728 28.4459 7.6425 28.4459H39.6115C39.8767 28.4459 40.1311 28.5512 40.3186 28.7388C40.5061 28.9263 40.6115 29.1807 40.6115 29.4459C40.6115 29.7111 40.5061 29.9654 40.3186 30.153C40.1311 30.3405 39.8767 30.4459 39.6115 30.4459H7.64213C7.37691 30.4459 7.12255 30.3405 6.93502 30.153C6.74748 29.9654 6.64213 29.7111 6.64213 29.4459H6.6425ZM6.6425 20.731C6.6425 20.4658 6.74786 20.2114 6.93539 20.0239C7.12293 19.8364 7.37728 19.731 7.6425 19.731H39.6115C39.8767 19.731 40.1311 19.8364 40.3186 20.0239C40.5061 20.2114 40.6115 20.4658 40.6115 20.731C40.6115 20.9962 40.5061 21.2506 40.3186 21.4381C40.1311 21.6256 39.8767 21.731 39.6115 21.731H7.64213C7.37691 21.731 7.12255 21.6256 6.93502 21.4381C6.74748 21.2506 6.64213 20.9962 6.64213 20.731H6.6425ZM6.6425 12.016C6.6425 11.7508 6.74786 11.4964 6.93539 11.3089C7.12293 11.1214 7.37728 11.016 7.6425 11.016H28.8115C29.0767 11.016 29.3311 11.1214 29.5186 11.3089C29.7061 11.4964 29.8115 11.7508 29.8115 12.016C29.8115 12.2812 29.7061 12.5356 29.5186 12.7231C29.3311 12.9106 29.0767 13.016 28.8115 13.016H7.64213C7.37691 13.016 7.12255 12.9106 6.93502 12.7231C6.74748 12.5356 6.64213 12.2812 6.64213 12.016H6.6425Z" fill="black"/>
</svg>
