<svg width="16" height="16" viewBox="0 0 16 16" fill="none" xmlns="http://www.w3.org/2000/svg">
<g clip-path="url(#clip0_154_743)">
<path d="M14.668 8.66577C14.4912 8.66577 14.3216 8.73601 14.1966 8.86103C14.0715 8.98606 14.0013 9.15563 14.0013 9.33244V12.1411C14.0008 12.6337 13.8048 13.106 13.4565 13.4543C13.1082 13.8027 12.6359 13.9986 12.1433 13.9991H3.8593C3.36669 13.9986 2.89441 13.8027 2.54608 13.4543C2.19775 13.106 2.00183 12.6337 2.0013 12.1411V9.33244C2.0013 9.15563 1.93106 8.98606 1.80604 8.86103C1.68102 8.73601 1.51145 8.66577 1.33464 8.66577C1.15782 8.66577 0.988255 8.73601 0.863231 8.86103C0.738207 8.98606 0.667969 9.15563 0.667969 9.33244V12.1411C0.668851 12.9872 1.00536 13.7984 1.60366 14.3967C2.20196 14.995 3.01318 15.3316 3.8593 15.3324H12.1433C12.9894 15.3316 13.8006 14.995 14.3989 14.3967C14.9972 13.7984 15.3338 12.9872 15.3346 12.1411V9.33244C15.3346 9.15563 15.2644 8.98606 15.1394 8.86103C15.0143 8.73601 14.8448 8.66577 14.668 8.66577Z" fill="#5F0052"/>
<path d="M4.47356 5.80387L7.33556 2.94187V11.3325C7.33556 11.5094 7.4058 11.6789 7.53082 11.8039C7.65584 11.929 7.82541 11.9992 8.00222 11.9992C8.17904 11.9992 8.3486 11.929 8.47363 11.8039C8.59865 11.6789 8.66889 11.5094 8.66889 11.3325V2.94187L11.5309 5.80387C11.6566 5.92531 11.825 5.99251 11.9998 5.99099C12.1746 5.98947 12.3418 5.91936 12.4654 5.79575C12.589 5.67215 12.6592 5.50494 12.6607 5.33014C12.6622 5.15534 12.595 4.98694 12.4736 4.86121L8.47356 0.861207C8.34854 0.736226 8.179 0.666016 8.00222 0.666016C7.82545 0.666016 7.65591 0.736226 7.53089 0.861207L3.53089 4.86121C3.40945 4.98694 3.34226 5.15534 3.34378 5.33014C3.34529 5.50494 3.41541 5.67215 3.53901 5.79575C3.66262 5.91936 3.82983 5.98947 4.00462 5.99099C4.17942 5.99251 4.34782 5.92531 4.47356 5.80387Z" fill="#5F0052"/>
</g>
<defs>
<clipPath id="clip0_154_743">
<rect width="16" height="16" fill="white"/>
</clipPath>
</defs>
</svg>
