<svg width="60" height="60" viewBox="0 0 60 60" fill="none" xmlns="http://www.w3.org/2000/svg">
<path d="M55 32.5C54.337 32.5 53.7011 32.7634 53.2322 33.2322C52.7634 33.7011 52.5 34.337 52.5 35V45.5325C52.498 47.3798 51.7633 49.1508 50.4571 50.4571C49.1508 51.7633 47.3798 52.498 45.5325 52.5H14.4675C12.6202 52.498 10.8492 51.7633 9.54293 50.4571C8.2367 49.1508 7.50199 47.3798 7.5 45.5325V35C7.5 34.337 7.23661 33.7011 6.76777 33.2322C6.29893 32.7634 5.66304 32.5 5 32.5C4.33696 32.5 3.70107 32.7634 3.23223 33.2322C2.76339 33.7011 2.5 34.337 2.5 35V45.5325C2.50331 48.7055 3.76523 51.7475 6.00885 53.9911C8.25248 56.2348 11.2945 57.4967 14.4675 57.5H45.5325C48.7055 57.4967 51.7475 56.2348 53.9911 53.9911C56.2348 51.7475 57.4967 48.7055 57.5 45.5325V35C57.5 34.337 57.2366 33.7011 56.7678 33.2322C56.2989 32.7634 55.663 32.5 55 32.5Z" fill="#5F0052"/>
<path d="M16.768 21.767L27.5005 11.0345V42.4995C27.5005 43.1625 27.7639 43.7984 28.2328 44.2672C28.7016 44.7361 29.3375 44.9995 30.0005 44.9995C30.6636 44.9995 31.2995 44.7361 31.7683 44.2672C32.2371 43.7984 32.5005 43.1625 32.5005 42.4995V11.0345L43.233 21.767C43.7045 22.2224 44.336 22.4743 44.9915 22.4687C45.647 22.463 46.2741 22.2 46.7376 21.7365C47.2011 21.273 47.464 20.646 47.4697 19.9905C47.4754 19.335 47.2234 18.7035 46.768 18.232L31.768 3.23197C31.2992 2.76329 30.6634 2.5 30.0005 2.5C29.3376 2.5 28.7018 2.76329 28.233 3.23197L13.233 18.232C12.7776 18.7035 12.5256 19.335 12.5313 19.9905C12.537 20.646 12.8 21.273 13.2635 21.7365C13.727 22.2 14.354 22.463 15.0095 22.4687C15.665 22.4743 16.2965 22.2224 16.768 21.767Z" fill="#5F0052"/>
</svg>
