<svg width="64" height="64" viewBox="0 0 64 64" fill="none" xmlns="http://www.w3.org/2000/svg">
<g clip-path="url(#clip0_1_1657)">
<path d="M46.4931 27.705V15.5932C46.4931 15.2466 46.3329 14.9262 46.1064 14.6728L32.5273 0.413574C32.2739 0.146972 31.9135 0 31.5537 0H10.0244C6.0498 0 2.875 3.24121 2.875 7.2163V47.9267C2.875 51.9018 6.0498 55.0898 10.0244 55.0898H27.0185C30.2329 60.4252 36.0756 63.9999 42.7314 63.9999C52.8422 63.9999 61.099 55.7831 61.099 45.6591C61.1127 36.8154 54.7631 29.4257 46.4931 27.705ZM32.8877 4.68212L41.998 14.2724H36.0888C34.3281 14.2724 32.8877 12.8188 32.8877 11.0581V4.68212ZM10.0244 52.4218C7.53027 52.4218 5.54296 50.4208 5.54296 47.9267V7.2163C5.54296 4.70849 7.53027 2.66796 10.0244 2.66796H30.2197V11.0581C30.2197 14.2993 32.8476 16.9404 36.0888 16.9404H43.8251V27.3579C43.4252 27.3447 43.1049 27.3046 42.7582 27.3046C38.103 27.3046 33.8212 29.0922 30.5932 31.8935H13.6528C12.9189 31.8935 12.3188 32.4936 12.3188 33.227C12.3188 33.9609 12.9189 34.561 13.6528 34.561H28.1123C27.165 35.895 26.3779 37.2289 25.7646 38.6962H13.6528C12.9189 38.6962 12.3188 39.2963 12.3188 40.0302C12.3188 40.7636 12.9189 41.3642 13.6528 41.3642H24.8974C24.5639 42.6982 24.3906 44.1786 24.3906 45.6591C24.3906 48.06 24.8574 50.4345 25.6977 52.4355H10.0244V52.4218ZM42.7451 61.3456C34.1015 61.3456 27.0717 54.3158 27.0717 45.6723C27.0717 37.0288 34.0878 29.999 42.7451 29.999C51.4018 29.999 58.4179 37.0288 58.4179 45.6723C58.4179 54.3158 51.3886 61.3456 42.7451 61.3456Z" fill="black"/>
<path d="M13.6543 27.8779H27.1665C27.9004 27.8779 28.5005 27.2773 28.5005 26.5439C28.5005 25.8101 27.9004 25.21 27.1665 25.21H13.6543C12.9204 25.21 12.3203 25.8101 12.3203 26.5439C12.3203 27.2773 12.9204 27.8779 13.6543 27.8779Z" fill="black"/>
<path d="M43.6922 35.8281C43.4388 35.5615 43.0921 35.4014 42.7186 35.4014C42.3451 35.4014 41.9984 35.5615 41.745 35.8281L33.9281 44.2182C33.4213 44.7519 33.4613 45.6055 33.995 46.0991C34.5287 46.6059 35.3954 46.5659 35.9022 46.0327L41.4247 40.1235V54.6894C41.4247 55.4233 42.0248 56.0234 42.7586 56.0234C43.492 56.0234 44.0926 55.4233 44.0926 54.6894V40.1235L49.5746 46.0327C49.8416 46.3125 50.1883 46.4595 50.5487 46.4595C50.8685 46.4595 51.1888 46.3393 51.4554 46.0991C51.9891 45.5923 52.0291 44.7519 51.5223 44.2182L43.6922 35.8281Z" fill="black"/>
</g>
<defs>
<clipPath id="clip0_1_1657">
<rect width="64" height="64" fill="white"/>
</clipPath>
</defs>
</svg>
