<svg width="30" height="31" viewBox="0 0 30 31" fill="none" xmlns="http://www.w3.org/2000/svg">
<g clip-path="url(#clip0_1_2959)">
<path d="M15.042 30.459C23.2826 30.459 29.9629 23.7787 29.9629 15.5381C29.9629 7.29751 23.2826 0.617188 15.042 0.617188C6.80142 0.617188 0.121094 7.29751 0.121094 15.5381C0.121094 23.7787 6.80142 30.459 15.042 30.459Z" fill="#32BA7C"/>
<path d="M11.2305 22.2692L18.9027 29.9415C25.2571 28.247 29.964 22.4575 29.964 15.5383C29.964 15.3971 29.964 15.2559 29.964 15.1147L23.9391 9.56055L11.2305 22.2692Z" fill="#0AA06E"/>
<path d="M15.4194 18.8824C16.0783 19.5413 16.0783 20.671 15.4194 21.33L14.0544 22.695C13.3954 23.3539 12.2657 23.3539 11.6068 22.695L5.62899 16.6701C4.97002 16.0111 4.97002 14.8815 5.62899 14.2225L6.994 12.8575C7.65296 12.1985 8.78262 12.1985 9.44159 12.8575L15.4194 18.8824Z" fill="white"/>
<path d="M20.6444 8.47958C21.3033 7.82061 22.433 7.82061 23.092 8.47958L24.457 9.84458C25.1159 10.5036 25.1159 11.6332 24.457 12.2922L14.1017 22.6003C13.4428 23.2593 12.3131 23.2593 11.6542 22.6003L10.2891 21.2353C9.63018 20.5763 9.63018 19.4467 10.2891 18.7877L20.6444 8.47958Z" fill="white"/>
</g>
<defs>
<clipPath id="clip0_1_2959">
<rect width="29.8418" height="29.8418" fill="white" transform="translate(0.121094 0.617188)"/>
</clipPath>
</defs>
</svg>
