<svg width="65" height="66" viewBox="0 0 65 66" fill="none" xmlns="http://www.w3.org/2000/svg">
<g clip-path="url(#clip0_1_2993)">
<path d="M32.5379 65.3951C50.411 65.3951 64.9 50.9061 64.9 33.033C64.9 15.1599 50.411 0.670898 32.5379 0.670898C14.6648 0.670898 0.175781 15.1599 0.175781 33.033C0.175781 50.9061 14.6648 65.3951 32.5379 65.3951Z" fill="#86D008"/>
<path d="M24.2656 47.6333L40.9061 64.2737C54.688 60.5985 64.8969 48.0416 64.8969 33.0346C64.8969 32.7283 64.8969 32.4221 64.8969 32.1158L51.8295 20.0693L24.2656 47.6333Z" fill="#5DAD07"/>
<path d="M33.3532 40.2819C34.7825 41.7111 34.7825 44.1613 33.3532 45.5905L30.3927 48.5511C28.9634 49.9803 26.5133 49.9803 25.0841 48.5511L12.1188 35.4837C10.6896 34.0545 10.6896 31.6044 12.1188 30.1751L15.0794 27.2146C16.5086 25.7853 18.9587 25.7853 20.388 27.2146L33.3532 40.2819Z" fill="white"/>
<path d="M44.6857 17.7212C46.115 16.292 48.5651 16.292 49.9943 17.7212L52.9549 20.6818C54.3842 22.111 54.3842 24.5611 52.9549 25.9904L30.4954 48.3478C29.0662 49.777 26.616 49.777 25.1868 48.3478L22.2262 45.3872C20.797 43.958 20.797 41.5079 22.2262 40.0786L44.6857 17.7212Z" fill="white"/>
</g>
<defs>
<clipPath id="clip0_1_2993">
<rect width="64.7242" height="64.7242" fill="white" transform="translate(0.175781 0.670898)"/>
</clipPath>
</defs>
</svg>
